{
.appVersion = "3507";
.formatVersion = 3;
axes = (
{
name = Color;
tag = COLR;
}
);
classes = (
{
automatic = 1;

glyphs = (
{
color = 9;
glyphname = A;
kernLeft = A;
kernRight = A;
lastChange = "2025-12-04 18:29:11 +0000";
layers = (
{
anchors = (
{
name = bottom;
pos = (374,0);
},
{
name = ogonek;
pos = (613,-5);
},
{
name = top;
pos = (382,735);
}
);
background = {
shapes = (
{
closed = 0;
nodes = (
(494,0,l),
(529,700,l)
);
}
);
};
layerId = "6F9C6BB4-2DCF-443B-A55D-9CE049090094";
shapes = (
{
closed = 1;
nodes = (
(134,-5,o),
(147,5,o),
(151,17,cs),
(413,738,l),
(353,738,l),
(594,17,ls),
(598,4,o),
(610,-5,o),
(625,-5,cs),
(647,-5,o),
(663,17,o),
(656,37,cs),
(415,758,ls),
(411,771,o),
(399,780,o),
(383,780,cs),
(368,780,o),
(355,770,o),
(351,758,cs),
(89,37,ls),
(83,19,o),
(96,-5,o),
(120,-5,cs)
);
},
{
closed = 1;
nodes = (
(535,243,l),
(535,303,l),
(217,303,l),
(217,243,l)
);
}
);
width = 745;
},
{
anchors = (
{
name = bottom;
pos = (374,0);
},
{
name = ogonek;
pos = (613,-5);
},
{
name = top;
pos = (382,735);
}
);
background = {
shapes = (
{
closed = 1;
nodes = (
(134,-5,o),
(147,5,o),
(151,17,c),
(413,738,l),
(419,756,o),
(406,780,o),
(382,780,c),
(368,780,o),
(355,770,o),
(351,758,c),
(89,37,l),
(83,19,o),
(96,-5,o),
(120,-5,c)
);
},
{
closed = 1;
nodes = (
(535,243,l),
(552,243,o),
(565,256,o),
(565,273,c),
(565,290,o),
(552,303,o),
(535,303,c),
(217,303,l),
(200,303,o),
(187,290,o),
(187,273,c),
(187,256,o),
(200,243,o),
(217,243,c)
);
},
{
closed = 1;
nodes = (
(647,-5,o),
(662,17,o),
(656,37,c),
(415,758,l),
(411,771,o),
(399,780,o),
(384,780,c),
(362,780,o),
(347,758,o),
(353,738,c),
(594,17,l),
(598,4,o),
(610,-5,o),
(625,-5,c)
);
},
{
closed = 1;
nodes = (
(384,718,l),
(401,718,o),
(414,731,o),
(414,748,c),
(414,765,o),
(401,778,o),
(384,778,c),
(382,778,l),
(365,778,o),
(352,765,o),
(352,748,c),
(352,731,o),
(365,718,o),
(382,718,c)
);
}
);
};
layerId = m002;
shapes = (
{
closed = 1;
nodes = (
(134,-5,o),
(147,5,o),
(151,17,cs),
(413,738,l),
(353,738,l),
(594,17,ls),
(598,4,o),
(610,-5,o),
(625,-5,cs),
(647,-5,o),
(663,17,o),
(656,37,cs),
(415,758,ls),
(411,771,o),
(399,780,o),
(383,780,cs),
(368,780,o),
(355,770,o),
(351,758,cs),
(89,37,ls),
(83,19,o),
(96,-5,o),
(120,-5,cs)
);
},
{
alignment = -1;
ref = _GuideLine;
scale = (1.51,1);
},
{
closed = 1;
nodes = (
(535,243,l),
(535,303,l),
(217,303,l),
(217,243,l)
);
}
);
width = 745;
},
{
anchors = (
{
name = bottom;
pos = (374,0);
},
{
name = ogonek;
pos = (613,-5);
},
{
name = top;
pos = (382,735);
}
);
background = {
shapes = (
{
closed = 1;
nodes = (
(134,-5,o),
(147,5,o),
(151,17,c),
(413,738,l),
(419,756,o),
(406,780,o),
(382,780,c),
(368,780,o),
(355,770,o),
(351,758,c),
(89,37,l),
(83,19,o),
(96,-5,o),
(120,-5,c)
);
},
{
closed = 1;
nodes = (
(535,243,l),
(552,243,o),
(565,256,o),
(565,273,c),
(565,290,o),
(552,303,o),
(535,303,c),
(217,303,l),
(200,303,o),
(187,290,o),
(187,273,c),
(187,256,o),
(200,243,o),
(217,243,c)
);
},
{
closed = 1;
nodes = (
(647,-5,o),
(662,17,o),
(656,37,c),
(415,758,l),
(411,771,o),
(399,780,o),
(384,780,c),
(362,780,o),
(347,758,o),
(353,738,c),
(594,17,l),
(598,4,o),
(610,-5,o),
(625,-5,c)
);
},
{
closed = 1;
nodes = (
(384,718,l),
(401,718,o),
(414,731,o),
(414,748,c),
(414,765,o),
(401,778,o),
(384,778,c),
(382,778,l),
(365,778,o),
(352,765,o),
(352,748,c),
(352,731,o),
(365,718,o),
(382,718,c)
);
}
);
};
layerId = "F3447581-435E-44E2-ABAC-414C89955411";
shapes = (
{
closed = 1;
nodes = (
(134,-5,o),
(147,5,o),
(151,17,cs),
(413,738,l),
(353,738,l),
(594,17,ls),
(598,4,o),
(610,-5,o),
(625,-5,cs),
(647,-5,o),
(663,17,o),
(656,37,cs),
(415,758,ls),
(411,771,o),
(399,780,o),
(383,780,cs),
(368,780,o),
(355,770,o),
(351,758,cs),
(89,37,ls),
(83,19,o),
(96,-5,o),
(120,-5,cs)
);
},
{
closed = 1;
nodes = (
(535,243,l),
(535,303,l),
(217,303,l),
(217,243,l)
);
}
);
width = 745;
},
{
background = {
shapes = (
{
closed = 0;
nodes = (
(494,0,l),
(529,700,l)
);
},
{
closed = 1;
nodes = (
(134,-5,o),
(147,5,o),
(151,17,cs),
(413,738,l),
(353,738,l),
(594,17,ls),
(598,4,o),
(610,-5,o),
(625,-5,cs),
(647,-5,o),
(663,17,o),
(656,37,cs),
(415,758,ls),
(411,771,o),
(399,780,o),
(383,780,cs),
(368,780,o),
(355,770,o),
(351,758,cs),
(89,37,ls),
(83,19,o),
(96,-5,o),
(120,-5,cs)
);
},
{
closed = 1;
nodes = (
(535,243,l),
(535,303,l),
(217,303,l),
(217,243,l)
);
}
);
};
layerId = m004;
shapes = (
{
alignment = -1;
ref = _GuideLine;
scale = (1.51,1);
}
);
width = 745;
},
{
anchors = (
{
name = bottom;
pos = (374,0);
},
{
name = ogonek;
pos = (613,-5);
},
{
name = top;
pos = (382,735);
}
);
background = {
shapes = (
{
closed = 1;
nodes = (
(134,-5,o),
(147,5,o),
(151,17,c),
(413,738,l),
(419,756,o),
(406,780,o),
(382,780,c),
(368,780,o),
(355,770,o),
(351,758,c),
(89,37,l),
(83,19,o),
(96,-5,o),
(120,-5,c)
);
},
{
closed = 1;
nodes = (
(535,243,l),
(552,243,o),
(565,256,o),
(565,273,c),
(565,290,o),
(552,303,o),
(535,303,c),
(217,303,l),
(200,303,o),
(187,290,o),
(187,273,c),
(187,256,o),
(200,243,o),
(217,243,c)
);
},
{
closed = 1;
nodes = (
(647,-5,o),
(662,17,o),
(656,37,c),
(415,758,l),
(411,771,o),
(399,780,o),
(384,780,c),
(362,780,o),
(347,758,o),
(353,738,c),
(594,17,l),
(598,4,o),
(610,-5,o),
(625,-5,c)
);
},
{
closed = 1;
nodes = (
(384,718,l),
(401,718,o),
(414,731,o),
(414,748,c),
(414,765,o),
(401,778,o),
(384,778,c),
(382,778,l),
(365,778,o),
(352,765,o),
(352,748,c),
(352,731,o),
(365,718,o),
(382,718,c)
);
}
);
};
layerId = m005;
shapes = (
{
closed = 1;
nodes = (
(134,-5,o),
(147,5,o),
(151,17,cs),
(413,738,l),
(353,738,l),
(594,17,ls),
(598,4,o),
(610,-5,o),
(625,-5,cs),
(647,-5,o),
(663,17,o),
(656,37,cs),
(415,758,ls),
(411,771,o),
(399,780,o),
(383,780,cs),
(368,780,o),
(355,770,o),
(351,758,cs),
(89,37,ls),
(83,19,o),
(96,-5,o),
(120,-5,cs)
);
},
{
alignment = -1;
ref = _GuideLine;
scale = (1.51,1);
},
{
closed = 1;
nodes = (
(535,243,l),
(535,303,l),
(217,303,l),
(217,243,l)
);
}
);
width = 745;
}
);
unicode = 65;
},
{
color = 9;
glyphname = AE;
kernLeft = A;
kernRight = A;
lastChange = "2025-12-12 13:59:03 +0000";
layers = (
{
anchors = (
{
name = bottom;
pos = (264,0);
},
{
name = ogonek;
pos = (522,10);
},
{
name = top;
pos = (524,735);
},
{
name = topleft;
pos = (555,735);
}
);
background = {
shapes = (
{
attr = {
identifier = ID0x7fadab0a7ef0;
};
closed = 1;
nodes = (
(424,754,l),
(292,754,l),
(328,779,l),
(59,37,l),
(53,19,o),
(66,-5,o),
(90,-5,c),
(104,-5,o),
(117,5,o),
(121,17,c),
(374,719,l),
(338,694,l),
(424,694,l),
(510,694,l),
(527,694,o),
(540,707,o),
(540,724,c),
(540,741,o),
(527,754,o),
(510,754,c)
);
},
{
attr = {
identifier = ID0x7fadab0a7ef0;
};
closed = 1;
nodes = (
(778,395,l),
(791,399,o),
(799,410,o),
(799,424,c),
(799,444,o),
(780,459,o),
(760,453,c),
(166,288,l),
(184,230,l)
);
},
{
attr = {
identifier = ID0x7fadab051540;
};
closed = 1;
nodes = (
(541,60,l),
(542,694,l),
(793,694,l),
(810,694,o),
(823,707,o),
(823,724,c),
(823,741,o),
(810,754,o),
(793,754,c),
(478,754,l),
(475,0,l),
(802,0,l),
(819,0,o),
(832,13,o),
(832,30,c),
(832,47,o),
(819,60,o),
(802,60,c)
);
}
);
};
layerId = "6F9C6BB4-2DCF-443B-A55D-9CE049090094";
shapes = (
{
attr = {
identifier = ID0x7fadab0a7ef0;
};
closed = 1;
nodes = (
(104,-5,o),
(117,5,o),
(121,17,cs),
(374,719,l),
(338,715,l),
(510,715,l),
(478,740,l),
(478,0,l),
(802,0,ls),
(819,0,o),
(832,13,o),
(832,30,cs),
(832,47,o),
(819,60,o),
(802,60,cs),
(542,60,l),
(542,721,l),
(515,715,l),
(793,715,ls),
(810,715,o),
(823,728,o),
(823,745,cs),
(823,762,o),
(810,775,o),
(793,775,cs),
(292,775,l),
(328,779,l),
(59,37,ls),
(53,19,o),
(66,-5,o),
(90,-5,cs)
);
},
{
attr = {
identifier = ID0x7fadab0a7ef0;
};
closed = 1;
nodes = (
(778,395,ls),
(791,399,o),
(799,410,o),
(799,424,cs),
(799,444,o),
(780,459,o),
(760,453,cs),
(166,288,l),
(184,230,l)
);
}
);
width = 888;
},
{
anchors = (
{
name = bottom;
pos = (264,0);
},
{
name = ogonek;
pos = (522,10);
},
{
name = top;
pos = (524,735);
},
{
name = topleft;
pos = (555,735);
}
);
background = {
shapes = (
{
attr = {
identifier = ID0x7fadab0a7ef0;
};
closed = 1;
nodes = (
(424,754,l),
(319,754,l),
(59,37,l),
(53,19,o),
(66,-5,o),
(90,-5,c),
(104,-5,o),
(117,5,o),
(121,17,c),
(365,694,l),
(424,694,l),
(510,694,l),
(527,694,o),
(540,707,o),
(540,724,c),
(540,741,o),
(527,754,o),
(510,754,c)
);
},
{
attr = {
identifier = ID0x7fadab0a7ef0;
};
closed = 1;
nodes = (
(778,395,l),
(791,399,o),
(799,410,o),
(799,424,c),
(799,444,o),
(780,459,o),
(760,453,c),
(166,288,l),
(153,284,o),
(145,273,o),
(145,259,c),
(145,239,o),
(164,224,o),
(184,230,c)
);
},
{
attr = {
identifier = ID0x7fadab051540;
};
closed = 1;
nodes = (
(541,60,l),
(542,694,l),
(793,694,l),
(810,694,o),
(823,707,o),
(823,724,c),
(823,741,o),
(810,754,o),
(793,754,c),
(478,754,l),
(475,0,l),
(802,0,l),
(819,0,o),
(832,13,o),
(832,30,c),
(832,47,o),
(819,60,o),
(802,60,c)
);
}
);
};
layerId = m002;
shapes = (
{
attr = {
identifier = ID0x7fadab0a7ef0;
};
closed = 1;
nodes = (
(104,-5,o),
(117,5,o),
(121,17,cs),
(374,719,l),
(338,715,l),
(510,715,l),
(478,740,l),
(478,0,l),
(802,0,ls),
(819,0,o),
(832,13,o),
(832,30,cs),
(832,47,o),
(819,60,o),
(802,60,cs),
(542,60,l),
(542,721,l),
(515,715,l),
(793,715,ls),
(810,715,o),
(823,728,o),
(823,745,cs),
(823,762,o),
(810,775,o),
(793,775,cs),
(292,775,l),
(328,779,l),
(59,37,ls),
(53,19,o),
(66,-5,o),
(90,-5,cs)
);
},
{
alignment = -1;
ref = _GuideLine;
scale = (1.78,1);
},
{
attr = {
identifier = ID0x7fadab0a7ef0;
};
closed = 1;
nodes = (
(778,395,ls),
(791,399,o),
(799,410,o),
(799,424,cs),
(799,444,o),
(780,459,o),
(760,453,cs),
(166,288,l),
(184,230,l)
);
}
);
width = 888;
},
{
anchors = (
{
name = bottom;
pos = (264,0);
},
{
name = ogonek;
pos = (522,10);
},
{
name = top;
pos = (524,735);
},
{
name = topleft;
pos = (555,735);
}
);
background = {
shapes = (
{
attr = {
identifier = ID0x7fadab0a7ef0;
};
closed = 1;
nodes = (
(424,754,l),
(319,754,l),
(59,37,l),
(53,19,o),
(66,-5,o),
(90,-5,c),
(104,-5,o),
(117,5,o),
(121,17,c),
(365,694,l),
(424,694,l),
(510,694,l),
(527,694,o),
(540,707,o),
(540,724,c),
(540,741,o),
(527,754,o),
(510,754,c)
);
},
{
attr = {
identifier = ID0x7fadab0a7ef0;
};
closed = 1;
nodes = (
(778,395,l),
(791,399,o),
(799,410,o),
(799,424,c),
(799,444,o),
(780,459,o),
(760,453,c),
(166,288,l),
(153,284,o),
(145,273,o),
(145,259,c),
(145,239,o),
(164,224,o),
(184,230,c)
);
},
{
attr = {
identifier = ID0x7fadab051540;
};
closed = 1;
nodes = (
(541,60,l),
(542,694,l),
(793,694,l),
(810,694,o),
(823,707,o),
(823,724,c),
(823,741,o),
(810,754,o),
(793,754,c),
(478,754,l),
(475,0,l),
(802,0,l),
(819,0,o),
(832,13,o),
(832,30,c),
(832,47,o),
(819,60,o),
(802,60,c)
);
}
);
};
layerId = "F3447581-435E-44E2-ABAC-414C89955411";
shapes = (
{
attr = {
identifier = ID0x7fadab0a7ef0;
};
closed = 1;
nodes = (
(104,-5,o),
(117,5,o),
(121,17,cs),
(374,719,l),
(338,715,l),
(510,715,l),
(478,740,l),
(478,0,l),
(802,0,ls),
(819,0,o),
(832,13,o),
(832,30,cs),
(832,47,o),
(819,60,o),
(802,60,cs),
(542,60,l),
(542,721,l),
(515,715,l),
(793,715,ls),
(810,715,o),
(823,728,o),
(823,745,cs),
(823,762,o),
(810,775,o),
(793,775,cs),
(292,775,l),
(328,779,l),
(59,37,ls),
(53,19,o),
(66,-5,o),
(90,-5,cs)
);
},
{
attr = {
identifier = ID0x7fadab0a7ef0;
};
closed = 1;
nodes = (
(778,395,ls),
(791,399,o),
(799,410,o),
(799,424,cs),
(799,444,o),
(780,459,o),
(760,453,cs),
(166,288,l),
(184,230,l)
);
}
);
width = 888;
},
{
anchors = (
{
name = bottom;
pos = (264,0);
},
{
name = ogonek;
pos = (522,10);
},
{
name = top;
pos = (524,735);
},
{
name = topleft;
pos = (555,735);
}
);
background = {
shapes = (
{
attr = {
identifier = ID0x7fadab0a7ef0;
};
closed = 1;
nodes = (
(292,775,l),
(328,779,l),
(59,37,ls),
(53,19,o),
(66,-5,o),
(90,-5,cs),
(104,-5,o),
(117,5,o),
(121,17,cs),
(374,719,l),
(338,715,l),
(510,715,l),
(478,740,l),
(475,0,l),
(802,0,ls),
(819,0,o),
(832,13,o),
(832,30,cs),
(832,47,o),
(819,60,o),
(802,60,cs),
(541,60,l),
(542,721,l),
(515,715,l),
(793,715,ls),
(810,715,o),
(823,728,o),
(823,745,cs),
(823,762,o),
(810,775,o),
(793,775,cs)
);
}
);
};
layerId = m004;
shapes = (
{
alignment = -1;
ref = _GuideLine;
scale = (1.78,1);
}
);
width = 888;
},
{
anchors = (
{
name = bottom;
pos = (264,0);
},
{
name = ogonek;
pos = (522,10);
},
{
name = top;
pos = (524,735);
},
{
name = topleft;
pos = (555,735);
}
);
layerId = m005;
shapes = (
{
attr = {
identifier = ID0x7fadab0a7ef0;
};
closed = 1;
nodes = (
(104,-5,o),
(117,5,o),
(121,17,cs),
(374,719,l),
(338,715,l),
(510,715,l),
(478,740,l),
(478,0,l),
(802,0,ls),
(819,0,o),
(832,13,o),
(832,30,cs),
(832,47,o),
(819,60,o),
(802,60,cs),
(542,60,l),
(542,721,l),
(515,715,l),
(793,715,ls),
(810,715,o),
(823,728,o),
(823,745,cs),
(823,762,o),
(810,775,o),
(793,775,cs),
(292,775,l),
(328,779,l),
(59,37,ls),
(53,19,o),
(66,-5,o),
(90,-5,cs)
);
},
{
alignment = -1;
ref = _GuideLine;
scale = (1.78,1);
},
{
attr = {
identifier = ID0x7fadab0a7ef0;
};
closed = 1;
nodes = (
(778,395,ls),
(791,399,o),
(799,410,o),
(799,424,cs),
(799,444,o),
(780,459,o),
(760,453,cs),
(166,288,l),
(184,230,l)
);
}
);
width = 888;
},
{
anchors = (
{
name = bottom;
pos = (264,0);
},
{
name = ogonek;
pos = (522,10);
},
{
name = top;
pos = (524,735);
},
{
name = topleft;
pos = (555,735);
}
);
associatedMasterId = "6F9C6BB4-2DCF-443B-A55D-9CE049090094";
background = {
shapes = (
{
attr = {
identifier = ID0x7fadab0a7ef0;
};
closed = 1;
nodes = (
(424,754,l),
(292,754,l),
(328,779,l),
(59,37,l),
(53,19,o),
(66,-5,o),
(90,-5,c),
(104,-5,o),
(117,5,o),
(121,17,c),
(374,719,l),
(338,694,l),
(424,694,l),
(510,694,l),
(527,694,o),
(540,707,o),
(540,724,c),
(540,741,o),
(527,754,o),
(510,754,c)
);
},
{
attr = {
identifier = ID0x7fadab0a7ef0;
};
closed = 1;
nodes = (
(778,395,l),
(791,399,o),
(799,410,o),
(799,424,c),
(799,444,o),
(780,459,o),
(760,453,c),
(166,288,l),
(184,230,l)
);
},
{
attr = {
identifier = ID0x7fadab051540;
};
closed = 1;
nodes = (
(541,60,l),
(542,694,l),
(793,694,l),
(810,694,o),
(823,707,o),
(823,724,c),
(823,741,o),
(810,754,o),
(793,754,c),
(478,754,l),
(475,0,l),
(802,0,l),
(819,0,o),
(832,13,o),
(832,30,c),
(832,47,o),
(819,60,o),
(802,60,c)
);
}
);
};
layerId = "F82EE64C-14B1-43D9-9088-E2D46399CBB3";
name = "12 Dec 25 at 14:58";
shapes = (
{
attr = {
identifier = ID0x7fadab0a7ef0;
};
closed = 1;
nodes = (
(104,-5,o),
(117,5,o),
(121,17,cs),
(374,719,l),
(338,715,l),
(510,715,l),
(478,740,l),
(475,0,l),
(802,0,ls),
(819,0,o),
(832,13,o),
(832,30,cs),
(832,47,o),
(819,60,o),
(802,60,cs),
(541,60,l),
(542,721,l),
(515,715,l),
(793,715,ls),
(810,715,o),
(823,728,o),
(823,745,cs),
(823,762,o),
(810,775,o),
(793,775,cs),
(292,775,l),
(328,779,l),
(59,37,ls),
(53,19,o),
(66,-5,o),
(90,-5,cs)
);
},
{
attr = {
identifier = ID0x7fadab0a7ef0;
};
closed = 1;
nodes = (
(778,395,ls),
(791,399,o),
(799,410,o),
(799,424,cs),
(799,444,o),
(780,459,o),
(760,453,cs),
(166,288,l),
(184,230,l)
);
}
);
width = 888;
},
{
anchors = (
{
name = bottom;
pos = (264,0);
},
{
name = ogonek;
pos = (522,10);
},
{
name = top;
pos = (524,735);
},
{
name = topleft;
pos = (555,735);
}
);
associatedMasterId = m002;
background = {
shapes = (
{
attr = {
identifier = ID0x7fadab0a7ef0;
};
closed = 1;
nodes = (
(424,754,l),
(319,754,l),
(59,37,l),
(53,19,o),
(66,-5,o),
(90,-5,c),
(104,-5,o),
(117,5,o),
(121,17,c),
(365,694,l),
(424,694,l),
(510,694,l),
(527,694,o),
(540,707,o),
(540,724,c),
(540,741,o),
(527,754,o),
(510,754,c)
);
},
{
attr = {
identifier = ID0x7fadab0a7ef0;
};
closed = 1;
nodes = (
(778,395,l),
(791,399,o),
(799,410,o),
(799,424,c),
(799,444,o),
(780,459,o),
(760,453,c),
(166,288,l),
(153,284,o),
(145,273,o),
(145,259,c),
(145,239,o),
(164,224,o),
(184,230,c)
);
},
{
attr = {
identifier = ID0x7fadab051540;
};
closed = 1;
nodes = (
(541,60,l),
(542,694,l),
(793,694,l),
(810,694,o),
(823,707,o),
(823,724,c),
(823,741,o),
(810,754,o),
(793,754,c),
(478,754,l),
(475,0,l),
(802,0,l),
(819,0,o),
(832,13,o),
(832,30,c),
(832,47,o),
(819,60,o),
(802,60,c)
);
}
);
};
layerId = "09D30436-0A0B-4AA9-AA07-FEE2FECFBF56";
name = "12 Dec 25 at 14:58";
shapes = (
{
attr = {
identifier = ID0x7fadab0a7ef0;
};
closed = 1;
nodes = (
(104,-5,o),
(117,5,o),
(121,17,cs),
(374,719,l),
(338,715,l),
(510,715,l),
(478,740,l),
(475,0,l),
(802,0,ls),
(819,0,o),
(832,13,o),
(832,30,cs),
(832,47,o),
(819,60,o),
(802,60,cs),
(541,60,l),
(542,721,l),
(515,715,l),
(793,715,ls),
(810,715,o),
(823,728,o),
(823,745,cs),
(823,762,o),
(810,775,o),
(793,775,cs),
(292,775,l),
(328,779,l),
(59,37,ls),
(53,19,o),
(66,-5,o),
(90,-5,cs)
);
},
{
alignment = -1;
ref = _GuideLine;
scale = (1.78,1);
},
{
attr = {
identifier = ID0x7fadab0a7ef0;
};
closed = 1;
nodes = (
(778,395,ls),
(791,399,o),
(799,410,o),
(799,424,cs),
(799,444,o),
(780,459,o),
(760,453,cs),
(166,288,l),
(184,230,l)
);
}
);
width = 888;
},
{
anchors = (
{
name = bottom;
pos = (264,0);
},
{
name = ogonek;
pos = (522,10);
},
{
name = top;
pos = (524,735);
},
{
name = topleft;
pos = (555,735);
}
);
associatedMasterId = m002;
background = {
shapes = (
{
attr = {
identifier = ID0x7fadab0a7ef0;
};
closed = 1;
nodes = (
(424,754,l),
(319,754,l),
(59,37,l),
(53,19,o),
(66,-5,o),
(90,-5,c),
(104,-5,o),
(117,5,o),
(121,17,c),
(365,694,l),
(424,694,l),
(510,694,l),
(527,694,o),
(540,707,o),
(540,724,c),
(540,741,o),
(527,754,o),
(510,754,c)
);
},
{
attr = {
identifier = ID0x7fadab0a7ef0;
};
closed = 1;
nodes = (
(778,395,l),
(791,399,o),
(799,410,o),
(799,424,c),
(799,444,o),
(780,459,o),
(760,453,c),
(166,288,l),
(153,284,o),
(145,273,o),
(145,259,c),
(145,239,o),
(164,224,o),
(184,230,c)
);
},
{
attr = {
identifier = ID0x7fadab051540;
};
closed = 1;
nodes = (
(541,60,l),
(542,694,l),
(793,694,l),
(810,694,o),
(823,707,o),
(823,724,c),
(823,741,o),
(810,754,o),
(793,754,c),
(478,754,l),
(475,0,l),
(802,0,l),
(819,0,o),
(832,13,o),
(832,30,c),
(832,47,o),
(819,60,o),
(802,60,c)
);
}
);
};
layerId = "35906988-D8CC-4E27-94B0-C31056E42554";
name = "12 Dec 25 at 14:58";
shapes = (
{
attr = {
identifier = ID0x7fadab0a7ef0;
};
closed = 1;
nodes = (
(104,-5,o),
(117,5,o),
(121,17,cs),
(374,719,l),
(338,715,l),
(510,715,l),
(478,740,l),
(475,0,l),
(802,0,ls),
(819,0,o),
(832,13,o),
(832,30,cs),
(832,47,o),
(819,60,o),
(802,60,cs),
(541,60,l),
(542,721,l),
(515,715,l),
(793,715,ls),
(810,715,o),
(823,728,o),
(823,745,cs),
(823,762,o),
(810,775,o),
(793,775,cs),
(292,775,l),
(328,779,l),
(59,37,ls),
(53,19,o),
(66,-5,o),
(90,-5,cs)
);
},
{
alignment = -1;
ref = _GuideLine;
scale = (1.78,1);
},
{
attr = {
identifier = ID0x7fadab0a7ef0;
};
closed = 1;
nodes = (
(778,395,ls),
(791,399,o),
(799,410,o),
(799,424,cs),
(799,444,o),
(780,459,o),
(760,453,cs),
(166,288,l),
(184,230,l)
);
}
);
width = 888;
},
{
anchors = (
{
name = bottom;
pos = (264,0);
},
{
name = ogonek;
pos = (522,10);
},
{
name = top;
pos = (524,735);
},
{
name = topleft;
pos = (555,735);
}
);
associatedMasterId = "F3447581-435E-44E2-ABAC-414C89955411";
background = {
shapes = (
{
attr = {
identifier = ID0x7fadab0a7ef0;
};
closed = 1;
nodes = (
(424,754,l),
(319,754,l),
(59,37,l),
(53,19,o),
(66,-5,o),
(90,-5,c),
(104,-5,o),
(117,5,o),
(121,17,c),
(365,694,l),
(424,694,l),
(510,694,l),
(527,694,o),
(540,707,o),
(540,724,c),
(540,741,o),
(527,754,o),
(510,754,c)
);
},
{
attr = {
identifier = ID0x7fadab0a7ef0;
};
closed = 1;
nodes = (
(778,395,l),
(791,399,o),
(799,410,o),
(799,424,c),
(799,444,o),
(780,459,o),
(760,453,c),
(166,288,l),
(153,284,o),
(145,273,o),
(145,259,c),
(145,239,o),
(164,224,o),
(184,230,c)
);
},
{
attr = {
identifier = ID0x7fadab051540;
};
closed = 1;
nodes = (
(541,60,l),
(542,694,l),
(793,694,l),
(810,694,o),
(823,707,o),
(823,724,c),
(823,741,o),
(810,754,o),
(793,754,c),
(478,754,l),
(475,0,l),
(802,0,l),
(819,0,o),
(832,13,o),
(832,30,c),
(832,47,o),
(819,60,o),
(802,60,c)
);
}
);
};
layerId = "BE9015CE-6BF7-4818-8FEB-25C48CC6E1A8";
name = "12 Dec 25 at 14:58";
shapes = (
{
attr = {
identifier = ID0x7fadab0a7ef0;
};
closed = 1;
nodes = (
(104,-5,o),
(117,5,o),
(121,17,cs),
(374,719,l),
(338,715,l),
(510,715,l),
(478,740,l),
(475,0,l),
(802,0,ls),
(819,0,o),
(832,13,o),
(832,30,cs),
(832,47,o),
(819,60,o),
(802,60,cs),
(541,60,l),
(542,721,l),
(515,715,l),
(793,715,ls),
(810,715,o),
(823,728,o),
(823,745,cs),
(823,762,o),
(810,775,o),
(793,775,cs),
(292,775,l),
(328,779,l),
(59,37,ls),
(53,19,o),
(66,-5,o),
(90,-5,cs)
);
},
{
attr = {
identifier = ID0x7fadab0a7ef0;
};
closed = 1;
nodes = (
(778,395,ls),
(791,399,o),
(799,410,o),
(799,424,cs),
(799,444,o),
(780,459,o),
(760,453,cs),
(166,288,l),
(184,230,l)
);
}
);
width = 888;
},
{
anchors = (
{
name = bottom;
pos = (264,0);
},
{
name = ogonek;
pos = (522,10);
},
{
name = top;
pos = (524,735);
},
{
name = topleft;
pos = (555,735);
}
);
associatedMasterId = m005;
layerId = "702B6011-797A-4C01-9937-C857989E0646";
name = "12 Dec 25 at 14:58";
shapes = (
{
attr = {
identifier = ID0x7fadab0a7ef0;
};
closed = 1;
nodes = (
(104,-5,o),
(117,5,o),
(121,17,cs),
(374,719,l),
(338,715,l),
(510,715,l),
(478,740,l),
(475,0,l),
(802,0,ls),
(819,0,o),
(832,13,o),
(832,30,cs),
(832,47,o),
(819,60,o),
(802,60,cs),
(541,60,l),
(542,721,l),
(515,715,l),
(793,715,ls),
(810,715,o),
(823,728,o),
(823,745,cs),
(823,762,o),
(810,775,o),
(793,775,cs),
(292,775,l),
(328,779,l),
(59,37,ls),
(53,19,o),
(66,-5,o),
(90,-5,cs)
);
},
{
alignment = -1;
ref = _GuideLine;
scale = (1.78,1);
},
{
attr = {
identifier = ID0x7fadab0a7ef0;
};
closed = 1;
nodes = (
(778,395,ls),
(791,399,o),
(799,410,o),
(799,424,cs),
(799,444,o),
(780,459,o),
(760,453,cs),
(166,288,l),
(184,230,l)
);
}
);
width = 888;
},
{
anchors = (
{
name = bottom;
pos = (264,0);
},
{
name = ogonek;
pos = (522,10);
},
{
name = top;
pos = (524,735);
},
{
name = topleft;
pos = (555,735);
}
);
associatedMasterId = m004;
background = {
shapes = (
{
attr = {
identifier = ID0x7fadab0a7ef0;
};
closed = 1;
nodes = (
(292,775,l),
(328,779,l),
(59,37,ls),
(53,19,o),
(66,-5,o),
(90,-5,cs),
(104,-5,o),
(117,5,o),
(121,17,cs),
(374,719,l),
(338,715,l),
(510,715,l),
(478,740,l),
(475,0,l),
(802,0,ls),
(819,0,o),
(832,13,o),
(832,30,cs),
(832,47,o),
(819,60,o),
(802,60,cs),
(541,60,l),
(542,721,l),
(515,715,l),
(793,715,ls),
(810,715,o),
(823,728,o),
(823,745,cs),
(823,762,o),
(810,775,o),
(793,775,cs)
);
}
);
};
layerId = "5D5B5CDA-213E-48A9-A43C-5C0414C785E9";
name = "12 Dec 25 at 14:58";
shapes = (
{
alignment = -1;
ref = _GuideLine;
scale = (1.78,1);
}
);
width = 888;
}
);
unicode = 198;
},
{
color = 9;
glyphname = B;
kernLeft = H;
kernRight = B;
lastChange = "2025-12-04 18:29:11 +0000";
layers = (
{
background = {
shapes = (
{
attr = {
lineCapEnd = 1;
lineCapStart = 1;
strokeHeight = 60;
strokeWidth = 65;
};
closed = 0;
nodes = (
(164,379,l),
(399,379,o),
(498,369,o),
(498,231,cs),
(498,54,o),
(351,2,o),
(190,2,cs),
(150,2,l),
(164,731,l),
(329,731,l),
(381,731,o),
(477,727,o),
(477,596,cs),
(477,433,o),
(344,378,o),
(164,378,c)
);
}
);
};
layerId = "6F9C6BB4-2DCF-443B-A55D-9CE049090094";
shapes = (
{
closed = 1;
nodes = (
(90,0,l),
(190,0,ls),
(361,0,o),
(531,58,o),
(531,255,cs),
(531,418,o),
(403,428,o),
(164,428,c),
(164,370,l),
(393,370,o),
(466,363,o),
(466,255,cs),
(466,104,o),
(341,60,o),
(190,60,cs),
(156,60,l),
(182,33,l),
(197,742,l),
(169,715,l),
(329,715,ls),
(380,715,o),
(445,712,o),
(445,614,cs),
(445,476,o),
(333,429,o),
(164,429,c),
(164,371,l),
(355,371,o),
(510,432,o),
(510,614,cs),
(510,769,o),
(382,775,o),
(329,775,cs),
(105,775,l),
(133,802,l),
(116,-27,l)
);
}
);
width = 627;
},
{
background = {
shapes = (
{
closed = 1;
nodes = (
(355,369,o),
(510,431,o),
(510,613,c),
(510,768,o),
(382,774,o),
(329,774,c),
(132,774,l),
(117,1,l),
(190,1,l),
(361,1,o),
(531,59,o),
(531,256,c),
(531,419,o),
(403,430,o),
(164,430,c),
(147,430,o),
(134,417,o),
(134,400,c),
(134,383,o),
(147,370,o),
(164,370,c),
(393,370,o),
(466,364,o),
(466,256,c),
(466,105,o),
(341,61,o),
(190,61,c),
(183,61,l),
(196,714,l),
(329,714,l),
(380,714,o),
(445,711,o),
(445,613,c),
(445,475,o),
(333,429,o),
(164,429,c),
(147,429,o),
(134,416,o),
(134,399,c),
(134,382,o),
(147,369,o),
(164,369,c)
);
}
);
};
layerId = m002;
shapes = (
{
closed = 1;
nodes = (
(90,0,l),
(190,0,ls),
(361,0,o),
(531,58,o),
(531,255,cs),
(531,418,o),
(403,428,o),
(164,428,c),
(164,370,l),
(393,370,o),
(466,363,o),
(466,255,cs),
(466,104,o),
(341,60,o),
(190,60,cs),
(156,60,l),
(182,33,l),
(197,742,l),
(169,715,l),
(329,715,ls),
(380,715,o),
(445,712,o),
(445,614,cs),
(445,476,o),
(333,429,o),
(164,429,c),
(164,371,l),
(355,371,o),
(510,432,o),
(510,614,cs),
(510,769,o),
(382,775,o),
(329,775,cs),
(105,775,l),
(133,802,l),
(116,-27,l)
);
},
{
alignment = -1;
ref = _GuideLine;
scale = (1.26,1);
}
);
width = 627;
},
{
background = {
shapes = (
{
closed = 1;
nodes = (
(355,369,o),
(510,431,o),
(510,613,c),
(510,768,o),
(382,774,o),
(329,774,c),
(132,774,l),
(117,1,l),
(190,1,l),
(361,1,o),
(531,59,o),
(531,256,c),
(531,419,o),
(403,430,o),
(164,430,c),
(147,430,o),
(134,417,o),
(134,400,c),
(134,383,o),
(147,370,o),
(164,370,c),
(393,370,o),
(466,364,o),
(466,256,c),
(466,105,o),
(341,61,o),
(190,61,c),
(183,61,l),
(196,714,l),
(329,714,l),
(380,714,o),
(445,711,o),
(445,613,c),
(445,475,o),
(333,429,o),
(164,429,c),
(147,429,o),
(134,416,o),
(134,399,c),
(134,382,o),
(147,369,o),
(164,369,c)
);
}
);
};
layerId = "F3447581-435E-44E2-ABAC-414C89955411";
shapes = (
{
closed = 1;
nodes = (
(90,0,l),
(190,0,ls),
(361,0,o),
(531,58,o),
(531,255,cs),
(531,418,o),
(403,428,o),
(164,428,c),
(164,370,l),
(393,370,o),
(466,363,o),
(466,255,cs),
(466,104,o),
(341,60,o),
(190,60,cs),
(156,60,l),
(182,33,l),
(197,742,l),
(169,715,l),
(329,715,ls),
(380,715,o),
(445,712,o),
(445,614,cs),
(445,476,o),
(333,429,o),
(164,429,c),
(164,371,l),
(355,371,o),
(510,432,o),
(510,614,cs),
(510,769,o),
(382,775,o),
(329,775,cs),
(105,775,l),
(133,802,l),
(116,-27,l)
);
}
);
width = 627;
},
{
background = {
shapes = (
{
attr = {
lineCapEnd = 1;
lineCapStart = 1;
strokeHeight = 60;
strokeWidth = 65;
};
closed = 0;
nodes = (
(164,379,l),
(399,379,o),
(498,369,o),
(498,231,cs),
(498,54,o),
(351,2,o),
(190,2,cs),
(150,2,l),
(164,731,l),
(329,731,l),
(381,731,o),
(477,727,o),
(477,596,cs),
(477,433,o),
(344,378,o),
(164,378,c)
);
},
{
closed = 1;
nodes = (
(355,371,o),
(510,432,o),
(510,614,cs),
(510,769,o),
(382,775,o),
(329,775,cs),
(105,775,l),
(133,802,l),
(116,-27,l),
(90,0,l),
(190,0,ls),
(361,0,o),
(531,58,o),
(531,255,cs),
(531,418,o),
(403,428,o),
(164,428,c),
(164,370,l),
(393,370,o),
(466,363,o),
(466,255,cs),
(466,104,o),
(341,60,o),
(190,60,cs),
(156,60,l),
(182,33,l),
(197,742,l),
(169,715,l),
(329,715,ls),
(380,715,o),
(445,712,o),
(445,614,cs),
(445,476,o),
(333,429,o),
(164,429,c),
(164,371,l)
);
}
);
};
layerId = m004;
shapes = (
{
alignment = -1;
ref = _GuideLine;
scale = (1.26,1);
}
);
width = 627;
},
{
background = {
shapes = (
{
closed = 1;
nodes = (
(355,369,o),
(510,431,o),
(510,613,c),
(510,768,o),
(382,774,o),
(329,774,c),
(132,774,l),
(117,1,l),
(190,1,l),
(361,1,o),
(531,59,o),
(531,256,c),
(531,419,o),
(403,430,o),
(164,430,c),
(147,430,o),
(134,417,o),
(134,400,c),
(134,383,o),
(147,370,o),
(164,370,c),
(393,370,o),
(466,364,o),
(466,256,c),
(466,105,o),
(341,61,o),
(190,61,c),
(183,61,l),
(196,714,l),
(329,714,l),
(380,714,o),
(445,711,o),
(445,613,c),
(445,475,o),
(333,429,o),
(164,429,c),
(147,429,o),
(134,416,o),
(134,399,c),
(134,382,o),
(147,369,o),
(164,369,c)
);
}
);
};
layerId = m005;
shapes = (
{
closed = 1;
nodes = (
(90,0,l),
(190,0,ls),
(361,0,o),
(531,58,o),
(531,255,cs),
(531,418,o),
(403,428,o),
(164,428,c),
(164,370,l),
(393,370,o),
(466,363,o),
(466,255,cs),
(466,104,o),
(341,60,o),
(190,60,cs),
(156,60,l),
(182,33,l),
(197,742,l),
(169,715,l),
(329,715,ls),
(380,715,o),
(445,712,o),
(445,614,cs),
(445,476,o),
(333,429,o),
(164,429,c),
(164,371,l),
(355,371,o),
(510,432,o),
(510,614,cs),
(510,769,o),
(382,775,o),
(329,775,cs),
(105,775,l),
(133,802,l),
(116,-27,l)
);
},
{
alignment = -1;
ref = _GuideLine;
scale = (1.26,1);
}
);
width = 627;
}
);
unicode = 66;
},
{
color = 9;
glyphname = C;
kernLeft = O;
kernRight = C;
lastChange = "2025-12-04 18:29:11 +0000";
layers = (
{
anchors = (
{
name = bottom;
pos = (312,11);
},
{
name = top;
pos = (312,735);
}
);
background = {
shapes = (
{
attr = {
lineCapEnd = 1;
lineCapStart = 1;
strokeHeight = 60;
strokeWidth = 65;
};
closed = 0;
nodes = (
(534,709,l),
(473,724,o),
(420,731,o),
(373,731,cs),
(183,731,o),
(104,609,o),
(104,342,cs),
(104,147,o),
(180,0,o),
(324,0,cs),
(386,0,o),
(459,26,o),
(546,85,cs)
);
}
);
};
layerId = "6F9C6BB4-2DCF-443B-A55D-9CE049090094";
shapes = (
{
closed = 1;
nodes = (
(393,-4,o),
(474,25,o),
(564,84,c),
(571,89,o),
(577,99,o),
(577,109,c),
(577,126,o),
(563,140,o),
(546,140,c),
(539,140,o),
(534,138,o),
(528,134,c),
(444,79,o),
(379,56,o),
(324,56,c),
(204,56,o),
(137,185,o),
(137,366,c),
(137,616,o),
(206,720,o),
(373,720,c),
(417,720,o),
(466,713,o),
(527,699,c),
(546,694,o),
(564,709,o),
(564,728,c),
(564,742,o),
(554,754,o),
(541,757,c),
(480,771,o),
(423,780,o),
(373,780,c),
(160,780,o),
(72,642,o),
(72,366,c),
(72,162,o),
(156,-4,o),
(324,-4,c)
);
}
);
width = 634;
},
{
anchors = (
{
name = bottom;
pos = (312,11);
},
{
name = top;
pos = (312,735);
}
);
background = {
shapes = (
{
attr = {
lineCapEnd = 1;
lineCapStart = 1;
strokeHeight = 60;
strokeWidth = 65;
};
closed = 0;
nodes = (
(534,709,l),
(473,724,o),
(420,731,o),
(373,731,cs),
(183,731,o),
(104,609,o),
(104,342,cs),
(104,147,o),
(180,0,o),
(324,0,cs),
(386,0,o),
(459,26,o),
(546,85,cs)
);
}
);
};
layerId = m002;
shapes = (
{
closed = 1;
nodes = (
(393,-4,o),
(474,25,o),
(564,84,c),
(571,89,o),
(577,99,o),
(577,109,c),
(577,126,o),
(563,140,o),
(546,140,c),
(539,140,o),
(534,138,o),
(528,134,c),
(444,79,o),
(379,56,o),
(324,56,c),
(204,56,o),
(137,185,o),
(137,366,c),
(137,616,o),
(206,720,o),
(373,720,c),
(417,720,o),
(466,713,o),
(527,699,c),
(546,694,o),
(564,709,o),
(564,728,c),
(564,742,o),
(554,754,o),
(541,757,c),
(480,771,o),
(423,780,o),
(373,780,c),
(160,780,o),
(72,642,o),
(72,366,c),
(72,162,o),
(156,-4,o),
(324,-4,c)
);
},
{
alignment = -1;
ref = _GuideLine;
scale = (1.27,1);
}
);
width = 634;
},
{
anchors = (
{
name = bottom;
pos = (312,11);
},
{
name = top;
pos = (312,735);
}
);
background = {
shapes = (
{
attr = {
lineCapEnd = 1;
lineCapStart = 1;
strokeHeight = 60;
strokeWidth = 65;
};
closed = 0;
nodes = (
(534,709,l),
(473,724,o),
(420,731,o),
(373,731,cs),
(183,731,o),
(104,609,o),
(104,342,cs),
(104,147,o),
(180,0,o),
(324,0,cs),
(386,0,o),
(459,26,o),
(546,85,cs)
);
}
);
};
layerId = "F3447581-435E-44E2-ABAC-414C89955411";
shapes = (
{
closed = 1;
nodes = (
(393,-4,o),
(474,25,o),
(564,84,c),
(571,89,o),
(577,99,o),
(577,109,c),
(577,126,o),
(563,140,o),
(546,140,c),
(539,140,o),
(534,138,o),
(528,134,c),
(444,79,o),
(379,56,o),
(324,56,c),
(204,56,o),
(137,185,o),
(137,366,c),
(137,616,o),
(206,720,o),
(373,720,c),
(417,720,o),
(466,713,o),
(527,699,c),
(546,694,o),
(564,709,o),
(564,728,c),
(564,742,o),
(554,754,o),
(541,757,c),
(480,771,o),
(423,780,o),
(373,780,c),
(160,780,o),
(72,642,o),
(72,366,c),
(72,162,o),
(156,-4,o),
(324,-4,c)
);
}
);
width = 634;
},
{
anchors = (
{
name = bottom;
pos = (312,11);
},
{
name = top;
pos = (312,735);
}
);
background = {
shapes = (
{
attr = {
lineCapEnd = 1;
lineCapStart = 1;
strokeHeight = 60;
strokeWidth = 65;
};
closed = 0;
nodes = (
(534,709,l),
(473,724,o),
(420,731,o),
(373,731,cs),
(183,731,o),
(104,609,o),
(104,342,cs),
(104,147,o),
(180,0,o),
(324,0,cs),
(386,0,o),
(459,26,o),
(546,85,cs)
);
}
);
};
layerId = m004;
shapes = (
{
alignment = -1;
ref = _GuideLine;
scale = (1.27,1);
}
);
width = 634;
},
{
anchors = (
{
name = bottom;
pos = (312,11);
},
{
name = top;
pos = (312,735);
}
);
background = {
shapes = (
{
attr = {
lineCapEnd = 1;
lineCapStart = 1;
strokeHeight = 60;
strokeWidth = 65;
};
closed = 0;
nodes = (
(534,709,l),
(473,724,o),
(420,731,o),
(373,731,cs),
(183,731,o),
(104,609,o),
(104,342,cs),
(104,147,o),
(180,0,o),
(324,0,cs),
(386,0,o),
(459,26,o),
(546,85,cs)
);
}
);
};
layerId = m005;
shapes = (
{
closed = 1;
nodes = (
(393,-4,o),
(474,25,o),
(564,84,c),
(571,89,o),
(577,99,o),
(577,109,c),
(577,126,o),
(563,140,o),
(546,140,c),
(539,140,o),
(534,138,o),
(528,134,c),
(444,79,o),
(379,56,o),
(324,56,c),
(204,56,o),
(137,185,o),
(137,366,c),
(137,616,o),
(206,720,o),
(373,720,c),
(417,720,o),
(466,713,o),
(527,699,c),
(546,694,o),
(564,709,o),
(564,728,c),
(564,742,o),
(554,754,o),
(541,757,c),
(480,771,o),
(423,780,o),
(373,780,c),
(160,780,o),
(72,642,o),
(72,366,c),
(72,162,o),
(156,-4,o),
(324,-4,c)
);
},
{
alignment = -1;
ref = _GuideLine;
scale = (1.27,1);
}
);
width = 634;
}
);
unicode = 67;
},
{
color = 9;
glyphname = D;
kernLeft = H;
kernRight = O;
lastChange = "2025-12-04 18:29:11 +0000";
layers = (
{
background = {
shapes = (
{
closed = 0;
nodes = (
(91,700,l),
(151,700,o),
(281,700,o),
(330,700,cs),
(379,700,o),
(471,696,o),
(471,571,c)
);
},
{
closed = 0;
nodes = (
(491,220,l),
(491,51,o),
(329,0,o),
(175,0,cs),
(148,0,o),
(145,12,o),
(147,39,cs),
(208,700,l)
);
},
{
closed = 0;
nodes = (
(235,20,l),
(289,7,o),
(336,1,o),
(374,1,cs),
(468,1,o),
(543,141,o),
(577,267,cs),
(626,453,o),
(617,701,o),
(475,701,cs),
(417,701,o),
(353,658,o),
(288,596,c)
);
}
);
};
layerId = "6F9C6BB4-2DCF-443B-A55D-9CE049090094";
shapes = (
{
closed = 1;
nodes = (
(91,0,l),
(166,0,ls),
(469,0,o),
(659,198,o),
(659,476,cs),
(659,634,o),
(556,775,o),
(328,775,cs),
(105,775,l),
(132,802,l),
(118,-27,l)
);
},
{
closed = 1;
nodes = (
(196,742,l),
(169,715,l),
(328,715,ls),
(514,715,o),
(594,608,o),
(594,476,cs),
(594,230,o),
(431,60,o),
(166,60,c),
(184,50,l)
);
}
);
width = 756;
},
{
background = {
shapes = (
{
closed = 1;
nodes = (
(166,1,l),
(469,1,o),
(659,198,o),
(659,475,c),
(659,633,o),
(556,774,o),
(328,774,c),
(132,774,l),
(118,1,l)
);
},
{
closed = 1;
nodes = (
(196,714,l),
(328,714,l),
(514,714,o),
(594,607,o),
(594,475,c),
(594,230,o),
(431,61,o),
(166,61,c),
(184,51,l)
);
}
);
};
layerId = m002;
shapes = (
{
closed = 1;
nodes = (
(91,0,l),
(166,0,ls),
(469,0,o),
(659,198,o),
(659,476,cs),
(659,634,o),
(556,775,o),
(328,775,cs),
(105,775,l),
(132,802,l),
(118,-27,l)
);
},
{
alignment = -1;
ref = _GuideLine;
scale = (1.52,1);
},
{
closed = 1;
nodes = (
(196,742,l),
(169,715,l),
(328,715,ls),
(514,715,o),
(594,608,o),
(594,476,cs),
(594,230,o),
(431,60,o),
(166,60,c),
(184,50,l)
);
}
);
width = 756;
},
{
background = {
shapes = (
{
closed = 1;
nodes = (
(166,1,l),
(469,1,o),
(659,198,o),
(659,475,c),
(659,633,o),
(556,774,o),
(328,774,c),
(132,774,l),
(118,1,l)
);
},
{
closed = 1;
nodes = (
(196,714,l),
(328,714,l),
(514,714,o),
(594,607,o),
(594,475,c),
(594,230,o),
(431,61,o),
(166,61,c),
(184,51,l)
);
}
);
};
layerId = "F3447581-435E-44E2-ABAC-414C89955411";
shapes = (
{
closed = 1;
nodes = (
(91,0,l),
(166,0,ls),
(469,0,o),
(659,198,o),
(659,476,cs),
(659,634,o),
(556,775,o),
(328,775,cs),
(105,775,l),
(132,802,l),
(118,-27,l)
);
},
{
closed = 1;
nodes = (
(196,742,l),
(169,715,l),
(328,715,ls),
(514,715,o),
(594,608,o),
(594,476,cs),
(594,230,o),
(431,60,o),
(166,60,c),
(184,50,l)
);
}
);
width = 756;
},
{
background = {
shapes = (
{
closed = 0;
nodes = (
(91,700,l),
(151,700,o),
(281,700,o),
(330,700,cs),
(379,700,o),
(471,696,o),
(471,571,c)
);
},
{
closed = 0;
nodes = (
(491,220,l),
(491,51,o),
(329,0,o),
(175,0,cs),
(148,0,o),
(145,12,o),
(147,39,cs),
(208,700,l)
);
},
{
closed = 0;
nodes = (
(235,20,l),
(289,7,o),
(336,1,o),
(374,1,cs),
(468,1,o),
(543,141,o),
(577,267,cs),
(626,453,o),
(617,701,o),
(475,701,cs),
(417,701,o),
(353,658,o),
(288,596,c)
);
},
{
closed = 1;
nodes = (
(91,0,l),
(166,0,ls),
(469,0,o),
(659,198,o),
(659,476,cs),
(659,634,o),
(556,775,o),
(328,775,cs),
(105,775,l),
(132,802,l),
(118,-27,l)
);
},
{
closed = 1;
nodes = (
(196,742,l),
(169,715,l),
(328,715,ls),
(514,715,o),
(594,608,o),
(594,476,cs),
(594,230,o),
(431,60,o),
(166,60,c),
(184,50,l)
);
}
);
};
layerId = m004;
shapes = (
{
alignment = -1;
ref = _GuideLine;
scale = (1.52,1);
}
);
width = 756;
},
{
background = {
shapes = (
{
closed = 1;
nodes = (
(166,1,l),
(469,1,o),
(659,198,o),
(659,475,c),
(659,633,o),
(556,774,o),
(328,774,c),
(132,774,l),
(118,1,l)
);
},
{
closed = 1;
nodes = (
(196,714,l),
(328,714,l),
(514,714,o),
(594,607,o),
(594,475,c),
(594,230,o),
(431,61,o),
(166,61,c),
(184,51,l)
);
}
);
};
layerId = m005;
shapes = (
{
closed = 1;
nodes = (
(91,0,l),
(166,0,ls),
(469,0,o),
(659,198,o),
(659,476,cs),
(659,634,o),
(556,775,o),
(328,775,cs),
(105,775,l),
(132,802,l),
(118,-27,l)
);
},
{
alignment = -1;
ref = _GuideLine;
scale = (1.52,1);
},
{
closed = 1;
nodes = (
(196,742,l),
(169,715,l),
(328,715,ls),
(514,715,o),
(594,608,o),
(594,476,cs),
(594,230,o),
(431,60,o),
(166,60,c),
(184,50,l)
);
}
);
width = 756;
}
);
unicode = 68;
},
{
glyphname = Eth;
kernLeft = Eth;
kernRight = O;
lastChange = "2025-12-04 14:42:42 +0000";
layers = (
{
layerId = "6F9C6BB4-2DCF-443B-A55D-9CE049090094";
shapes = (
{
closed = 1;
nodes = (
(419,336,l),
(433,336,o),
(444,347,o),
(444,361,c),
(444,375,o),
(433,386,o),
(419,386,c),
(-11,386,l),
(-25,386,o),
(-36,375,o),
(-36,361,c),
(-36,347,o),
(-25,336,o),
(-11,336,c)
);
},
{
ref = D;
}
);
width = 743;
},
{
layerId = m002;
shapes = (
{
closed = 1;
nodes = (
(419,336,l),
(433,336,o),
(444,347,o),
(444,361,c),
(444,375,o),
(433,386,o),
(419,386,c),
(-11,386,l),
(-25,386,o),
(-36,375,o),
(-36,361,c),
(-36,347,o),
(-25,336,o),
(-11,336,c)
);
},
{
ref = D;
}
);
width = 743;
},
{
layerId = "F3447581-435E-44E2-ABAC-414C89955411";
shapes = (
{
closed = 1;
nodes = (
(419,336,l),
(433,336,o),
(444,347,o),
(444,361,c),
(444,375,o),
(433,386,o),
(419,386,c),
(-11,386,l),
(-25,386,o),
(-36,375,o),
(-36,361,c),
(-36,347,o),
(-25,336,o),
(-11,336,c)
);
},
{
ref = D;
}
);
width = 743;
},
{
layerId = m004;
shapes = (
{
alignment = -1;
ref = D;
}
);
width = 743;
},
{
layerId = m005;
shapes = (
{
closed = 1;
nodes = (
(419,336,l),
(433,336,o),
(444,347,o),
(444,361,c),
(444,375,o),
(433,386,o),
(419,386,c),
(-11,386,l),
(-25,386,o),
(-36,375,o),
(-36,361,c),
(-36,347,o),
(-25,336,o),
(-11,336,c)
);
},
{
ref = D;
}
);
width = 743;
}
);
unicode = 208;
},
{
color = 9;
glyphname = E;
kernLeft = H;
kernRight = E;
lastChange = "2025-12-04 18:29:11 +0000";
layers = (
{
anchors = (
{
name = bottom;
pos = (305,0);
},
{
name = ogonek;
pos = (530,10);
},
{
name = top;
pos = (305,735);
},
{
name = topleft;
pos = (43,720);
}
);
layerId = "6F9C6BB4-2DCF-443B-A55D-9CE049090094";
shapes = (
{
closed = 1;
nodes = (
(90,0,l),
(456,0,ls),
(473,0,o),
(486,13,o),
(486,30,cs),
(486,47,o),
(473,60,o),
(456,60,cs),
(156,60,l),
(182,33,l),
(198,742,l),
(170,715,l),
(459,715,ls),
(476,715,o),
(489,728,o),
(489,745,cs),
(489,762,o),
(476,775,o),
(459,775,cs),
(106,775,l),
(134,802,l),
(116,-27,l)
);
},
{
closed = 1;
nodes = (
(422,354,ls),
(439,354,o),
(452,367,o),
(452,384,cs),
(452,401,o),
(439,414,o),
(422,414,cs),
(157,414,l),
(157,354,l)
);
}
);
width = 606;
},
{
anchors = (
{
name = bottom;
pos = (305,0);
},
{
name = ogonek;
pos = (530,10);
},
{
name = top;
pos = (305,735);
},
{
name = topleft;
pos = (43,720);
}
);
background = {
shapes = (
{
closed = 1;
nodes = (
(133,774,l),
(117,1,l),
(456,1,l),
(473,1,o),
(486,14,o),
(486,31,c),
(486,48,o),
(473,61,o),
(456,61,c),
(183,61,l),
(197,714,l),
(459,714,l),
(476,714,o),
(489,727,o),
(489,744,c),
(489,761,o),
(476,774,o),
(459,774,c)
);
}
);
};
layerId = m002;
shapes = (
{
closed = 1;
nodes = (
(90,0,l),
(456,0,ls),
(473,0,o),
(486,13,o),
(486,30,cs),
(486,47,o),
(473,60,o),
(456,60,cs),
(156,60,l),
(182,33,l),
(198,742,l),
(170,715,l),
(459,715,ls),
(476,715,o),
(489,728,o),
(489,745,cs),
(489,762,o),
(476,775,o),
(459,775,cs),
(106,775,l),
(134,802,l),
(116,-27,l)
);
},
{
alignment = -1;
ref = _GuideLine;
scale = (1.22,1);
},
{
closed = 1;
nodes = (
(422,364,ls),
(439,364,o),
(452,377,o),
(452,394,cs),
(452,411,o),
(439,424,o),
(422,424,cs),
(157,424,l),
(157,364,l)
);
}
);
width = 606;
},
{
anchors = (
{
name = bottom;
pos = (305,0);
},
{
name = ogonek;
pos = (530,10);
},
{
name = top;
pos = (305,735);
},
{
name = topleft;
pos = (43,720);
}
);
background = {
shapes = (
{
closed = 1;
nodes = (
(133,774,l),
(117,1,l),
(456,1,l),
(473,1,o),
(486,14,o),
(486,31,c),
(486,48,o),
(473,61,o),
(456,61,c),
(183,61,l),
(197,714,l),
(459,714,l),
(476,714,o),
(489,727,o),
(489,744,c),
(489,761,o),
(476,774,o),
(459,774,c)
);
},
{
closed = 1;
nodes = (
(157,414,l),
(140,414,o),
(127,401,o),
(127,384,c),
(127,367,o),
(140,354,o),
(157,354,c),
(422,354,l),
(439,354,o),
(452,367,o),
(452,384,c),
(452,401,o),
(439,414,o),
(422,414,c)
);
}
);
};
layerId = "F3447581-435E-44E2-ABAC-414C89955411";
shapes = (
{
closed = 1;
nodes = (
(90,0,l),
(456,0,ls),
(473,0,o),
(486,13,o),
(486,30,cs),
(486,47,o),
(473,60,o),
(456,60,cs),
(156,60,l),
(182,33,l),
(198,742,l),
(170,715,l),
(459,715,ls),
(476,715,o),
(489,728,o),
(489,745,cs),
(489,762,o),
(476,775,o),
(459,775,cs),
(106,775,l),
(134,802,l),
(116,-27,l)
);
},
{
closed = 1;
nodes = (
(422,354,ls),
(439,354,o),
(452,367,o),
(452,384,cs),
(452,401,o),
(439,414,o),
(422,414,cs),
(157,414,l),
(157,354,l)
);
}
);
width = 606;
},
{
anchors = (
{
name = bottom;
pos = (305,0);
},
{
name = ogonek;
pos = (530,10);
},
{
name = top;
pos = (305,735);
},
{
name = topleft;
pos = (43,720);
}
);
layerId = m004;
shapes = (
{
alignment = -1;
ref = _GuideLine;
scale = (1.22,1);
}
);
width = 606;
},
{
anchors = (
{
name = bottom;
pos = (305,0);
},
{
name = ogonek;
pos = (530,10);
},
{
name = top;
pos = (305,735);
},
{
name = topleft;
pos = (43,720);
}
);
background = {
shapes = (
{
closed = 1;
nodes = (
(133,774,l),
(117,1,l),
(456,1,l),
(473,1,o),
(486,14,o),
(486,31,c),
(486,48,o),
(473,61,o),
(456,61,c),
(183,61,l),
(197,714,l),
(459,714,l),
(476,714,o),
(489,727,o),
(489,744,c),
(489,761,o),
(476,774,o),
(459,774,c)
);
},
{
closed = 1;
nodes = (
(157,424,l),
(140,424,o),
(127,411,o),
(127,394,c),
(127,377,o),
(140,364,o),
(157,364,c),
(422,364,l),
(439,364,o),
(452,377,o),
(452,394,c),
(452,411,o),
(439,424,o),
(422,424,c)
);
}
);
};
layerId = m005;
shapes = (
{
closed = 1;
nodes = (
(90,0,l),
(456,0,ls),
(473,0,o),
(486,13,o),
(486,30,cs),
(486,47,o),
(473,60,o),
(456,60,cs),
(156,60,l),
(182,33,l),
(198,742,l),
(170,715,l),
(459,715,ls),
(476,715,o),
(489,728,o),
(489,745,cs),
(489,762,o),
(476,775,o),
(459,775,cs),
(106,775,l),
(134,802,l),
(116,-27,l)
);
},
{
alignment = -1;
ref = _GuideLine;
scale = (1.22,1);
},
{
closed = 1;
nodes = (
(422,364,ls),
(439,364,o),
(452,377,o),
(452,394,cs),
(452,411,o),
(439,424,o),
(422,424,cs),
(157,424,l),
(157,364,l)
);
}
);
width = 606;
}
);
unicode = 69;
},
{
color = 9;
glyphname = F;
kernLeft = H;
kernRight = F;
lastChange = "2025-12-04 18:29:11 +0000";
layers = (
{
layerId = "6F9C6BB4-2DCF-443B-A55D-9CE049090094";
shapes = (
{
closed = 1;
nodes = (
(167,-5,o),
(181,10,o),
(181,27,cs),
(197,742,l),
(169,715,l),
(458,715,ls),
(475,715,o),
(488,728,o),
(488,745,cs),
(488,762,o),
(475,775,o),
(458,775,cs),
(105,775,l),
(133,802,l),
(117,27,ls),
(117,10,o),
(131,-5,o),
(149,-5,cs)
);
},
{
closed = 1;
nodes = (
(421,341,ls),
(438,341,o),
(451,354,o),
(451,371,cs),
(451,388,o),
(438,401,o),
(421,401,cs),
(156,401,l),
(156,341,l)
);
}
);
width = 605;
},
{
background = {
shapes = (
{
closed = 1;
nodes = (
(132,774,l),
(117,27,l),
(117,10,o),
(131,-5,o),
(149,-5,c),
(167,-5,o),
(181,10,o),
(181,27,c),
(196,714,l),
(458,714,l),
(475,714,o),
(488,727,o),
(488,744,c),
(488,761,o),
(475,774,o),
(458,774,c)
);
},
{
closed = 1;
nodes = (
(156,424,l),
(139,424,o),
(126,411,o),
(126,394,c),
(126,377,o),
(139,364,o),
(156,364,c),
(421,364,l),
(438,364,o),
(451,377,o),
(451,394,c),
(451,411,o),
(438,424,o),
(421,424,c)
);
}
);
};
layerId = m002;
shapes = (
{
closed = 1;
nodes = (
(167,-5,o),
(181,10,o),
(181,27,cs),
(197,742,l),
(169,715,l),
(458,715,ls),
(475,715,o),
(488,728,o),
(488,745,cs),
(488,762,o),
(475,775,o),
(458,775,cs),
(105,775,l),
(133,802,l),
(117,27,ls),
(117,10,o),
(131,-5,o),
(149,-5,cs)
);
},
{
alignment = -1;
ref = _GuideLine;
scale = (1.21,1);
},
{
closed = 1;
nodes = (
(421,341,ls),
(438,341,o),
(451,354,o),
(451,371,cs),
(451,388,o),
(438,401,o),
(421,401,cs),
(156,401,l),
(156,341,l)
);
}
);
width = 605;
},
{
background = {
shapes = (
{
closed = 1;
nodes = (
(132,774,l),
(117,27,l),
(117,10,o),
(131,-5,o),
(149,-5,c),
(167,-5,o),
(181,10,o),
(181,27,c),
(196,714,l),
(458,714,l),
(475,714,o),
(488,727,o),
(488,744,c),
(488,761,o),
(475,774,o),
(458,774,c)
);
},
{
closed = 1;
nodes = (
(156,401,l),
(139,401,o),
(126,388,o),
(126,371,c),
(126,354,o),
(139,341,o),
(156,341,c),
(421,341,l),
(438,341,o),
(451,354,o),
(451,371,c),
(451,388,o),
(438,401,o),
(421,401,c)
);
}
);
};
layerId = "F3447581-435E-44E2-ABAC-414C89955411";
shapes = (
{
closed = 1;
nodes = (
(167,-5,o),
(181,10,o),
(181,27,cs),
(197,742,l),
(169,715,l),
(458,715,ls),
(475,715,o),
(488,728,o),
(488,745,cs),
(488,762,o),
(475,775,o),
(458,775,cs),
(105,775,l),
(133,802,l),
(117,27,ls),
(117,10,o),
(131,-5,o),
(149,-5,cs)
);
},
{
closed = 1;
nodes = (
(421,341,ls),
(438,341,o),
(451,354,o),
(451,371,cs),
(451,388,o),
(438,401,o),
(421,401,cs),
(156,401,l),
(156,341,l)
);
}
);
width = 605;
},
{
background = {
shapes = (
{
closed = 1;
nodes = (
(105,775,l),
(133,802,l),
(117,27,ls),
(117,10,o),
(131,-5,o),
(149,-5,cs),
(167,-5,o),
(181,10,o),
(181,27,cs),
(197,742,l),
(169,715,l),
(458,715,ls),
(475,715,o),
(488,728,o),
(488,745,cs),
(488,762,o),
(475,775,o),
(458,775,cs)
);
},
{
closed = 1;
nodes = (
(156,401,l),
(156,341,l),
(421,341,ls),
(438,341,o),
(451,354,o),
(451,371,cs),
(451,388,o),
(438,401,o),
(421,401,cs)
);
}
);
};
layerId = m004;
shapes = (
{
alignment = -1;
ref = _GuideLine;
scale = (1.21,1);
}
);
width = 605;
},
{
background = {
shapes = (
{
closed = 1;
nodes = (
(132,774,l),
(117,27,l),
(117,10,o),
(131,-5,o),
(149,-5,c),
(167,-5,o),
(181,10,o),
(181,27,c),
(196,714,l),
(458,714,l),
(475,714,o),
(488,727,o),
(488,744,c),
(488,761,o),
(475,774,o),
(458,774,c)
);
},
{
closed = 1;
nodes = (
(156,424,l),
(139,424,o),
(126,411,o),
(126,394,c),
(126,377,o),
(139,364,o),
(156,364,c),
(421,364,l),
(438,364,o),
(451,377,o),
(451,394,c),
(451,411,o),
(438,424,o),
(421,424,c)
);
}
);
};
layerId = m005;
shapes = (
{
closed = 1;
nodes = (
(167,-5,o),
(181,10,o),
(181,27,cs),
(197,742,l),
(169,715,l),
(458,715,ls),
(475,715,o),
(488,728,o),
(488,745,cs),
(488,762,o),
(475,775,o),
(458,775,cs),
(105,775,l),
(133,802,l),
(117,27,ls),
(117,10,o),
(131,-5,o),
(149,-5,cs)
);
},
{
alignment = -1;
ref = _GuideLine;
scale = (1.21,1);
},
{
closed = 1;
nodes = (
(421,341,ls),
(438,341,o),
(451,354,o),
(451,371,cs),
(451,388,o),
(438,401,o),
(421,401,cs),
(156,401,l),
(156,341,l)
);
}
);
width = 605;
}
);
unicode = 70;
},
{
color = 9;
glyphname = G;
kernLeft = O;
kernRight = B;
lastChange = "2025-12-04 18:29:11 +0000";
layers = (
{
background = {
shapes = (
{
closed = 0;
nodes = (
(530,361,l),
(379,361,l)
);
},
{
closed = 0;
nodes = (
(514,679,l),
(468,691,o),
(387,700,o),
(352,700,cs),
(184,700,o),
(138,562,o),
(138,326,cs),
(138,80,o),
(230,0,o),
(333,0,cs),
(432,0,o),
(530,154,o),
(530,270,cs)
);
}
);
};
layerId = "6F9C6BB4-2DCF-443B-A55D-9CE049090094";
shapes = (
{
closed = 1;
nodes = (
(520,-4,o),
(634,195,o),
(612,417,c),
(336,417,l),
(319,417,o),
(306,404,o),
(306,387,c),
(306,370,o),
(319,357,o),
(336,357,c),
(550,357,l),
(548,187,o),
(460,56,o),
(355,56,c),
(235,56,o),
(167,182,o),
(167,362,c),
(167,616,o),
(236,720,o),
(404,720,c),
(447,720,o),
(496,713,o),
(558,699,c),
(577,694,o),
(595,709,o),
(595,728,c),
(595,742,o),
(585,754,o),
(572,757,c),
(510,771,o),
(453,780,o),
(404,780,c),
(190,780,o),
(102,642,o),
(102,362,c),
(102,159,o),
(187,-4,o),
(355,-4,c)
);
}
);
width = 709;
},
{
background = {
shapes = (
{
closed = 0;
nodes = (
(530,361,l),
(379,361,l)
);
},
{
closed = 0;
nodes = (
(514,679,l),
(468,691,o),
(387,700,o),
(352,700,cs),
(184,700,o),
(138,562,o),
(138,326,cs),
(138,80,o),
(230,0,o),
(333,0,cs),
(432,0,o),
(530,154,o),
(530,270,cs)
);
}
);
};
layerId = m002;
shapes = (
{
closed = 1;
nodes = (
(520,-4,o),
(634,195,o),
(612,417,c),
(336,417,l),
(319,417,o),
(306,404,o),
(306,387,c),
(306,370,o),
(319,357,o),
(336,357,c),
(550,357,l),
(548,187,o),
(460,56,o),
(355,56,c),
(235,56,o),
(167,182,o),
(167,362,c),
(167,616,o),
(236,720,o),
(404,720,c),
(447,720,o),
(496,713,o),
(558,699,c),
(577,694,o),
(595,709,o),
(595,728,c),
(595,742,o),
(585,754,o),
(572,757,c),
(510,771,o),
(453,780,o),
(404,780,c),
(190,780,o),
(102,642,o),
(102,362,c),
(102,159,o),
(187,-4,o),
(355,-4,c)
);
},
{
alignment = -1;
ref = _GuideLine;
scale = (1.42,1);
}
);
width = 709;
},
{
background = {
shapes = (
{
closed = 0;
nodes = (
(530,361,l),
(379,361,l)
);
},
{
closed = 0;
nodes = (
(514,679,l),
(468,691,o),
(387,700,o),
(352,700,cs),
(184,700,o),
(138,562,o),
(138,326,cs),
(138,80,o),
(230,0,o),
(333,0,cs),
(432,0,o),
(530,154,o),
(530,270,cs)
);
}
);
};
layerId = "F3447581-435E-44E2-ABAC-414C89955411";
shapes = (
{
closed = 1;
nodes = (
(520,-4,o),
(634,195,o),
(612,417,c),
(336,417,l),
(319,417,o),
(306,404,o),
(306,387,c),
(306,370,o),
(319,357,o),
(336,357,c),
(550,357,l),
(548,187,o),
(460,56,o),
(355,56,c),
(235,56,o),
(167,182,o),
(167,362,c),
(167,616,o),
(236,720,o),
(404,720,c),
(447,720,o),
(496,713,o),
(558,699,c),
(577,694,o),
(595,709,o),
(595,728,c),
(595,742,o),
(585,754,o),
(572,757,c),
(510,771,o),
(453,780,o),
(404,780,c),
(190,780,o),
(102,642,o),
(102,362,c),
(102,159,o),
(187,-4,o),
(355,-4,c)
);
}
);
width = 709;
},
{
background = {
shapes = (
{
closed = 0;
nodes = (
(530,361,l),
(379,361,l)
);
},
{
closed = 0;
nodes = (
(514,679,l),
(468,691,o),
(387,700,o),
(352,700,cs),
(184,700,o),
(138,562,o),
(138,326,cs),
(138,80,o),
(230,0,o),
(333,0,cs),
(432,0,o),
(530,154,o),
(530,270,cs)
);
}
);
};
layerId = m004;
shapes = (
{
alignment = -1;
ref = _GuideLine;
scale = (1.42,1);
}
);
width = 709;
},
{
background = {
shapes = (
{
closed = 0;
nodes = (
(530,361,l),
(379,361,l)
);
},
{
closed = 0;
nodes = (
(514,679,l),
(468,691,o),
(387,700,o),
(352,700,cs),
(184,700,o),
(138,562,o),
(138,326,cs),
(138,80,o),
(230,0,o),
(333,0,cs),
(432,0,o),
(530,154,o),
(530,270,cs)
);
}
);
};
layerId = m005;
shapes = (
{
closed = 1;
nodes = (
(520,-4,o),
(634,195,o),
(612,417,c),
(336,417,l),
(319,417,o),
(306,404,o),
(306,387,c),
(306,370,o),
(319,357,o),
(336,357,c),
(550,357,l),
(548,187,o),
(460,56,o),
(355,56,c),
(235,56,o),
(167,182,o),
(167,362,c),
(167,616,o),
(236,720,o),
(404,720,c),
(447,720,o),
(496,713,o),
(558,699,c),
(577,694,o),
(595,709,o),
(595,728,c),
(595,742,o),
(585,754,o),
(572,757,c),
(510,771,o),
(453,780,o),
(404,780,c),
(190,780,o),
(102,642,o),
(102,362,c),
(102,159,o),
(187,-4,o),
(355,-4,c)
);
},
{
alignment = -1;
ref = _GuideLine;
scale = (1.42,1);
}
);
width = 709;
}
);
unicode = 71;
},
{
color = 9;
glyphname = H;
kernLeft = H;
kernRight = H;
lastChange = "2025-12-04 18:29:11 +0000";
layers = (
{
background = {
shapes = (
{
closed = 0;
nodes = (
(62,320,l),
(592,320,l)
);
},
{
closed = 0;
nodes = (
(147,699,l),
(200,699,o),
(190,635,o),
(187,547,cs),
(166,-1,l)
);
},
{
closed = 0;
nodes = (
(806,230,l),
(744,83,o),
(650,0,o),
(615,0,cs),
(582,0,o),
(581,38,o),
(584,119,cs),
(606,700,l)
);
}
);
};
layerId = "6F9C6BB4-2DCF-443B-A55D-9CE049090094";
shapes = (
{
closed = 1;
nodes = (
(585,-5,o),
(600,10,o),
(600,27,c),
(612,747,l),
(612,765,o),
(598,780,o),
(580,780,c),
(562,780,o),
(547,765,o),
(547,748,c),
(535,28,l),
(535,10,o),
(549,-5,o),
(567,-5,c)
);
},
{
closed = 1;
nodes = (
(169,-5,o),
(184,10,o),
(184,27,c),
(196,747,l),
(196,765,o),
(182,780,o),
(164,780,c),
(146,780,o),
(131,765,o),
(131,748,c),
(119,28,l),
(119,10,o),
(133,-5,o),
(151,-5,c)
);
},
{
closed = 1;
nodes = (
(535,363,l),
(552,363,o),
(565,376,o),
(565,393,c),
(565,410,o),
(552,423,o),
(535,423,c),
(194,423,l),
(177,423,o),
(164,410,o),
(164,393,c),
(164,376,o),
(177,363,o),
(194,363,c)
);
}
);
width = 731;
},
{
background = {
shapes = (
{
closed = 0;
nodes = (
(62,320,l),
(592,320,l)
);
},
{
closed = 0;
nodes = (
(147,699,l),
(200,699,o),
(190,635,o),
(187,547,cs),
(166,-1,l)
);
},
{
closed = 0;
nodes = (
(806,230,l),
(744,83,o),
(650,0,o),
(615,0,cs),
(582,0,o),
(581,38,o),
(584,119,cs),
(606,700,l)
);
}
);
};
layerId = m002;
shapes = (
{
closed = 1;
nodes = (
(585,-5,o),
(600,10,o),
(600,27,c),
(612,747,l),
(612,765,o),
(598,780,o),
(580,780,c),
(562,780,o),
(547,765,o),
(547,748,c),
(535,28,l),
(535,10,o),
(549,-5,o),
(567,-5,c)
);
},
{
closed = 1;
nodes = (
(169,-5,o),
(184,10,o),
(184,27,c),
(196,747,l),
(196,765,o),
(182,780,o),
(164,780,c),
(146,780,o),
(131,765,o),
(131,748,c),
(119,28,l),
(119,10,o),
(133,-5,o),
(151,-5,c)
);
},
{
alignment = -1;
ref = _GuideLine;
scale = (1.47,1);
},
{
closed = 1;
nodes = (
(535,363,l),
(552,363,o),
(565,376,o),
(565,393,c),
(565,410,o),
(552,423,o),
(535,423,c),
(194,423,l),
(177,423,o),
(164,410,o),
(164,393,c),
(164,376,o),
(177,363,o),
(194,363,c)
);
}
);
width = 731;
},
{
background = {
shapes = (
{
closed = 0;
nodes = (
(62,320,l),
(592,320,l)
);
},
{
closed = 0;
nodes = (
(147,699,l),
(200,699,o),
(190,635,o),
(187,547,cs),
(166,-1,l)
);
},
{
closed = 0;
nodes = (
(806,230,l),
(744,83,o),
(650,0,o),
(615,0,cs),
(582,0,o),
(581,38,o),
(584,119,cs),
(606,700,l)
);
}
);
};
layerId = "F3447581-435E-44E2-ABAC-414C89955411";
shapes = (
{
closed = 1;
nodes = (
(585,-5,o),
(600,10,o),
(600,27,c),
(612,747,l),
(612,765,o),
(598,780,o),
(580,780,c),
(562,780,o),
(547,765,o),
(547,748,c),
(535,28,l),
(535,10,o),
(549,-5,o),
(567,-5,c)
);
},
{
closed = 1;
nodes = (
(169,-5,o),
(184,10,o),
(184,27,c),
(196,747,l),
(196,765,o),
(182,780,o),
(164,780,c),
(146,780,o),
(131,765,o),
(131,748,c),
(119,28,l),
(119,10,o),
(133,-5,o),
(151,-5,c)
);
},
{
closed = 1;
nodes = (
(535,363,l),
(552,363,o),
(565,376,o),
(565,393,c),
(565,410,o),
(552,423,o),
(535,423,c),
(194,423,l),
(177,423,o),
(164,410,o),
(164,393,c),
(164,376,o),
(177,363,o),
(194,363,c)
);
}
);
width = 731;
},
{
background = {
shapes = (
{
closed = 0;
nodes = (
(62,320,l),
(592,320,l)
);
},
{
closed = 0;
nodes = (
(147,699,l),
(200,699,o),
(190,635,o),
(187,547,cs),
(166,-1,l)
);
},
{
closed = 0;
nodes = (
(806,230,l),
(744,83,o),
(650,0,o),
(615,0,cs),
(582,0,o),
(581,38,o),
(584,119,cs),
(606,700,l)
);
}
);
};
layerId = m004;
shapes = (
{
alignment = -1;
ref = _GuideLine;
scale = (1.47,1);
}
);
width = 731;
},
{
background = {
shapes = (
{
closed = 0;
nodes = (
(62,320,l),
(592,320,l)
);
},
{
closed = 0;
nodes = (
(147,699,l),
(200,699,o),
(190,635,o),
(187,547,cs),
(166,-1,l)
);
},
{
closed = 0;
nodes = (
(806,230,l),
(744,83,o),
(650,0,o),
(615,0,cs),
(582,0,o),
(581,38,o),
(584,119,cs),
(606,700,l)
);
}
);
};
layerId = m005;
shapes = (
{
closed = 1;
nodes = (
(585,-5,o),
(600,10,o),
(600,27,c),
(612,747,l),
(612,765,o),
(598,780,o),
(580,780,c),
(562,780,o),
(547,765,o),
(547,748,c),
(535,28,l),
(535,10,o),
(549,-5,o),
(567,-5,c)
);
},
{
closed = 1;
nodes = (
(169,-5,o),
(184,10,o),
(184,27,c),
(196,747,l),
(196,765,o),
(182,780,o),
(164,780,c),
(146,780,o),
(131,765,o),
(131,748,c),
(119,28,l),
(119,10,o),
(133,-5,o),
(151,-5,c)
);
},
{
alignment = -1;
ref = _GuideLine;
scale = (1.47,1);
},
{
closed = 1;
nodes = (
(535,363,l),
(552,363,o),
(565,376,o),
(565,393,c),
(565,410,o),
(552,423,o),
(535,423,c),
(194,423,l),
(177,423,o),
(164,410,o),
(164,393,c),
(164,376,o),
(177,363,o),
(194,363,c)
);
}
);
width = 731;
}
);
unicode = 72;
},
{
color = 9;
glyphname = I;
kernLeft = I;
kernRight = I;
lastChange = "2025-12-04 18:29:11 +0000";
layers = (
{
anchors = (
{
name = bottom;
pos = (256,0);
},
{
name = ogonek;
pos = (456,10);
},
{
name = top;
pos = (260,735);
},
{
name = topleft;
pos = (35,720);
}
);
background = {
shapes = (
{
closed = 0;
nodes = (
(157,170,l),
(132,69,o),
(171,0,o),
(253,0,cs),
(358,0,o),
(449,114,o),
(454,251,cs),
(470,700,l),
(202,700,l)
);
}
);
};
layerId = "6F9C6BB4-2DCF-443B-A55D-9CE049090094";
shapes = (
{
closed = 1;
nodes = (
(288,41,l),
(301,733,l),
(237,733,l),
(224,41,l)
);
},
{
closed = 1;
nodes = (
(365,0,ls),
(382,0,o),
(395,13,o),
(395,30,cs),
(395,47,o),
(382,60,o),
(365,60,cs),
(147,60,ls),
(130,60,o),
(117,47,o),
(117,30,cs),
(117,13,o),
(130,0,o),
(147,0,cs)
);
},
{
closed = 1;
nodes = (
(372,715,ls),
(389,715,o),
(402,728,o),
(402,745,cs),
(402,762,o),
(389,775,o),
(372,775,cs),
(164,775,ls),
(147,775,o),
(134,762,o),
(134,745,cs),
(134,728,o),
(147,715,o),
(164,715,cs)
);
}
);
width = 519;
},
{
anchors = (
{
name = bottom;
pos = (256,0);
},
{
name = ogonek;
pos = (456,10);
},
{
name = top;
pos = (260,735);
},
{
name = topleft;
pos = (35,720);
}
);
background = {
shapes = (
{
closed = 1;
nodes = (
(301,733,l),
(301,750,o),
(287,765,o),
(269,765,c),
(251,765,o),
(237,750,o),
(237,733,c),
(224,41,l),
(224,24,o),
(238,9,o),
(256,9,c),
(274,9,o),
(288,24,o),
(288,41,c)
);
},
{
closed = 1;
nodes = (
(164,774,l),
(147,774,o),
(134,761,o),
(134,744,c),
(134,727,o),
(147,714,o),
(164,714,c),
(372,714,l),
(389,714,o),
(402,727,o),
(402,744,c),
(402,761,o),
(389,774,o),
(372,774,c)
);
},
{
closed = 1;
nodes = (
(147,61,l),
(130,61,o),
(117,48,o),
(117,31,c),
(117,14,o),
(130,1,o),
(147,1,c),
(365,1,l),
(382,1,o),
(395,14,o),
(395,31,c),
(395,48,o),
(382,61,o),
(365,61,c)
);
}
);
};
layerId = m002;
shapes = (
{
closed = 1;
nodes = (
(288,41,l),
(301,733,l),
(237,733,l),
(224,41,l)
);
},
{
alignment = -1;
ref = _GuideLine;
scale = (1.04,1);
},
{
closed = 1;
nodes = (
(365,0,ls),
(382,0,o),
(395,13,o),
(395,30,cs),
(395,47,o),
(382,60,o),
(365,60,cs),
(147,60,ls),
(130,60,o),
(117,47,o),
(117,30,cs),
(117,13,o),
(130,0,o),
(147,0,cs)
);
},
{
closed = 1;
nodes = (
(372,715,ls),
(389,715,o),
(402,728,o),
(402,745,cs),
(402,762,o),
(389,775,o),
(372,775,cs),
(164,775,ls),
(147,775,o),
(134,762,o),
(134,745,cs),
(134,728,o),
(147,715,o),
(164,715,cs)
);
}
);
width = 519;
},
{
anchors = (
{
name = bottom;
pos = (256,0);
},
{
name = ogonek;
pos = (456,10);
},
{
name = top;
pos = (260,735);
},
{
name = topleft;
pos = (35,720);
}
);
background = {
shapes = (
{
closed = 1;
nodes = (
(301,733,l),
(301,750,o),
(287,765,o),
(269,765,c),
(251,765,o),
(237,750,o),
(237,733,c),
(224,41,l),
(224,24,o),
(238,9,o),
(256,9,c),
(274,9,o),
(288,24,o),
(288,41,c)
);
},
{
closed = 1;
nodes = (
(164,774,l),
(147,774,o),
(134,761,o),
(134,744,c),
(134,727,o),
(147,714,o),
(164,714,c),
(372,714,l),
(389,714,o),
(402,727,o),
(402,744,c),
(402,761,o),
(389,774,o),
(372,774,c)
);
},
{
closed = 1;
nodes = (
(147,61,l),
(130,61,o),
(117,48,o),
(117,31,c),
(117,14,o),
(130,1,o),
(147,1,c),
(365,1,l),
(382,1,o),
(395,14,o),
(395,31,c),
(395,48,o),
(382,61,o),
(365,61,c)
);
}
);
};
layerId = "F3447581-435E-44E2-ABAC-414C89955411";
shapes = (
{
closed = 1;
nodes = (
(288,41,l),
(301,733,l),
(237,733,l),
(224,41,l)
);
},
{
closed = 1;
nodes = (
(365,0,ls),
(382,0,o),
(395,13,o),
(395,30,cs),
(395,47,o),
(382,60,o),
(365,60,cs),
(147,60,ls),
(130,60,o),
(117,47,o),
(117,30,cs),
(117,13,o),
(130,0,o),
(147,0,cs)
);
},
{
closed = 1;
nodes = (
(372,715,ls),
(389,715,o),
(402,728,o),
(402,745,cs),
(402,762,o),
(389,775,o),
(372,775,cs),
(164,775,ls),
(147,775,o),
(134,762,o),
(134,745,cs),
(134,728,o),
(147,715,o),
(164,715,cs)
);
}
);
width = 519;
},
{
anchors = (
{
name = bottom;
pos = (256,0);
},
{
name = ogonek;
pos = (456,10);
},
{
name = top;
pos = (260,735);
},
{
name = topleft;
pos = (35,720);
}
);
background = {
shapes = (
{
closed = 0;
nodes = (
(157,170,l),
(132,69,o),
(171,0,o),
(253,0,cs),
(358,0,o),
(449,114,o),
(454,251,cs),
(470,700,l),
(202,700,l)
);
},
{
closed = 1;
nodes = (
(301,733,l),
(237,733,l),
(224,41,l),
(288,41,l)
);
},
{
closed = 1;
nodes = (
(164,775,ls),
(147,775,o),
(134,762,o),
(134,745,cs),
(134,728,o),
(147,715,o),
(164,715,cs),
(372,715,ls),
(389,715,o),
(402,728,o),
(402,745,cs),
(402,762,o),
(389,775,o),
(372,775,cs)
);
},
{
closed = 1;
nodes = (
(147,60,ls),
(130,60,o),
(117,47,o),
(117,30,cs),
(117,13,o),
(130,0,o),
(147,0,cs),
(365,0,ls),
(382,0,o),
(395,13,o),
(395,30,cs),
(395,47,o),
(382,60,o),
(365,60,cs)
);
}
);
};
layerId = m004;
shapes = (
{
alignment = -1;
ref = _GuideLine;
scale = (1.04,1);
}
);
width = 519;
},
{
anchors = (
{
name = bottom;
pos = (256,0);
},
{
name = ogonek;
pos = (456,10);
},
{
name = top;
pos = (260,735);
},
{
name = topleft;
pos = (35,720);
}
);
background = {
shapes = (
{
closed = 1;
nodes = (
(301,733,l),
(301,750,o),
(287,765,o),
(269,765,c),
(251,765,o),
(237,750,o),
(237,733,c),
(224,41,l),
(224,24,o),
(238,9,o),
(256,9,c),
(274,9,o),
(288,24,o),
(288,41,c)
);
},
{
closed = 1;
nodes = (
(164,774,l),
(147,774,o),
(134,761,o),
(134,744,c),
(134,727,o),
(147,714,o),
(164,714,c),
(372,714,l),
(389,714,o),
(402,727,o),
(402,744,c),
(402,761,o),
(389,774,o),
(372,774,c)
);
},
{
closed = 1;
nodes = (
(147,61,l),
(130,61,o),
(117,48,o),
(117,31,c),
(117,14,o),
(130,1,o),
(147,1,c),
(365,1,l),
(382,1,o),
(395,14,o),
(395,31,c),
(395,48,o),
(382,61,o),
(365,61,c)
);
}
);
};
layerId = m005;
shapes = (
{
closed = 1;
nodes = (
(288,41,l),
(301,733,l),
(237,733,l),
(224,41,l)
);
},
{
alignment = -1;
ref = _GuideLine;
scale = (1.04,1);
},
{
closed = 1;
nodes = (
(365,0,ls),
(382,0,o),
(395,13,o),
(395,30,cs),
(395,47,o),
(382,60,o),
(365,60,cs),
(147,60,ls),
(130,60,o),
(117,47,o),
(117,30,cs),
(117,13,o),
(130,0,o),
(147,0,cs)
);
},
{
closed = 1;
nodes = (
(372,715,ls),
(389,715,o),
(402,728,o),
(402,745,cs),
(402,762,o),
(389,775,o),
(372,775,cs),
(164,775,ls),
(147,775,o),
(134,762,o),
(134,745,cs),
(134,728,o),
(147,715,o),
(164,715,cs)
);
}
);
width = 519;
}
);
unicode = 73;
},
{
glyphname = IJ;
kernLeft = I;
kernRight = J;
lastChange = "2025-12-04 14:42:42 +0000";
layers = (
{
background = {
shapes = (
{
pos = (-27,0);
ref = I;
}
);
};
layerId = "6F9C6BB4-2DCF-443B-A55D-9CE049090094";
shapes = (
{
attr = {
identifier = ID0x7fadab45f450;
};
closed = 1;
nodes = (
(276,375,l),
(283,735,l),
(219,735,l),
(212,375,l)
);
},
{
attr = {
identifier = ID0x7fadab45f450;
};
closed = 1;
nodes = (
(349,335,ls),
(366,335,o),
(379,348,o),
(379,365,cs),
(379,382,o),
(366,395,o),
(349,395,cs),
(139,395,ls),
(122,395,o),
(109,382,o),
(109,365,cs),
(109,348,o),
(122,335,o),
(139,335,cs)
);
},
{
pos = (125,0);
ref = J;
},
{
attr = {
identifier = ID0x7fadab45f450;
};
closed = 1;
nodes = (
(350,715,ls),
(367,715,o),
(380,728,o),
(380,745,cs),
(380,762,o),
(367,775,o),
(350,775,cs),
(150,775,ls),
(133,775,o),
(120,762,o),
(120,745,cs),
(120,728,o),
(133,715,o),
(150,715,cs)
);
}
);
width = 700;
},
{
background = {
shapes = (
{
attr = {
identifier = ID0x7fadab45f450;
};
closed = 1;
nodes = (
(283,721,l),
(283,738,o),
(269,753,o),
(251,753,c),
(233,753,o),
(219,738,o),
(219,721,c),
(212,361,l),
(212,344,o),
(226,329,o),
(244,329,c),
(262,329,o),
(276,344,o),
(276,361,c)
);
},
{
attr = {
identifier = ID0x7fadab45f450;
};
closed = 1;
nodes = (
(150,761,l),
(133,761,o),
(120,748,o),
(120,731,c),
(120,714,o),
(133,701,o),
(150,701,c),
(350,701,l),
(367,701,o),
(380,714,o),
(380,731,c),
(380,748,o),
(367,761,o),
(350,761,c)
);
},
{
attr = {
identifier = ID0x7fadab45f450;
};
closed = 1;
nodes = (
(139,381,l),
(122,381,o),
(109,368,o),
(109,351,c),
(109,334,o),
(122,321,o),
(139,321,c),
(349,321,l),
(366,321,o),
(379,334,o),
(379,351,c),
(379,368,o),
(366,381,o),
(349,381,c)
);
}
);
};
layerId = m002;
shapes = (
{
attr = {
identifier = ID0x7fadab45f450;
};
closed = 1;
nodes = (
(276,375,l),
(283,735,l),
(219,735,l),
(212,375,l)
);
},
{
attr = {
identifier = ID0x7fadab45f450;
};
closed = 1;
nodes = (
(349,335,ls),
(366,335,o),
(379,348,o),
(379,365,cs),
(379,382,o),
(366,395,o),
(349,395,cs),
(139,395,ls),
(122,395,o),
(109,382,o),
(109,365,cs),
(109,348,o),
(122,335,o),
(139,335,cs)
);
},
{
pos = (125,0);
ref = J;
},
{
attr = {
identifier = ID0x7fadab45f450;
};
closed = 1;
nodes = (
(350,715,ls),
(367,715,o),
(380,728,o),
(380,745,cs),
(380,762,o),
(367,775,o),
(350,775,cs),
(150,775,ls),
(133,775,o),
(120,762,o),
(120,745,cs),
(120,728,o),
(133,715,o),
(150,715,cs)
);
}
);
width = 700;
},
{
background = {
shapes = (
{
pos = (-27,0);
ref = I;
}
);
};
layerId = "F3447581-435E-44E2-ABAC-414C89955411";
shapes = (
{
attr = {
identifier = ID0x7fadab45f450;
};
closed = 1;
nodes = (
(276,375,l),
(283,735,l),
(219,735,l),
(212,375,l)
);
},
{
attr = {
identifier = ID0x7fadab45f450;
};
closed = 1;
nodes = (
(349,335,ls),
(366,335,o),
(379,348,o),
(379,365,cs),
(379,382,o),
(366,395,o),
(349,395,cs),
(139,395,ls),
(122,395,o),
(109,382,o),
(109,365,cs),
(109,348,o),
(122,335,o),
(139,335,cs)
);
},
{
pos = (125,0);
ref = J;
},
{
attr = {
identifier = ID0x7fadab45f450;
};
closed = 1;
nodes = (
(350,715,ls),
(367,715,o),
(380,728,o),
(380,745,cs),
(380,762,o),
(367,775,o),
(350,775,cs),
(150,775,ls),
(133,775,o),
(120,762,o),
(120,745,cs),
(120,728,o),
(133,715,o),
(150,715,cs)
);
}
);
width = 700;
},
{
anchors = (
{
name = bottom;
pos = (422,0);
},
{
name = top;
pos = (523,700);
}
);
background = {
shapes = (
{
pos = (-27,0);
ref = I;
}
);
};
layerId = m004;
shapes = (
{
alignment = -1;
pos = (125,0);
ref = _GuideLine;
scale = (1.18,1);
},
{
alignment = -1;
ref = _GuideLine;
scale = (0.2659,1);
}
);
width = 700;
},
{
background = {
shapes = (
{
pos = (-27,0);
ref = I;
}
);
};
layerId = m005;
shapes = (
{
attr = {
identifier = ID0x7fadab45f450;
};
closed = 1;
nodes = (
(276,375,l),
(283,735,l),
(219,735,l),
(212,375,l)
);
},
{
attr = {
identifier = ID0x7fadab45f450;
};
closed = 1;
nodes = (
(349,335,ls),
(366,335,o),
(379,348,o),
(379,365,cs),
(379,382,o),
(366,395,o),
(349,395,cs),
(139,395,ls),
(122,395,o),
(109,382,o),
(109,365,cs),
(109,348,o),
(122,335,o),
(139,335,cs)
);
},
{
pos = (125,0);
ref = J;
},
{
attr = {
identifier = ID0x7fadab45f450;
};
closed = 1;
nodes = (
(350,715,ls),
(367,715,o),
(380,728,o),
(380,745,cs),
(380,762,o),
(367,775,o),
(350,775,cs),
(150,775,ls),
(133,775,o),
(120,762,o),
(120,745,cs),
(120,728,o),
(133,715,o),
(150,715,cs)
);
}
);
width = 700;
}
);
unicode = 306;
},
{
color = 9;
glyphname = J;
kernLeft = J;
kernRight = J;
lastChange = "2025-12-04 18:29:11 +0000";
layers = (
{
anchors = (
{
name = bottom;
pos = (297,0);
},
{
name = top;
pos = (398,735);
}
);
background = {
shapes = (
{
closed = 0;
nodes = (
(433,151,l),
(420,88,o),
(171,-25,o),
(171,-244,cs),
(171,-305,o),
(193,-347,o),
(232,-347,cs),
(284,-347,o),
(287,-285,o),
(285,-104,cs),
(283,51,o),
(278,206,o),
(285,361,cs),
(301,700,l),
(301,700,o),
(265,228,o),
(124,128,c)
);
}
);
};
layerId = "6F9C6BB4-2DCF-443B-A55D-9CE049090094";
shapes = (
{
closed = 1;
nodes = (
(391,-4,o),
(463,98,o),
(465,252,c),
(473,747,l),
(473,765,o),
(459,780,o),
(441,780,c),
(423,780,o),
(408,765,o),
(408,748,c),
(401,252,l),
(399,124,o),
(347,56,o),
(277,56,c),
(192,56,o),
(150,127,o),
(158,280,c),
(159,299,o),
(145,314,o),
(126,314,c),
(109,314,o),
(94,300,o),
(94,284,c),
(84,100,o),
(146,-4,o),
(277,-4,c)
);
}
);
width = 587;
},
{
anchors = (
{
name = bottom;
pos = (297,0);
},
{
name = top;
pos = (398,735);
}
);
background = {
shapes = (
{
closed = 0;
nodes = (
(433,151,l),
(420,88,o),
(171,-25,o),
(171,-244,cs),
(171,-305,o),
(193,-347,o),
(232,-347,cs),
(284,-347,o),
(287,-285,o),
(285,-104,cs),
(283,51,o),
(278,206,o),
(285,361,cs),
(301,700,l),
(301,700,o),
(265,228,o),
(124,128,c)
);
}
);
};
layerId = m002;
shapes = (
{
closed = 1;
nodes = (
(391,-4,o),
(463,98,o),
(465,252,c),
(473,747,l),
(473,765,o),
(459,780,o),
(441,780,c),
(423,780,o),
(408,765,o),
(408,748,c),
(401,252,l),
(399,124,o),
(347,56,o),
(277,56,c),
(192,56,o),
(150,127,o),
(158,280,c),
(159,299,o),
(145,314,o),
(126,314,c),
(109,314,o),
(94,300,o),
(94,284,c),
(84,100,o),
(146,-4,o),
(277,-4,c)
);
},
{
alignment = -1;
ref = _GuideLine;
scale = (1.18,1);
}
);
width = 587;
},
{
anchors = (
{
name = bottom;
pos = (297,0);
},
{
name = top;
pos = (398,735);
}
);
background = {
shapes = (
{
closed = 0;
nodes = (
(433,151,l),
(420,88,o),
(171,-25,o),
(171,-244,cs),
(171,-305,o),
(193,-347,o),
(232,-347,cs),
(284,-347,o),
(287,-285,o),
(285,-104,cs),
(283,51,o),
(278,206,o),
(285,361,cs),
(301,700,l),
(301,700,o),
(265,228,o),
(124,128,c)
);
}
);
};
layerId = "F3447581-435E-44E2-ABAC-414C89955411";
shapes = (
{
closed = 1;
nodes = (
(391,-4,o),
(463,98,o),
(465,252,c),
(473,747,l),
(473,765,o),
(459,780,o),
(441,780,c),
(423,780,o),
(408,765,o),
(408,748,c),
(401,252,l),
(399,124,o),
(347,56,o),
(277,56,c),
(192,56,o),
(150,127,o),
(158,280,c),
(159,299,o),
(145,314,o),
(126,314,c),
(109,314,o),
(94,300,o),
(94,284,c),
(84,100,o),
(146,-4,o),
(277,-4,c)
);
}
);
width = 587;
},
{
anchors = (
{
name = bottom;
pos = (297,0);
},
{
name = top;
pos = (398,735);
}
);
background = {
shapes = (
{
closed = 0;
nodes = (
(433,151,l),
(420,88,o),
(171,-25,o),
(171,-244,cs),
(171,-305,o),
(193,-347,o),
(232,-347,cs),
(284,-347,o),
(287,-285,o),
(285,-104,cs),
(283,51,o),
(278,206,o),
(285,361,cs),
(301,700,l),
(301,700,o),
(265,228,o),
(124,128,c)
);
}
);
};
layerId = m004;
shapes = (
{
alignment = -1;
ref = _GuideLine;
scale = (1.18,1);
}
);
width = 587;
},
{
anchors = (
{
name = bottom;
pos = (297,0);
},
{
name = top;
pos = (398,735);
}
);
background = {
shapes = (
{
closed = 0;
nodes = (
(433,151,l),
(420,88,o),
(171,-25,o),
(171,-244,cs),
(171,-305,o),
(193,-347,o),
(232,-347,cs),
(284,-347,o),
(287,-285,o),
(285,-104,cs),
(283,51,o),
(278,206,o),
(285,361,cs),
(301,700,l),
(301,700,o),
(265,228,o),
(124,128,c)
);
}
);
};
layerId = m005;
shapes = (
{
closed = 1;
nodes = (
(391,-4,o),
(463,98,o),
(465,252,c),
(473,747,l),
(473,765,o),
(459,780,o),
(441,780,c),
(423,780,o),
(408,765,o),
(408,748,c),
(401,252,l),
(399,124,o),
(347,56,o),
(277,56,c),
(192,56,o),
(150,127,o),
(158,280,c),
(159,299,o),
(145,314,o),
(126,314,c),
(109,314,o),
(94,300,o),
(94,284,c),
(84,100,o),
(146,-4,o),
(277,-4,c)
);
},
{
alignment = -1;
ref = _GuideLine;
scale = (1.18,1);
}
);
width = 587;
}
);
unicode = 74;
},
{
color = 9;
glyphname = K;
kernLeft = H;
kernRight = K;
lastChange = "2025-12-04 18:29:11 +0000";
layers = (
{
background = {
shapes = (
{
closed = 0;
nodes = (
(451,0,l),
(157,0,l),
(171,700,l),
(454,700,l)
);
},
{
closed = 0;
nodes = (
(164,344,l),
(418,344,l)
);
}
);
};
layerId = "6F9C6BB4-2DCF-443B-A55D-9CE049090094";
shapes = (
{
closed = 1;
nodes = (
(599,-4,o),
(613,10,o),
(613,27,c),
(613,36,o),
(609,44,o),
(604,49,c),
(254,374,l),
(566,732,l),
(570,738,o),
(572,745,o),
(572,752,c),
(572,769,o),
(558,783,o),
(541,783,c),
(531,783,o),
(522,779,o),
(516,772,c),
(168,370,l),
(560,5,l),
(565,0,o),
(573,-4,o),
(582,-4,c)
);
},
{
closed = 1;
nodes = (
(170,-5,o),
(185,10,o),
(185,27,c),
(196,747,l),
(196,765,o),
(182,780,o),
(164,780,c),
(146,780,o),
(131,765,o),
(131,748,c),
(120,28,l),
(120,10,o),
(134,-5,o),
(152,-5,c)
);
}
);
width = 699;
},
{
background = {
shapes = (
{
closed = 0;
nodes = (
(451,0,l),
(157,0,l),
(171,700,l),
(454,700,l)
);
},
{
closed = 0;
nodes = (
(164,344,l),
(418,344,l)
);
}
);
};
layerId = m002;
shapes = (
{
closed = 1;
nodes = (
(599,-4,o),
(613,10,o),
(613,27,c),
(613,36,o),
(609,44,o),
(604,49,c),
(254,374,l),
(566,732,l),
(570,738,o),
(572,745,o),
(572,752,c),
(572,769,o),
(558,783,o),
(541,783,c),
(531,783,o),
(522,779,o),
(516,772,c),
(168,370,l),
(560,5,l),
(565,0,o),
(573,-4,o),
(582,-4,c)
);
},
{
closed = 1;
nodes = (
(170,-5,o),
(185,10,o),
(185,27,c),
(196,747,l),
(196,765,o),
(182,780,o),
(164,780,c),
(146,780,o),
(131,765,o),
(131,748,c),
(120,28,l),
(120,10,o),
(134,-5,o),
(152,-5,c)
);
},
{
alignment = -1;
ref = _GuideLine;
scale = (1.4,1);
}
);
width = 699;
},
{
background = {
shapes = (
{
closed = 0;
nodes = (
(451,0,l),
(157,0,l),
(171,700,l),
(454,700,l)
);
},
{
closed = 0;
nodes = (
(164,344,l),
(418,344,l)
);
}
);
};
layerId = "F3447581-435E-44E2-ABAC-414C89955411";
shapes = (
{
closed = 1;
nodes = (
(599,-4,o),
(613,10,o),
(613,27,c),
(613,36,o),
(609,44,o),
(604,49,c),
(254,374,l),
(566,732,l),
(570,738,o),
(572,745,o),
(572,752,c),
(572,769,o),
(558,783,o),
(541,783,c),
(531,783,o),
(522,779,o),
(516,772,c),
(168,370,l),
(560,5,l),
(565,0,o),
(573,-4,o),
(582,-4,c)
);
},
{
closed = 1;
nodes = (
(170,-5,o),
(185,10,o),
(185,27,c),
(196,747,l),
(196,765,o),
(182,780,o),
(164,780,c),
(146,780,o),
(131,765,o),
(131,748,c),
(120,28,l),
(120,10,o),
(134,-5,o),
(152,-5,c)
);
}
);
width = 699;
},
{
background = {
shapes = (
{
closed = 0;
nodes = (
(451,0,l),
(157,0,l),
(171,700,l),
(454,700,l)
);
},
{
closed = 0;
nodes = (
(164,344,l),
(418,344,l)
);
}
);
};
layerId = m004;
shapes = (
{
alignment = -1;
ref = _GuideLine;
scale = (1.4,1);
}
);
width = 699;
},
{
background = {
shapes = (
{
closed = 0;
nodes = (
(451,0,l),
(157,0,l),
(171,700,l),
(454,700,l)
);
},
{
closed = 0;
nodes = (
(164,344,l),
(418,344,l)
);
}
);
};
layerId = m005;
shapes = (
{
closed = 1;
nodes = (
(599,-4,o),
(613,10,o),
(613,27,c),
(613,36,o),
(609,44,o),
(604,49,c),
(254,374,l),
(566,732,l),
(570,738,o),
(572,745,o),
(572,752,c),
(572,769,o),
(558,783,o),
(541,783,c),
(531,783,o),
(522,779,o),
(516,772,c),
(168,370,l),
(560,5,l),
(565,0,o),
(573,-4,o),
(582,-4,c)
);
},
{
closed = 1;
nodes = (
(170,-5,o),
(185,10,o),
(185,27,c),
(196,747,l),
(196,765,o),
(182,780,o),
(164,780,c),
(146,780,o),
(131,765,o),
(131,748,c),
(120,28,l),
(120,10,o),
(134,-5,o),
(152,-5,c)
);
},
{
alignment = -1;
ref = _GuideLine;
scale = (1.4,1);
}
);
width = 699;
}
);
unicode = 75;
},
{
color = 9;
glyphname = L;
kernLeft = H;
kernRight = L;
lastChange = "2025-12-04 18:29:11 +0000";
layers = (
{
background = {
shapes = (
{
closed = 0;
nodes = (
(72,700,l),
(453,700,l)
);
},
{
closed = 0;
nodes = (
(441,0,l),
(174,0,l),
(147,0,o),
(145,12,o),
(146,39,cs),
(172,700,l)
);
},
{
closed = 0;
nodes = (
(156,344,l),
(413,344,l)
);
}
);
};
layerId = "6F9C6BB4-2DCF-443B-A55D-9CE049090094";
shapes = (
{
closed = 1;
nodes = (
(457,1,l),
(474,1,o),
(487,14,o),
(487,31,c),
(487,48,o),
(474,61,o),
(457,61,c),
(184,61,l),
(198,747,l),
(198,765,o),
(184,780,o),
(165,780,c),
(148,780,o),
(133,765,o),
(133,748,c),
(118,1,l)
);
}
);
width = 604;
},
{
background = {
shapes = (
{
closed = 0;
nodes = (
(72,700,l),
(453,700,l)
);
},
{
closed = 0;
nodes = (
(441,0,l),
(174,0,l),
(147,0,o),
(145,12,o),
(146,39,cs),
(172,700,l)
);
},
{
closed = 0;
nodes = (
(156,344,l),
(413,344,l)
);
}
);
};
layerId = m002;
shapes = (
{
closed = 1;
nodes = (
(457,1,l),
(474,1,o),
(487,14,o),
(487,31,c),
(487,48,o),
(474,61,o),
(457,61,c),
(184,61,l),
(198,747,l),
(198,765,o),
(184,780,o),
(165,780,c),
(148,780,o),
(133,765,o),
(133,748,c),
(118,1,l)
);
},
{
alignment = -1;
ref = _GuideLine;
scale = (1.21,1);
}
);
width = 604;
},
{
background = {
shapes = (
{
closed = 0;
nodes = (
(72,700,l),
(453,700,l)
);
},
{
closed = 0;
nodes = (
(441,0,l),
(174,0,l),
(147,0,o),
(145,12,o),
(146,39,cs),
(172,700,l)
);
},
{
closed = 0;
nodes = (
(156,344,l),
(413,344,l)
);
}
);
};
layerId = "F3447581-435E-44E2-ABAC-414C89955411";
shapes = (
{
closed = 1;
nodes = (
(457,1,l),
(474,1,o),
(487,14,o),
(487,31,c),
(487,48,o),
(474,61,o),
(457,61,c),
(184,61,l),
(198,747,l),
(198,765,o),
(184,780,o),
(165,780,c),
(148,780,o),
(133,765,o),
(133,748,c),
(118,1,l)
);
}
);
width = 604;
},
{
background = {
shapes = (
{
closed = 0;
nodes = (
(72,700,l),
(453,700,l)
);
},
{
closed = 0;
nodes = (
(441,0,l),
(174,0,l),
(147,0,o),
(145,12,o),
(146,39,cs),
(172,700,l)
);
},
{
closed = 0;
nodes = (
(156,344,l),
(413,344,l)
);
}
);
};
layerId = m004;
shapes = (
{
alignment = -1;
ref = _GuideLine;
scale = (1.21,1);
}
);
width = 604;
},
{
background = {
shapes = (
{
closed = 0;
nodes = (
(72,700,l),
(453,700,l)
);
},
{
closed = 0;
nodes = (
(441,0,l),
(174,0,l),
(147,0,o),
(145,12,o),
(146,39,cs),
(172,700,l)
);
},
{
closed = 0;
nodes = (
(156,344,l),
(413,344,l)
);
}
);
};
layerId = m005;
shapes = (
{
closed = 1;
nodes = (
(457,1,l),
(474,1,o),
(487,14,o),
(487,31,c),
(487,48,o),
(474,61,o),
(457,61,c),
(184,61,l),
(198,747,l),
(198,765,o),
(184,780,o),
(165,780,c),
(148,780,o),
(133,765,o),
(133,748,c),
(118,1,l)
);
},
{
alignment = -1;
ref = _GuideLine;
scale = (1.21,1);
}
);
width = 604;
}
);
unicode = 76;
},
{
color = 9;
glyphname = M;
kernLeft = H;
kernRight = H;
lastChange = "2025-12-04 18:29:11 +0000";
layers = (
{
background = {
shapes = (
{
closed = 1;
nodes = (
(510,56,o),
(521,63,o),
(526,74,c),
(860,733,l),
(862,737,o),
(863,742,o),
(863,747,c),
(863,765,o),
(849,779,o),
(831,779,c),
(818,779,o),
(807,772,o),
(802,761,c),
(468,102,l),
(466,98,o),
(465,93,o),
(465,88,c),
(465,70,o),
(479,56,o),
(497,56,c)
);
},
{
closed = 1;
nodes = (
(149,-5,o),
(163,8,o),
(164,25,c),
(214,745,l),
(215,762,o),
(202,779,o),
(182,779,c),
(165,779,o),
(151,765,o),
(150,749,c),
(100,29,l),
(99,12,o),
(113,-5,o),
(132,-5,c)
);
},
{
closed = 1;
nodes = (
(514,56,o),
(528,70,o),
(528,88,c),
(528,93,o),
(527,96,o),
(525,101,c),
(212,760,l),
(207,771,o),
(196,779,o),
(183,779,c),
(165,779,o),
(151,765,o),
(151,747,c),
(151,742,o),
(152,739,o),
(154,734,c),
(467,75,l),
(472,64,o),
(483,56,o),
(496,56,c)
);
},
{
closed = 1;
nodes = (
(880,-4,o),
(895,10,o),
(894,29,c),
(864,748,l),
(864,765,o),
(850,779,o),
(832,779,c),
(814,779,o),
(799,765,o),
(800,746,c),
(829,27,l),
(830,9,o),
(844,-4,o),
(862,-4,c)
);
}
);
};
layerId = "6F9C6BB4-2DCF-443B-A55D-9CE049090094";
shapes = (
{
closed = 1;
nodes = (
(150,-5,o),
(164,8,o),
(165,25,cs),
(215,745,l),
(154,734,l),
(467,75,ls),
(472,64,o),
(483,56,o),
(497,56,cs),
(510,56,o),
(521,63,o),
(526,74,cs),
(860,733,l),
(800,746,l),
(829,27,ls),
(830,9,o),
(844,-4,o),
(862,-4,cs),
(880,-4,o),
(895,10,o),
(894,29,cs),
(864,748,ls),
(863,765,o),
(850,779,o),
(832,779,cs),
(819,779,o),
(807,772,o),
(802,761,cs),
(468,102,l),
(525,101,l),
(212,760,ls),
(207,771,o),
(196,779,o),
(183,779,cs),
(166,779,o),
(152,765,o),
(151,749,cs),
(101,29,ls),
(100,12,o),
(114,-5,o),
(133,-5,cs)
);
}
);
width = 1003;
},
{
background = {
shapes = (
{
closed = 1;
nodes = (
(510,56,o),
(521,63,o),
(526,74,c),
(860,733,l),
(862,737,o),
(863,742,o),
(863,747,c),
(863,765,o),
(849,779,o),
(831,779,c),
(818,779,o),
(807,772,o),
(802,761,c),
(468,102,l),
(466,98,o),
(465,93,o),
(465,88,c),
(465,70,o),
(479,56,o),
(497,56,c)
);
},
{
closed = 1;
nodes = (
(149,-5,o),
(163,8,o),
(164,25,c),
(214,745,l),
(215,762,o),
(202,779,o),
(182,779,c),
(165,779,o),
(151,765,o),
(150,749,c),
(100,29,l),
(99,12,o),
(113,-5,o),
(132,-5,c)
);
},
{
closed = 1;
nodes = (
(514,56,o),
(528,70,o),
(528,88,c),
(528,93,o),
(527,96,o),
(525,101,c),
(212,760,l),
(207,771,o),
(196,779,o),
(183,779,c),
(165,779,o),
(151,765,o),
(151,747,c),
(151,742,o),
(152,739,o),
(154,734,c),
(467,75,l),
(472,64,o),
(483,56,o),
(496,56,c)
);
},
{
closed = 1;
nodes = (
(880,-4,o),
(895,10,o),
(894,29,c),
(864,748,l),
(864,765,o),
(850,779,o),
(832,779,c),
(814,779,o),
(799,765,o),
(800,746,c),
(829,27,l),
(830,9,o),
(844,-4,o),
(862,-4,c)
);
}
);
};
layerId = m002;
shapes = (
{
closed = 1;
nodes = (
(150,-5,o),
(164,8,o),
(165,25,cs),
(215,745,l),
(154,734,l),
(467,75,ls),
(472,64,o),
(483,56,o),
(497,56,cs),
(510,56,o),
(521,63,o),
(526,74,cs),
(860,733,l),
(800,746,l),
(829,27,ls),
(830,9,o),
(844,-4,o),
(862,-4,cs),
(880,-4,o),
(895,10,o),
(894,29,cs),
(864,748,ls),
(863,765,o),
(850,779,o),
(832,779,cs),
(819,779,o),
(807,772,o),
(802,761,cs),
(468,102,l),
(525,101,l),
(212,760,ls),
(207,771,o),
(196,779,o),
(183,779,cs),
(166,779,o),
(152,765,o),
(151,749,cs),
(101,29,ls),
(100,12,o),
(114,-5,o),
(133,-5,cs)
);
},
{
alignment = -1;
ref = _GuideLine;
scale = (2.01,1);
}
);
width = 1003;
},
{
background = {
shapes = (
{
closed = 1;
nodes = (
(510,56,o),
(521,63,o),
(526,74,c),
(860,733,l),
(862,737,o),
(863,742,o),
(863,747,c),
(863,765,o),
(849,779,o),
(831,779,c),
(818,779,o),
(807,772,o),
(802,761,c),
(468,102,l),
(466,98,o),
(465,93,o),
(465,88,c),
(465,70,o),
(479,56,o),
(497,56,c)
);
},
{
closed = 1;
nodes = (
(149,-5,o),
(163,8,o),
(164,25,c),
(214,745,l),
(215,762,o),
(202,779,o),
(182,779,c),
(165,779,o),
(151,765,o),
(150,749,c),
(100,29,l),
(99,12,o),
(113,-5,o),
(132,-5,c)
);
},
{
closed = 1;
nodes = (
(514,56,o),
(528,70,o),
(528,88,c),
(528,93,o),
(527,96,o),
(525,101,c),
(212,760,l),
(207,771,o),
(196,779,o),
(183,779,c),
(165,779,o),
(151,765,o),
(151,747,c),
(151,742,o),
(152,739,o),
(154,734,c),
(467,75,l),
(472,64,o),
(483,56,o),
(496,56,c)
);
},
{
closed = 1;
nodes = (
(880,-4,o),
(895,10,o),
(894,29,c),
(864,748,l),
(864,765,o),
(850,779,o),
(832,779,c),
(814,779,o),
(799,765,o),
(800,746,c),
(829,27,l),
(830,9,o),
(844,-4,o),
(862,-4,c)
);
}
);
};
layerId = "F3447581-435E-44E2-ABAC-414C89955411";
shapes = (
{
closed = 1;
nodes = (
(150,-5,o),
(164,8,o),
(165,25,cs),
(215,745,l),
(154,734,l),
(467,75,ls),
(472,64,o),
(483,56,o),
(497,56,cs),
(510,56,o),
(521,63,o),
(526,74,cs),
(860,733,l),
(800,746,l),
(829,27,ls),
(830,9,o),
(844,-4,o),
(862,-4,cs),
(880,-4,o),
(895,10,o),
(894,29,cs),
(864,748,ls),
(863,765,o),
(850,779,o),
(832,779,cs),
(819,779,o),
(807,772,o),
(802,761,cs),
(468,102,l),
(525,101,l),
(212,760,ls),
(207,771,o),
(196,779,o),
(183,779,cs),
(166,779,o),
(152,765,o),
(151,749,cs),
(101,29,ls),
(100,12,o),
(114,-5,o),
(133,-5,cs)
);
}
);
width = 1003;
},
{
background = {
shapes = (
{
closed = 0;
nodes = (
(361,700,l),
(155,113,ls),
(126,30,o),
(93,1,o),
(24,1,c)
);
},
{
closed = 0;
nodes = (
(846,686,l),
(711,268,o),
(561,103,o),
(495,54,c),
(440,142,o),
(377,329,o),
(361,686,c)
);
},
{
closed = 0;
nodes = (
(1044,230,l),
(982,83,o),
(888,0,o),
(853,0,cs),
(796,0,o),
(820,189,o),
(846,700,c)
);
},
{
closed = 1;
nodes = (
(150,-5,o),
(164,8,o),
(165,25,cs),
(215,745,l),
(154,734,l),
(467,75,ls),
(472,64,o),
(483,56,o),
(497,56,cs),
(510,56,o),
(521,63,o),
(526,74,cs),
(860,733,l),
(800,746,l),
(829,27,ls),
(830,9,o),
(844,-4,o),
(862,-4,cs),
(880,-4,o),
(895,10,o),
(894,29,cs),
(864,748,ls),
(863,765,o),
(850,779,o),
(832,779,cs),
(819,779,o),
(807,772,o),
(802,761,cs),
(468,102,l),
(525,101,l),
(212,760,ls),
(207,771,o),
(196,779,o),
(183,779,cs),
(166,779,o),
(152,765,o),
(151,749,cs),
(101,29,ls),
(100,12,o),
(114,-5,o),
(133,-5,cs)
);
}
);
};
layerId = m004;
shapes = (
{
alignment = -1;
ref = _GuideLine;
scale = (2.01,1);
}
);
width = 1003;
},
{
background = {
shapes = (
{
closed = 0;
nodes = (
(361,700,l),
(155,113,ls),
(126,30,o),
(93,1,o),
(24,1,c)
);
},
{
closed = 0;
nodes = (
(846,686,l),
(711,268,o),
(561,103,o),
(495,54,c),
(440,142,o),
(377,329,o),
(361,686,c)
);
},
{
closed = 0;
nodes = (
(1044,230,l),
(982,83,o),
(888,0,o),
(853,0,cs),
(796,0,o),
(820,189,o),
(846,700,c)
);
}
);
};
layerId = m005;
shapes = (
{
closed = 1;
nodes = (
(150,-5,o),
(164,8,o),
(165,25,cs),
(215,745,l),
(154,734,l),
(467,75,ls),
(472,64,o),
(483,56,o),
(497,56,cs),
(510,56,o),
(521,63,o),
(526,74,cs),
(860,733,l),
(800,746,l),
(829,27,ls),
(830,9,o),
(844,-4,o),
(862,-4,cs),
(880,-4,o),
(895,10,o),
(894,29,cs),
(864,748,ls),
(863,765,o),
(850,779,o),
(832,779,cs),
(819,779,o),
(807,772,o),
(802,761,cs),
(468,102,l),
(525,101,l),
(212,760,ls),
(207,771,o),
(196,779,o),
(183,779,cs),
(166,779,o),
(152,765,o),
(151,749,cs),
(101,29,ls),
(100,12,o),
(114,-5,o),
(133,-5,cs)
);
},
{
alignment = -1;
ref = _GuideLine;
scale = (2.01,1);
}
);
width = 1003;
}
);
unicode = 77;
},
{
color = 9;
glyphname = N;
kernLeft = H;
kernRight = H;
lastChange = "2025-12-04 18:29:11 +0000";
layers = (
{
anchors = (
{
name = bottom;
pos = (372,0);
},
{
name = top;
pos = (372,735);
}
);
background = {
shapes = (
{
closed = 1;
nodes = (
(625,747,l),
(625,765,o),
(611,780,o),
(592,780,c),
(575,780,o),
(560,765,o),
(560,748,c),
(548,28,l),
(548,11,o),
(562,-4,o),
(580,-4,c),
(598,-4,o),
(612,11,o),
(612,28,c)
);
},
{
closed = 1;
nodes = (
(196,747,l),
(196,764,o),
(182,779,o),
(164,779,c),
(146,779,o),
(132,764,o),
(132,747,c),
(117,28,l),
(117,10,o),
(131,-5,o),
(150,-5,c),
(167,-5,o),
(182,10,o),
(182,27,c)
);
},
{
closed = 0;
nodes = (
(611,29,l),
(611,34,o),
(609,40,o),
(607,44,c),
(193,762,l),
(187,773,o),
(177,779,o),
(165,779,c),
(147,779,o),
(133,765,o),
(133,747,c),
(133,742,o),
(135,736,o),
(137,732,c),
(551,14,l)
);
}
);
};
layerId = "6F9C6BB4-2DCF-443B-A55D-9CE049090094";
shapes = (
{
closed = 1;
nodes = (
(167,-5,o),
(182,10,o),
(182,27,cs),
(196,747,l),
(137,732,l),
(555,8,ls),
(560,0,o),
(570,-4,o),
(580,-4,cs),
(598,-4,o),
(612,11,o),
(612,28,cs),
(625,747,ls),
(625,765,o),
(611,780,o),
(592,780,cs),
(575,780,o),
(560,765,o),
(560,748,cs),
(548,28,l),
(607,44,l),
(193,762,ls),
(187,773,o),
(176,779,o),
(164,779,cs),
(146,779,o),
(132,764,o),
(132,747,cs),
(117,28,ls),
(117,10,o),
(131,-5,o),
(150,-5,cs)
);
}
);
width = 743;
},
{
anchors = (
{
name = bottom;
pos = (372,0);
},
{
name = top;
pos = (372,735);
}
);
background = {
shapes = (
{
closed = 1;
nodes = (
(597,-3,o),
(611,11,o),
(611,29,c),
(611,34,o),
(609,40,o),
(607,44,c),
(193,762,l),
(187,773,o),
(177,779,o),
(165,779,c),
(147,779,o),
(133,765,o),
(133,747,c),
(133,742,o),
(135,736,o),
(137,732,c),
(551,14,l),
(557,3,o),
(567,-3,o),
(579,-3,c)
);
},
{
closed = 1;
nodes = (
(167,-5,o),
(182,10,o),
(182,27,c),
(196,747,l),
(196,764,o),
(182,779,o),
(164,779,c),
(146,779,o),
(132,764,o),
(132,747,c),
(117,28,l),
(117,10,o),
(131,-5,o),
(150,-5,c)
);
},
{
closed = 1;
nodes = (
(598,-4,o),
(612,11,o),
(612,28,c),
(625,747,l),
(625,765,o),
(611,780,o),
(592,780,c),
(575,780,o),
(560,765,o),
(560,748,c),
(548,28,l),
(548,11,o),
(562,-4,o),
(580,-4,c)
);
}
);
};
layerId = m002;
shapes = (
{
closed = 1;
nodes = (
(167,-5,o),
(182,10,o),
(182,27,cs),
(196,747,l),
(137,732,l),
(555,8,ls),
(560,0,o),
(570,-4,o),
(580,-4,cs),
(598,-4,o),
(612,11,o),
(612,28,cs),
(625,747,ls),
(625,765,o),
(611,780,o),
(592,780,cs),
(575,780,o),
(560,765,o),
(560,748,cs),
(548,28,l),
(607,44,l),
(193,762,ls),
(187,773,o),
(176,779,o),
(164,779,cs),
(146,779,o),
(132,764,o),
(132,747,cs),
(117,28,ls),
(117,10,o),
(131,-5,o),
(150,-5,cs)
);
},
{
alignment = -1;
ref = _GuideLine;
scale = (1.49,1);
}
);
width = 743;
},
{
anchors = (
{
name = bottom;
pos = (372,0);
},
{
name = top;
pos = (372,735);
}
);
background = {
shapes = (
{
closed = 1;
nodes = (
(597,-3,o),
(611,11,o),
(611,29,c),
(611,34,o),
(609,40,o),
(607,44,c),
(193,762,l),
(187,773,o),
(177,779,o),
(165,779,c),
(147,779,o),
(133,765,o),
(133,747,c),
(133,742,o),
(135,736,o),
(137,732,c),
(551,14,l),
(557,3,o),
(567,-3,o),
(579,-3,c)
);
},
{
closed = 1;
nodes = (
(167,-5,o),
(182,10,o),
(182,27,c),
(196,747,l),
(196,764,o),
(182,779,o),
(164,779,c),
(146,779,o),
(132,764,o),
(132,747,c),
(117,28,l),
(117,10,o),
(131,-5,o),
(150,-5,c)
);
},
{
closed = 1;
nodes = (
(598,-4,o),
(612,11,o),
(612,28,c),
(625,747,l),
(625,765,o),
(611,780,o),
(592,780,c),
(575,780,o),
(560,765,o),
(560,748,c),
(548,28,l),
(548,11,o),
(562,-4,o),
(580,-4,c)
);
}
);
};
layerId = "F3447581-435E-44E2-ABAC-414C89955411";
shapes = (
{
closed = 1;
nodes = (
(167,-5,o),
(182,10,o),
(182,27,cs),
(196,747,l),
(137,732,l),
(555,8,ls),
(560,0,o),
(570,-4,o),
(580,-4,cs),
(598,-4,o),
(612,11,o),
(612,28,cs),
(625,747,ls),
(625,765,o),
(611,780,o),
(592,780,cs),
(575,780,o),
(560,765,o),
(560,748,cs),
(548,28,l),
(607,44,l),
(193,762,ls),
(187,773,o),
(176,779,o),
(164,779,cs),
(146,779,o),
(132,764,o),
(132,747,cs),
(117,28,ls),
(117,10,o),
(131,-5,o),
(150,-5,cs)
);
}
);
width = 743;
},
{
anchors = (
{
name = bottom;
pos = (372,0);
},
{
name = top;
pos = (372,735);
}
);
background = {
shapes = (
{
closed = 0;
nodes = (
(589,700,l),
(565,0,l),
(174,699,l),
(153,112,ls),
(150,29,o),
(126,0,o),
(57,0,c)
);
},
{
closed = 1;
nodes = (
(167,-5,o),
(182,10,o),
(182,27,cs),
(196,747,l),
(137,732,l),
(555,8,ls),
(560,0,o),
(570,-4,o),
(580,-4,cs),
(598,-4,o),
(612,11,o),
(612,28,cs),
(625,747,ls),
(625,765,o),
(611,780,o),
(592,780,cs),
(575,780,o),
(560,765,o),
(560,748,cs),
(548,28,l),
(607,44,l),
(193,762,ls),
(187,773,o),
(176,779,o),
(164,779,cs),
(146,779,o),
(132,764,o),
(132,747,cs),
(117,28,ls),
(117,10,o),
(131,-5,o),
(150,-5,cs)
);
}
);
};
layerId = m004;
shapes = (
{
alignment = -1;
ref = _GuideLine;
scale = (1.49,1);
}
);
width = 743;
},
{
anchors = (
{
name = bottom;
pos = (372,0);
},
{
name = top;
pos = (372,735);
}
);
background = {
shapes = (
{
closed = 1;
nodes = (
(597,-3,o),
(611,11,o),
(611,29,c),
(611,34,o),
(609,40,o),
(607,44,c),
(193,762,l),
(187,773,o),
(177,779,o),
(165,779,c),
(147,779,o),
(133,765,o),
(133,747,c),
(133,742,o),
(135,736,o),
(137,732,c),
(551,14,l),
(557,3,o),
(567,-3,o),
(579,-3,c)
);
},
{
closed = 1;
nodes = (
(167,-5,o),
(182,10,o),
(182,27,c),
(196,747,l),
(196,764,o),
(182,779,o),
(164,779,c),
(146,779,o),
(132,764,o),
(132,747,c),
(117,28,l),
(117,10,o),
(131,-5,o),
(150,-5,c)
);
},
{
closed = 1;
nodes = (
(598,-4,o),
(612,11,o),
(612,28,c),
(625,747,l),
(625,765,o),
(611,780,o),
(592,780,c),
(575,780,o),
(560,765,o),
(560,748,c),
(548,28,l),
(548,11,o),
(562,-4,o),
(580,-4,c)
);
}
);
};
layerId = m005;
shapes = (
{
closed = 1;
nodes = (
(167,-5,o),
(182,10,o),
(182,27,cs),
(196,747,l),
(137,732,l),
(555,8,ls),
(560,0,o),
(570,-4,o),
(580,-4,cs),
(598,-4,o),
(612,11,o),
(612,28,cs),
(625,747,ls),
(625,765,o),
(611,780,o),
(592,780,cs),
(575,780,o),
(560,765,o),
(560,748,cs),
(548,28,l),
(607,44,l),
(193,762,ls),
(187,773,o),
(176,779,o),
(164,779,cs),
(146,779,o),
(132,764,o),
(132,747,cs),
(117,28,ls),
(117,10,o),
(131,-5,o),
(150,-5,cs)
);
},
{
alignment = -1;
ref = _GuideLine;
scale = (1.49,1);
}
);
width = 743;
}
);
unicode = 78;
},
{
color = 9;
glyphname = O;
kernLeft = O;
kernRight = O;
lastChange = "2025-12-04 18:29:11 +0000";
layers = (
{
anchors = (
{
name = bottom;
pos = (409,0);
},
{
name = center;
pos = (409,360);
},
{
name = ogonek;
pos = (534,65);
},
{
name = top;
pos = (429,735);
},
{
name = topleft;
pos = (59,720);
},
{
name = topright;
pos = (758,720);
}
);
background = {
shapes = (
{
closed = 0;
nodes = (
(243,170,l),
(202,170,o),
(159,203,o),
(153,265,cs),
(136,463,o),
(238,700,o),
(436,700,cs),
(585,700,o),
(663,578,o),
(675,435,cs),
(692,237,o),
(585,0,o),
(381,0,cs),
(303,0,o),
(241,30,o),
(202,77,c)
);
}
);
};
layerId = "6F9C6BB4-2DCF-443B-A55D-9CE049090094";
shapes = (
{
closed = 1;
nodes = (
(609,-4,o),
(726,226,o),
(721,436,cs),
(718,624,o),
(617,780,o),
(432,780,cs),
(210,780,o),
(93,551,o),
(98,341,cs),
(101,154,o),
(203,-4,o),
(387,-4,cs)
);
},
{
closed = 1;
nodes = (
(246,56,o),
(165,179,o),
(162,343,cs),
(159,526,o),
(257,720,o),
(432,720,cs),
(573,720,o),
(654,599,o),
(657,434,cs),
(660,251,o),
(562,56,o),
(387,56,cs)
);
}
);
width = 819;
},
{
anchors = (
{
name = bottom;
pos = (409,0);
},
{
name = center;
pos = (409,360);
},
{
name = ogonek;
pos = (534,65);
},
{
name = top;
pos = (429,735);
},
{
name = topleft;
pos = (59,720);
},
{
name = topright;
pos = (758,720);
}
);
background = {
shapes = (
{
closed = 0;
nodes = (
(243,170,l),
(202,170,o),
(159,203,o),
(153,265,cs),
(136,463,o),
(238,700,o),
(436,700,cs),
(585,700,o),
(663,578,o),
(675,435,cs),
(692,237,o),
(585,0,o),
(381,0,cs),
(303,0,o),
(241,30,o),
(202,77,c)
);
}
);
};
layerId = m002;
shapes = (
{
closed = 1;
nodes = (
(609,-4,o),
(726,226,o),
(721,436,cs),
(718,624,o),
(617,780,o),
(432,780,cs),
(210,780,o),
(93,551,o),
(98,341,cs),
(101,154,o),
(203,-4,o),
(387,-4,cs)
);
},
{
alignment = -1;
ref = _GuideLine;
scale = (1.64,1);
},
{
closed = 1;
nodes = (
(246,56,o),
(165,179,o),
(162,343,cs),
(159,526,o),
(257,720,o),
(432,720,cs),
(573,720,o),
(654,599,o),
(657,434,cs),
(660,251,o),
(562,56,o),
(387,56,cs)
);
}
);
width = 819;
},
{
anchors = (
{
name = bottom;
pos = (409,0);
},
{
name = center;
pos = (409,360);
},
{
name = ogonek;
pos = (704,10);
},
{
name = top;
pos = (429,735);
},
{
name = topleft;
pos = (59,720);
},
{
name = topright;
pos = (758,720);
}
);
background = {
shapes = (
{
closed = 0;
nodes = (
(243,170,l),
(202,170,o),
(159,203,o),
(153,265,cs),
(136,463,o),
(238,700,o),
(436,700,cs),
(585,700,o),
(663,578,o),
(675,435,cs),
(692,237,o),
(585,0,o),
(381,0,cs),
(303,0,o),
(241,30,o),
(202,77,c)
);
}
);
};
layerId = "F3447581-435E-44E2-ABAC-414C89955411";
shapes = (
{
closed = 1;
nodes = (
(609,-4,o),
(726,226,o),
(721,436,cs),
(718,624,o),
(617,780,o),
(432,780,cs),
(210,780,o),
(93,551,o),
(98,341,cs),
(101,154,o),
(203,-4,o),
(387,-4,cs)
);
},
{
closed = 1;
nodes = (
(246,56,o),
(165,179,o),
(162,343,cs),
(159,526,o),
(257,720,o),
(432,720,cs),
(573,720,o),
(654,599,o),
(657,434,cs),
(660,251,o),
(562,56,o),
(387,56,cs)
);
}
);
width = 819;
},
{
anchors = (
{
name = bottom;
pos = (409,0);
},
{
name = center;
pos = (409,360);
},
{
name = ogonek;
pos = (534,65);
},
{
name = top;
pos = (429,735);
},
{
name = topleft;
pos = (59,720);
},
{
name = topright;
pos = (758,720);
}
);
background = {
shapes = (
{
closed = 0;
nodes = (
(243,170,l),
(202,170,o),
(159,203,o),
(153,265,cs),
(136,463,o),
(238,700,o),
(436,700,cs),
(585,700,o),
(663,578,o),
(675,435,cs),
(692,237,o),
(585,0,o),
(381,0,cs),
(303,0,o),
(241,30,o),
(202,77,c)
);
}
);
};
layerId = m004;
shapes = (
{
alignment = -1;
ref = _GuideLine;
scale = (1.64,1);
}
);
width = 819;
},
{
anchors = (
{
name = bottom;
pos = (409,0);
},
{
name = center;
pos = (409,360);
},
{
name = ogonek;
pos = (534,65);
},
{
name = top;
pos = (429,735);
},
{
name = topleft;
pos = (59,720);
},
{
name = topright;
pos = (758,720);
}
);
background = {
shapes = (
{
closed = 0;
nodes = (
(243,170,l),
(202,170,o),
(159,203,o),
(153,265,cs),
(136,463,o),
(238,700,o),
(436,700,cs),
(585,700,o),
(663,578,o),
(675,435,cs),
(692,237,o),
(585,0,o),
(381,0,cs),
(303,0,o),
(241,30,o),
(202,77,c)
);
}
);
};
layerId = m005;
shapes = (
{
closed = 1;
nodes = (
(609,-4,o),
(726,226,o),
(721,436,cs),
(718,624,o),
(617,780,o),
(432,780,cs),
(210,780,o),
(93,551,o),
(98,341,cs),
(101,154,o),
(203,-4,o),
(387,-4,cs)
);
},
{
alignment = -1;
ref = _GuideLine;
scale = (1.64,1);
},
{
closed = 1;
nodes = (
(246,56,o),
(165,179,o),
(162,343,cs),
(159,526,o),
(257,720,o),
(432,720,cs),
(573,720,o),
(654,599,o),
(657,434,cs),
(660,251,o),
(562,56,o),
(387,56,cs)
);
}
);
width = 819;
}
);
unicode = 79;
},
{
color = 9;
glyphname = Oslash;
kernLeft = O;
kernRight = O;
lastChange = "2025-12-04 14:42:42 +0000";
layers = (
{
layerId = "6F9C6BB4-2DCF-443B-A55D-9CE049090094";
shapes = (
{
attr = {
identifier = ID0x7fadb183f0a0;
};
closed = 1;
nodes = (
(117,-27,o),
(124,-23,o),
(129,-16,c),
(745,725,l),
(748,729,o),
(751,735,o),
(751,741,c),
(751,756,o),
(739,768,o),
(724,768,c),
(715,768,o),
(708,764,o),
(703,757,c),
(87,16,l),
(84,12,o),
(81,6,o),
(81,0,c),
(81,-15,o),
(93,-27,o),
(108,-27,c)
);
},
{
pos = (1,0);
ref = O;
}
);
width = 807;
},
{
layerId = m002;
shapes = (
{
attr = {
identifier = ID0x7fadb183f0a0;
};
closed = 1;
nodes = (
(117,-27,o),
(124,-23,o),
(129,-16,c),
(745,725,l),
(748,729,o),
(751,735,o),
(751,741,c),
(751,756,o),
(739,768,o),
(724,768,c),
(715,768,o),
(708,764,o),
(703,757,c),
(87,16,l),
(84,12,o),
(81,6,o),
(81,0,c),
(81,-15,o),
(93,-27,o),
(108,-27,c)
);
},
{
pos = (1,0);
ref = O;
}
);
width = 807;
},
{
layerId = "F3447581-435E-44E2-ABAC-414C89955411";
shapes = (
{
attr = {
identifier = ID0x7fadb183f0a0;
};
closed = 1;
nodes = (
(117,-27,o),
(124,-23,o),
(129,-16,c),
(745,725,l),
(748,729,o),
(751,735,o),
(751,741,c),
(751,756,o),
(739,768,o),
(724,768,c),
(715,768,o),
(708,764,o),
(703,757,c),
(87,16,l),
(84,12,o),
(81,6,o),
(81,0,c),
(81,-15,o),
(93,-27,o),
(108,-27,c)
);
},
{
pos = (1,0);
ref = O;
}
);
width = 807;
},
{
layerId = m004;
shapes = (
{
ref = O;
}
);
width = 819;
},
{
layerId = m005;
shapes = (
{
attr = {
identifier = ID0x7fadb183f0a0;
};
closed = 1;
nodes = (
(117,-27,o),
(124,-23,o),
(129,-16,c),
(745,725,l),
(748,729,o),
(751,735,o),
(751,741,c),
(751,756,o),
(739,768,o),
(724,768,c),
(715,768,o),
(708,764,o),
(703,757,c),
(87,16,l),
(84,12,o),
(81,6,o),
(81,0,c),
(81,-15,o),
(93,-27,o),
(108,-27,c)
);
},
{
pos = (1,0);
ref = O;
}
);
width = 807;
}
);
unicode = 216;
},
{
color = 9;
glyphname = OE;
kernLeft = O;
kernRight = E;
lastChange = "2025-12-04 14:42:42 +0000";
layers = (
{
anchors = (
{
name = bottom;
pos = (474,0);
},
{
name = top;
pos = (474,735);
}
);
background = {
shapes = (
{
attr = {
identifier = ID0x7fe542542670;
};
closed = 1;
nodes = (
(514,742,o),
(461,759,o),
(402,759,c),
(181,759,o),
(64,537,o),
(69,331,c),
(73,148,o),
(174,-5,o),
(357,-5,c),
(431,-5,o),
(495,23,o),
(544,63,c),
(551,69,o),
(554,77,o),
(554,86,c),
(554,103,o),
(540,117,o),
(523,117,c),
(515,117,o),
(508,114,o),
(502,109,c),
(463,77,o),
(413,55,o),
(357,55,c),
(216,55,o),
(137,174,o),
(133,333,c),
(130,512,o),
(227,699,o),
(402,699,c),
(448,699,o),
(484,688,o),
(518,665,c),
(522,662,o),
(529,659,o),
(536,659,c),
(553,659,o),
(567,673,o),
(567,690,c),
(567,700,o),
(561,710,o),
(554,715,c)
);
},
{
attr = {
identifier = ID0x7fadae80b090;
};
closed = 1;
nodes = (
(504,754,l),
(488,0,l),
(827,0,l),
(844,0,o),
(857,13,o),
(857,30,c),
(857,47,o),
(844,60,o),
(827,60,c),
(554,60,l),
(568,694,l),
(830,694,l),
(847,694,o),
(860,707,o),
(860,724,c),
(860,741,o),
(847,754,o),
(830,754,c)
);
},
{
attr = {
identifier = ID0x7fadae80b090;
};
closed = 1;
nodes = (
(529,399,l),
(512,399,o),
(499,386,o),
(499,369,c),
(499,352,o),
(512,339,o),
(529,339,c),
(793,339,l),
(810,339,o),
(823,352,o),
(823,369,c),
(823,386,o),
(810,399,o),
(793,399,c)
);
}
);
};
layerId = "6F9C6BB4-2DCF-443B-A55D-9CE049090094";
shapes = (
{
attr = {
identifier = ID0x7fe542542670;
};
closed = 1;
nodes = (
(431,-5,o),
(495,23,o),
(544,63,c),
(502,109,l),
(463,77,o),
(413,55,o),
(357,55,cs),
(216,55,o),
(137,179,o),
(133,338,cs),
(128,517,o),
(227,720,o),
(402,720,cs),
(448,720,o),
(484,709,o),
(518,686,c),
(554,736,l),
(514,763,o),
(461,780,o),
(402,780,cs),
(181,780,o),
(64,542,o),
(69,336,cs),
(73,153,o),
(174,-5,o),
(357,-5,cs)
);
},
{
pos = (371,0);
ref = E;
}
);
width = 947;
},
{
anchors = (
{
name = bottom;
pos = (474,0);
},
{
name = top;
pos = (474,735);
}
);
background = {
shapes = (
{
attr = {
identifier = ID0x7fadae80b090;
lineCapEnd = 1;
lineCapStart = 1;
};
closed = 0;
nodes = (
(813,0,l),
(519,0,l),
(533,700,l),
(816,700,l)
);
},
{
attr = {
identifier = ID0x7fadae80b090;
lineCapEnd = 1;
lineCapStart = 1;
};
closed = 0;
nodes = (
(526,344,l),
(780,344,l)
);
},
{
attr = {
identifier = ID0x7fe542542670;
lineCapEnd = 1;
lineCapStart = 1;
};
closed = 1;
nodes = (
(560,700,o),
(647,565,o),
(650,394,cs),
(654,205,o),
(551,0,o),
(361,0,cs),
(205,0,o),
(118,135,o),
(115,306,cs),
(111,495,o),
(214,700,o),
(404,700,cs)
);
}
);
};
layerId = m002;
shapes = (
{
attr = {
identifier = ID0x7fe542542670;
};
closed = 1;
nodes = (
(431,-5,o),
(495,23,o),
(544,63,c),
(502,109,l),
(463,77,o),
(413,55,o),
(357,55,cs),
(216,55,o),
(137,179,o),
(133,338,cs),
(128,517,o),
(227,720,o),
(402,720,cs),
(448,720,o),
(484,709,o),
(518,686,c),
(554,736,l),
(514,763,o),
(461,780,o),
(402,780,cs),
(181,780,o),
(64,542,o),
(69,336,cs),
(73,153,o),
(174,-5,o),
(357,-5,cs)
);
},
{
alignment = -1;
ref = _GuideLine;
scale = (1.9,1);
},
{
pos = (371,0);
ref = E;
}
);
width = 947;
},
{
anchors = (
{
name = bottom;
pos = (474,0);
},
{
name = top;
pos = (474,735);
}
);
background = {
shapes = (
{
attr = {
identifier = ID0x7fadae80b090;
lineCapEnd = 1;
lineCapStart = 1;
};
closed = 0;
nodes = (
(813,0,l),
(519,0,l),
(533,700,l),
(816,700,l)
);
},
{
attr = {
identifier = ID0x7fadae80b090;
lineCapEnd = 1;
lineCapStart = 1;
};
closed = 0;
nodes = (
(526,344,l),
(780,344,l)
);
},
{
attr = {
identifier = ID0x7fe542542670;
lineCapEnd = 1;
lineCapStart = 1;
};
closed = 1;
nodes = (
(560,700,o),
(647,565,o),
(650,394,cs),
(654,205,o),
(551,0,o),
(361,0,cs),
(205,0,o),
(118,135,o),
(115,306,cs),
(111,495,o),
(214,700,o),
(404,700,cs)
);
}
);
};
layerId = "F3447581-435E-44E2-ABAC-414C89955411";
shapes = (
{
attr = {
identifier = ID0x7fe542542670;
};
closed = 1;
nodes = (
(431,-5,o),
(495,23,o),
(544,63,c),
(502,109,l),
(463,77,o),
(413,55,o),
(357,55,cs),
(216,55,o),
(137,179,o),
(133,338,cs),
(128,517,o),
(227,720,o),
(402,720,cs),
(448,720,o),
(484,709,o),
(518,686,c),
(554,736,l),
(514,763,o),
(461,780,o),
(402,780,cs),
(181,780,o),
(64,542,o),
(69,336,cs),
(73,153,o),
(174,-5,o),
(357,-5,cs)
);
},
{
pos = (371,0);
ref = E;
}
);
width = 947;
},
{
anchors = (
{
name = bottom;
pos = (474,0);
},
{
name = top;
pos = (474,735);
}
);
background = {
shapes = (
{
attr = {
identifier = ID0x7fadae80b090;
lineCapEnd = 1;
lineCapStart = 1;
};
closed = 0;
nodes = (
(813,0,l),
(519,0,l),
(533,700,l),
(816,700,l)
);
},
{
attr = {
identifier = ID0x7fadae80b090;
lineCapEnd = 1;
lineCapStart = 1;
};
closed = 0;
nodes = (
(526,344,l),
(780,344,l)
);
},
{
attr = {
identifier = ID0x7fe542542670;
lineCapEnd = 1;
lineCapStart = 1;
};
closed = 1;
nodes = (
(560,700,o),
(647,565,o),
(650,394,cs),
(654,205,o),
(551,0,o),
(361,0,cs),
(205,0,o),
(118,135,o),
(115,306,cs),
(111,495,o),
(214,700,o),
(404,700,cs)
);
},
{
attr = {
identifier = ID0x7fe542542670;
};
closed = 1;
nodes = (
(514,763,o),
(461,780,o),
(402,780,cs),
(181,780,o),
(64,542,o),
(69,336,cs),
(73,153,o),
(174,-5,o),
(357,-5,cs),
(431,-5,o),
(495,23,o),
(544,63,c),
(502,109,l),
(463,77,o),
(413,55,o),
(357,55,cs),
(216,55,o),
(137,179,o),
(133,338,cs),
(128,517,o),
(227,720,o),
(402,720,cs),
(448,720,o),
(484,709,o),
(518,686,c),
(554,736,l)
);
},
{
pos = (371,0);
ref = E;
}
);
};
layerId = m004;
shapes = (
{
alignment = -1;
ref = _GuideLine;
scale = (2.0831,1);
}
);
width = 1036;
},
{
anchors = (
{
name = bottom;
pos = (474,0);
},
{
name = top;
pos = (474,735);
}
);
background = {
shapes = (
{
attr = {
identifier = ID0x7fadae80b090;
lineCapEnd = 1;
lineCapStart = 1;
};
closed = 0;
nodes = (
(813,0,l),
(519,0,l),
(533,700,l),
(816,700,l)
);
},
{
attr = {
identifier = ID0x7fadae80b090;
lineCapEnd = 1;
lineCapStart = 1;
};
closed = 0;
nodes = (
(526,344,l),
(780,344,l)
);
},
{
attr = {
identifier = ID0x7fe542542670;
lineCapEnd = 1;
lineCapStart = 1;
};
closed = 1;
nodes = (
(560,700,o),
(647,565,o),
(650,394,cs),
(654,205,o),
(551,0,o),
(361,0,cs),
(205,0,o),
(118,135,o),
(115,306,cs),
(111,495,o),
(214,700,o),
(404,700,cs)
);
}
);
};
layerId = m005;
shapes = (
{
attr = {
identifier = ID0x7fe542542670;
};
closed = 1;
nodes = (
(431,-5,o),
(495,23,o),
(544,63,c),
(502,109,l),
(463,77,o),
(413,55,o),
(357,55,cs),
(216,55,o),
(137,179,o),
(133,338,cs),
(128,517,o),
(227,720,o),
(402,720,cs),
(448,720,o),
(484,709,o),
(518,686,c),
(554,736,l),
(514,763,o),
(461,780,o),
(402,780,cs),
(181,780,o),
(64,542,o),
(69,336,cs),
(73,153,o),
(174,-5,o),
(357,-5,cs)
);
},
{
alignment = -1;
ref = _GuideLine;
scale = (1.9,1);
},
{
pos = (371,0);
ref = E;
}
);
width = 947;
}
);
unicode = 338;
},
{
color = 9;
glyphname = P;
kernLeft = H;
kernRight = F;
lastChange = "2025-12-04 18:29:11 +0000";
layers = (
{
background = {
shapes = (
{
pos = (89,0);
ref = B;
}
);
};
layerId = "6F9C6BB4-2DCF-443B-A55D-9CE049090094";
shapes = (
{
closed = 1;
nodes = (
(167,-5,o),
(182,10,o),
(182,27,cs),
(198,742,l),
(170,715,l),
(338,715,ls),
(439,715,o),
(485,674,o),
(485,588,cs),
(485,464,o),
(368,377,o),
(160,377,c),
(164,318,l),
(400,318,o),
(550,427,o),
(550,588,cs),
(550,708,o),
(473,775,o),
(338,775,cs),
(106,775,l),
(134,802,l),
(117,28,ls),
(117,10,o),
(131,-5,o),
(150,-5,cs)
);
}
);
width = 633;
},
{
background = {
shapes = (
{
closed = 1;
nodes = (
(410,325,o),
(550,432,o),
(550,587,c),
(550,707,o),
(473,774,o),
(338,774,c),
(133,774,l),
(117,28,l),
(117,10,o),
(131,-5,o),
(150,-5,c),
(167,-5,o),
(182,10,o),
(182,27,c),
(197,714,l),
(338,714,l),
(439,714,o),
(485,673,o),
(485,587,c),
(485,468,o),
(378,383,o),
(186,376,c),
(170,376,o),
(157,363,o),
(157,346,c),
(157,330,o),
(170,316,o),
(188,317,c)
);
}
);
};
layerId = m002;
shapes = (
{
closed = 1;
nodes = (
(167,-5,o),
(182,10,o),
(182,27,cs),
(198,742,l),
(170,715,l),
(338,715,ls),
(439,715,o),
(485,674,o),
(485,588,cs),
(485,464,o),
(368,377,o),
(160,377,c),
(164,318,l),
(400,318,o),
(550,427,o),
(550,588,cs),
(550,708,o),
(473,775,o),
(338,775,cs),
(106,775,l),
(134,802,l),
(117,28,ls),
(117,10,o),
(131,-5,o),
(150,-5,cs)
);
},
{
alignment = -1;
ref = _GuideLine;
scale = (1.29,1);
}
);
width = 633;
},
{
background = {
shapes = (
{
closed = 1;
nodes = (
(410,325,o),
(550,432,o),
(550,587,c),
(550,707,o),
(473,774,o),
(338,774,c),
(133,774,l),
(117,28,l),
(117,10,o),
(131,-5,o),
(150,-5,c),
(167,-5,o),
(182,10,o),
(182,27,c),
(197,714,l),
(338,714,l),
(439,714,o),
(485,673,o),
(485,587,c),
(485,468,o),
(378,383,o),
(186,376,c),
(170,376,o),
(157,363,o),
(157,346,c),
(157,330,o),
(170,316,o),
(188,317,c)
);
}
);
};
layerId = "F3447581-435E-44E2-ABAC-414C89955411";
shapes = (
{
closed = 1;
nodes = (
(167,-5,o),
(182,10,o),
(182,27,cs),
(198,742,l),
(170,715,l),
(338,715,ls),
(439,715,o),
(485,674,o),
(485,588,cs),
(485,464,o),
(368,377,o),
(160,377,c),
(164,318,l),
(400,318,o),
(550,427,o),
(550,588,cs),
(550,708,o),
(473,775,o),
(338,775,cs),
(106,775,l),
(134,802,l),
(117,28,ls),
(117,10,o),
(131,-5,o),
(150,-5,cs)
);
}
);
width = 633;
},
{
background = {
shapes = (
{
pos = (89,0);
ref = B;
},
{
closed = 1;
nodes = (
(400,318,o),
(550,427,o),
(550,588,cs),
(550,708,o),
(473,775,o),
(338,775,cs),
(106,775,l),
(134,802,l),
(117,28,ls),
(117,10,o),
(131,-5,o),
(150,-5,cs),
(167,-5,o),
(182,10,o),
(182,27,cs),
(198,742,l),
(170,715,l),
(338,715,ls),
(439,715,o),
(485,674,o),
(485,588,cs),
(485,464,o),
(368,377,o),
(160,377,c),
(164,318,l)
);
}
);
};
layerId = m004;
shapes = (
{
alignment = -1;
ref = _GuideLine;
scale = (1.29,1);
}
);
width = 633;
},
{
background = {
shapes = (
{
closed = 1;
nodes = (
(410,325,o),
(550,432,o),
(550,587,c),
(550,707,o),
(473,774,o),
(338,774,c),
(133,774,l),
(117,28,l),
(117,10,o),
(131,-5,o),
(150,-5,c),
(167,-5,o),
(182,10,o),
(182,27,c),
(197,714,l),
(338,714,l),
(439,714,o),
(485,673,o),
(485,587,c),
(485,468,o),
(378,383,o),
(186,376,c),
(170,376,o),
(157,363,o),
(157,346,c),
(157,330,o),
(170,316,o),
(188,317,c)
);
}
);
};
layerId = m005;
shapes = (
{
closed = 1;
nodes = (
(167,-5,o),
(182,10,o),
(182,27,cs),
(198,742,l),
(170,715,l),
(338,715,ls),
(439,715,o),
(485,674,o),
(485,588,cs),
(485,464,o),
(368,377,o),
(160,377,c),
(164,318,l),
(400,318,o),
(550,427,o),
(550,588,cs),
(550,708,o),
(473,775,o),
(338,775,cs),
(106,775,l),
(134,802,l),
(117,28,ls),
(117,10,o),
(131,-5,o),
(150,-5,cs)
);
},
{
alignment = -1;
ref = _GuideLine;
scale = (1.29,1);
}
);
width = 633;
}
);
unicode = 80;
},
{
color = 9;
glyphname = Thorn;
kernLeft = H;
kernRight = Thorn;
lastChange = "2025-12-04 18:29:11 +0000";
layers = (
{
layerId = "6F9C6BB4-2DCF-443B-A55D-9CE049090094";
shapes = (
{
attr = {
identifier = ID0x7fadab497160;
};
closed = 1;
nodes = (
(370,141,o),
(521,255,o),
(521,419,c),
(521,543,o),
(445,612,o),
(309,612,c),
(136,612,l),
(119,612,o),
(106,599,o),
(106,582,c),
(106,565,o),
(119,552,o),
(136,552,c),
(309,552,l),
(409,552,o),
(456,509,o),
(456,419,c),
(456,291,o),
(338,201,o),
(131,201,c),
(114,201,o),
(101,188,o),
(101,171,c),
(101,154,o),
(114,141,o),
(131,141,c)
);
},
{
attr = {
identifier = ID0x7fadab497160;
};
closed = 1;
nodes = (
(138,-5,o),
(153,10,o),
(153,27,c),
(168,726,l),
(168,744,o),
(154,759,o),
(135,759,c),
(118,759,o),
(103,744,o),
(103,727,c),
(88,28,l),
(88,10,o),
(102,-5,o),
(121,-5,c)
);
}
);
width = 585;
},
{
layerId = m002;
shapes = (
{
attr = {
identifier = ID0x7fadab497160;
};
closed = 1;
nodes = (
(370,141,o),
(521,255,o),
(521,419,c),
(521,543,o),
(445,612,o),
(309,612,c),
(136,612,l),
(119,612,o),
(106,599,o),
(106,582,c),
(106,565,o),
(119,552,o),
(136,552,c),
(309,552,l),
(409,552,o),
(456,509,o),
(456,419,c),
(456,291,o),
(338,201,o),
(131,201,c),
(114,201,o),
(101,188,o),
(101,171,c),
(101,154,o),
(114,141,o),
(131,141,c)
);
},
{
alignment = -1;
ref = _GuideLine;
scale = (1.17,1);
},
{
attr = {
identifier = ID0x7fadab497160;
};
closed = 1;
nodes = (
(138,-5,o),
(153,10,o),
(153,27,c),
(168,726,l),
(168,744,o),
(154,759,o),
(135,759,c),
(118,759,o),
(103,744,o),
(103,727,c),
(88,28,l),
(88,10,o),
(102,-5,o),
(121,-5,c)
);
}
);
width = 585;
},
{
layerId = "F3447581-435E-44E2-ABAC-414C89955411";
shapes = (
{
attr = {
identifier = ID0x7fadab497160;
};
closed = 1;
nodes = (
(370,141,o),
(521,255,o),
(521,419,c),
(521,543,o),
(445,612,o),
(309,612,c),
(136,612,l),
(119,612,o),
(106,599,o),
(106,582,c),
(106,565,o),
(119,552,o),
(136,552,c),
(309,552,l),
(409,552,o),
(456,509,o),
(456,419,c),
(456,291,o),
(338,201,o),
(131,201,c),
(114,201,o),
(101,188,o),
(101,171,c),
(101,154,o),
(114,141,o),
(131,141,c)
);
},
{
attr = {
identifier = ID0x7fadab497160;
};
closed = 1;
nodes = (
(138,-5,o),
(153,10,o),
(153,27,c),
(168,726,l),
(168,744,o),
(154,759,o),
(135,759,c),
(118,759,o),
(103,744,o),
(103,727,c),
(88,28,l),
(88,10,o),
(102,-5,o),
(121,-5,c)
);
}
);
width = 585;
},
{
layerId = m004;
shapes = (
{
alignment = -1;
ref = _GuideLine;
scale = (1.17,1);
}
);
width = 585;
},
{
layerId = m005;
shapes = (
{
attr = {
identifier = ID0x7fadab497160;
};
closed = 1;
nodes = (
(370,141,o),
(521,255,o),
(521,419,c),
(521,543,o),
(445,612,o),
(309,612,c),
(136,612,l),
(119,612,o),
(106,599,o),
(106,582,c),
(106,565,o),
(119,552,o),
(136,552,c),
(309,552,l),
(409,552,o),
(456,509,o),
(456,419,c),
(456,291,o),
(338,201,o),
(131,201,c),
(114,201,o),
(101,188,o),
(101,171,c),
(101,154,o),
(114,141,o),
(131,141,c)
);
},
{
alignment = -1;
ref = _GuideLine;
scale = (1.17,1);
},
{
attr = {
identifier = ID0x7fadab497160;
};
closed = 1;
nodes = (
(138,-5,o),
(153,10,o),
(153,27,c),
(168,726,l),
(168,744,o),
(154,759,o),
(135,759,c),
(118,759,o),
(103,744,o),
(103,727,c),
(88,28,l),
(88,10,o),
(102,-5,o),
(121,-5,c)
);
}
);
width = 585;
}
);
unicode = 222;
},
{
color = 9;
glyphname = Q;
kernLeft = O;
kernRight = Q;
lastChange = "2025-12-04 14:42:42 +0000";
layers = (
{
background = {
shapes = (
{
closed = 0;
nodes = (
(527,500,l),
(593,500,o),
(623,449,o),
(623,383,cs),
(623,226,o),
(519,0,o),
(344,0,cs),
(188,0,o),
(103,135,o),
(103,306,cs),
(103,495,o),
(209,700,o),
(399,700,cs),
(477,700,o),
(539,670,o),
(578,623,cs)
);
}
);
};
layerId = "6F9C6BB4-2DCF-443B-A55D-9CE049090094";
shapes = (
{
closed = 1;
nodes = (
(657,-88,o),
(671,-74,o),
(671,-57,c),
(671,-49,o),
(669,-43,o),
(664,-37,c),
(412,241,l),
(407,247,o),
(398,252,o),
(388,252,c),
(371,252,o),
(357,238,o),
(357,221,c),
(357,213,o),
(359,207,o),
(364,201,c),
(616,-77,l),
(621,-83,o),
(630,-88,o),
(640,-88,c)
);
},
{
pos = (-2,0);
ref = O;
}
);
width = 758;
},
{
background = {
shapes = (
{
closed = 0;
nodes = (
(527,500,l),
(593,500,o),
(623,449,o),
(623,383,cs),
(623,226,o),
(519,0,o),
(344,0,cs),
(188,0,o),
(103,135,o),
(103,306,cs),
(103,495,o),
(209,700,o),
(399,700,cs),
(477,700,o),
(539,670,o),
(578,623,cs)
);
}
);
};
layerId = m002;
shapes = (
{
closed = 1;
nodes = (
(657,-88,o),
(671,-74,o),
(671,-57,c),
(671,-49,o),
(669,-43,o),
(664,-37,c),
(412,241,l),
(407,247,o),
(398,252,o),
(388,252,c),
(371,252,o),
(357,238,o),
(357,221,c),
(357,213,o),
(359,207,o),
(364,201,c),
(616,-77,l),
(621,-83,o),
(630,-88,o),
(640,-88,c)
);
},
{
pos = (-2,0);
ref = O;
}
);
width = 758;
},
{
background = {
shapes = (
{
closed = 0;
nodes = (
(527,500,l),
(593,500,o),
(623,449,o),
(623,383,cs),
(623,226,o),
(519,0,o),
(344,0,cs),
(188,0,o),
(103,135,o),
(103,306,cs),
(103,495,o),
(209,700,o),
(399,700,cs),
(477,700,o),
(539,670,o),
(578,623,cs)
);
}
);
};
layerId = "F3447581-435E-44E2-ABAC-414C89955411";
shapes = (
{
closed = 1;
nodes = (
(657,-88,o),
(671,-74,o),
(671,-57,c),
(671,-49,o),
(669,-43,o),
(664,-37,c),
(412,241,l),
(407,247,o),
(398,252,o),
(388,252,c),
(371,252,o),
(357,238,o),
(357,221,c),
(357,213,o),
(359,207,o),
(364,201,c),
(616,-77,l),
(621,-83,o),
(630,-88,o),
(640,-88,c)
);
},
{
pos = (-2,0);
ref = O;
}
);
width = 758;
},
{
anchors = (
{
name = bottom;
pos = (407,0);
},
{
name = center;
pos = (407,360);
},
{
name = ogonek;
pos = (532,65);
},
{
name = top;
pos = (427,735);
},
{
name = topleft;
pos = (57,720);
},
{
name = topright;
pos = (756,720);
}
);
background = {
shapes = (
{
closed = 0;
nodes = (
(527,500,l),
(593,500,o),
(623,449,o),
(623,383,cs),
(623,226,o),
(519,0,o),
(344,0,cs),
(188,0,o),
(103,135,o),
(103,306,cs),
(103,495,o),
(209,700,o),
(399,700,cs),
(477,700,o),
(539,670,o),
(578,623,cs)
);
}
);
};
layerId = m004;
shapes = (
{
alignment = -1;
pos = (-2,0);
ref = _GuideLine;
scale = (1.64,1);
}
);
width = 758;
},
{
background = {
shapes = (
{
closed = 0;
nodes = (
(527,500,l),
(593,500,o),
(623,449,o),
(623,383,cs),
(623,226,o),
(519,0,o),
(344,0,cs),
(188,0,o),
(103,135,o),
(103,306,cs),
(103,495,o),
(209,700,o),
(399,700,cs),
(477,700,o),
(539,670,o),
(578,623,cs)
);
}
);
};
layerId = m005;
shapes = (
{
closed = 1;
nodes = (
(657,-88,o),
(671,-74,o),
(671,-57,c),
(671,-49,o),
(669,-43,o),
(664,-37,c),
(412,241,l),
(407,247,o),
(398,252,o),
(388,252,c),
(371,252,o),
(357,238,o),
(357,221,c),
(357,213,o),
(359,207,o),
(364,201,c),
(616,-77,l),
(621,-83,o),
(630,-88,o),
(640,-88,c)
);
},
{
pos = (-2,0);
ref = O;
}
);
width = 758;
}
);
unicode = 81;
},
{
color = 9;
glyphname = R;
kernLeft = H;
kernRight = R;
lastChange = "2025-12-04 18:29:11 +0000";
layers = (
{
background = {
shapes = (
{
pos = (89,0);
ref = B;
}
);
};
layerId = "6F9C6BB4-2DCF-443B-A55D-9CE049090094";
shapes = (
{
closed = 1;
nodes = (
(167,-5,o),
(182,10,o),
(182,27,cs),
(197,742,l),
(169,715,l),
(343,715,ls),
(434,715,o),
(486,684,o),
(486,613,cs),
(486,487,o),
(381,406,o),
(159,407,c),
(163,347,l),
(417,348,o),
(551,451,o),
(551,613,cs),
(551,725,o),
(461,775,o),
(343,775,cs),
(105,775,l),
(133,802,l),
(117,28,ls),
(117,10,o),
(131,-5,o),
(150,-5,cs)
);
},
{
closed = 1;
nodes = (
(587,-5,o),
(601,9,o),
(601,26,cs),
(601,35,o),
(597,43,o),
(592,48,cs),
(223,394,l),
(179,350,l),
(548,4,ls),
(553,-1,o),
(561,-5,o),
(570,-5,cs)
);
}
);
width = 687;
},
{
background = {
shapes = (
{
closed = 1;
nodes = (
(426,354,o),
(551,456,o),
(551,612,c),
(551,724,o),
(461,774,o),
(343,774,c),
(132,774,l),
(117,28,l),
(117,10,o),
(131,-5,o),
(150,-5,c),
(167,-5,o),
(182,10,o),
(182,27,c),
(196,714,l),
(343,714,l),
(434,714,o),
(486,683,o),
(486,612,c),
(486,491,o),
(390,412,o),
(187,406,c),
(171,406,o),
(158,393,o),
(158,376,c),
(158,360,o),
(173,346,o),
(189,346,c)
);
},
{
closed = 1;
nodes = (
(223,395,l),
(218,400,o),
(210,404,o),
(201,404,c),
(184,404,o),
(170,390,o),
(170,373,c),
(170,364,o),
(174,356,o),
(179,351,c),
(548,5,l),
(553,0,o),
(561,-4,o),
(570,-4,c),
(587,-4,o),
(601,10,o),
(601,27,c),
(601,36,o),
(597,44,o),
(592,49,c)
);
}
);
};
layerId = m002;
shapes = (
{
closed = 1;
nodes = (
(167,-5,o),
(182,10,o),
(182,27,cs),
(197,742,l),
(169,715,l),
(343,715,ls),
(434,715,o),
(486,684,o),
(486,613,cs),
(486,487,o),
(381,406,o),
(159,407,c),
(163,347,l),
(417,348,o),
(551,451,o),
(551,613,cs),
(551,725,o),
(461,775,o),
(343,775,cs),
(105,775,l),
(133,802,l),
(117,28,ls),
(117,10,o),
(131,-5,o),
(150,-5,cs)
);
},
{
alignment = -1;
ref = _GuideLine;
scale = (1.38,1);
},
{
closed = 1;
nodes = (
(587,-5,o),
(601,9,o),
(601,26,cs),
(601,35,o),
(597,43,o),
(592,48,cs),
(223,394,l),
(179,350,l),
(548,4,ls),
(553,-1,o),
(561,-5,o),
(570,-5,cs)
);
}
);
width = 687;
},
{
background = {
shapes = (
{
closed = 1;
nodes = (
(426,354,o),
(551,456,o),
(551,612,c),
(551,724,o),
(461,774,o),
(343,774,c),
(132,774,l),
(117,28,l),
(117,10,o),
(131,-5,o),
(150,-5,c),
(167,-5,o),
(182,10,o),
(182,27,c),
(196,714,l),
(343,714,l),
(434,714,o),
(486,683,o),
(486,612,c),
(486,491,o),
(390,412,o),
(187,406,c),
(171,406,o),
(158,393,o),
(158,376,c),
(158,360,o),
(173,346,o),
(189,346,c)
);
},
{
closed = 1;
nodes = (
(223,395,l),
(218,400,o),
(210,404,o),
(201,404,c),
(184,404,o),
(170,390,o),
(170,373,c),
(170,364,o),
(174,356,o),
(179,351,c),
(548,5,l),
(553,0,o),
(561,-4,o),
(570,-4,c),
(587,-4,o),
(601,10,o),
(601,27,c),
(601,36,o),
(597,44,o),
(592,49,c)
);
}
);
};
layerId = "F3447581-435E-44E2-ABAC-414C89955411";
shapes = (
{
closed = 1;
nodes = (
(167,-5,o),
(182,10,o),
(182,27,cs),
(197,742,l),
(169,715,l),
(343,715,ls),
(434,715,o),
(486,684,o),
(486,613,cs),
(486,487,o),
(381,406,o),
(159,407,c),
(163,347,l),
(417,348,o),
(551,451,o),
(551,613,cs),
(551,725,o),
(461,775,o),
(343,775,cs),
(105,775,l),
(133,802,l),
(117,28,ls),
(117,10,o),
(131,-5,o),
(150,-5,cs)
);
},
{
closed = 1;
nodes = (
(587,-5,o),
(601,9,o),
(601,26,cs),
(601,35,o),
(597,43,o),
(592,48,cs),
(223,394,l),
(179,350,l),
(548,4,ls),
(553,-1,o),
(561,-5,o),
(570,-5,cs)
);
}
);
width = 687;
},
{
background = {
shapes = (
{
pos = (89,0);
ref = B;
},
{
closed = 1;
nodes = (
(417,348,o),
(551,451,o),
(551,613,cs),
(551,725,o),
(461,775,o),
(343,775,cs),
(105,775,l),
(133,802,l),
(117,28,ls),
(117,10,o),
(131,-5,o),
(150,-5,cs),
(167,-5,o),
(182,10,o),
(182,27,cs),
(197,742,l),
(169,715,l),
(343,715,ls),
(434,715,o),
(486,684,o),
(486,613,cs),
(486,487,o),
(381,406,o),
(159,407,c),
(163,347,l)
);
},
{
closed = 1;
nodes = (
(223,394,l),
(179,350,l),
(548,4,ls),
(553,-1,o),
(561,-5,o),
(570,-5,cs),
(587,-5,o),
(601,9,o),
(601,26,cs),
(601,35,o),
(597,43,o),
(592,48,cs)
);
}
);
};
layerId = m004;
shapes = (
{
alignment = -1;
ref = _GuideLine;
scale = (1.38,1);
}
);
width = 687;
},
{
background = {
shapes = (
{
closed = 1;
nodes = (
(426,354,o),
(551,456,o),
(551,612,c),
(551,724,o),
(461,774,o),
(343,774,c),
(132,774,l),
(117,28,l),
(117,10,o),
(131,-5,o),
(150,-5,c),
(167,-5,o),
(182,10,o),
(182,27,c),
(196,714,l),
(343,714,l),
(434,714,o),
(486,683,o),
(486,612,c),
(486,491,o),
(390,412,o),
(187,406,c),
(171,406,o),
(158,393,o),
(158,376,c),
(158,360,o),
(173,346,o),
(189,346,c)
);
},
{
closed = 1;
nodes = (
(223,395,l),
(218,400,o),
(210,404,o),
(201,404,c),
(184,404,o),
(170,390,o),
(170,373,c),
(170,364,o),
(174,356,o),
(179,351,c),
(548,5,l),
(553,0,o),
(561,-4,o),
(570,-4,c),
(587,-4,o),
(601,10,o),
(601,27,c),
(601,36,o),
(597,44,o),
(592,49,c)
);
}
);
};
layerId = m005;
shapes = (
{
closed = 1;
nodes = (
(167,-5,o),
(182,10,o),
(182,27,cs),
(197,742,l),
(169,715,l),
(343,715,ls),
(434,715,o),
(486,684,o),
(486,613,cs),
(486,487,o),
(381,406,o),
(159,407,c),
(163,347,l),
(417,348,o),
(551,451,o),
(551,613,cs),
(551,725,o),
(461,775,o),
(343,775,cs),
(105,775,l),
(133,802,l),
(117,28,ls),
(117,10,o),
(131,-5,o),
(150,-5,cs)
);
},
{
alignment = -1;
ref = _GuideLine;
scale = (1.38,1);
},
{
closed = 1;
nodes = (
(587,-5,o),
(601,9,o),
(601,26,cs),
(601,35,o),
(597,43,o),
(592,48,cs),
(223,394,l),
(179,350,l),
(548,4,ls),
(553,-1,o),
(561,-5,o),
(570,-5,cs)
);
}
);
width = 687;
}
);
unicode = 82;
},
{
color = 9;
glyphname = S;
kernLeft = S;
kernRight = B;
lastChange = "2025-12-04 18:29:11 +0000";
layers = (
{
background = {
shapes = (
{
attr = {
lineCapEnd = 1;
lineCapStart = 1;
};
closed = 0;
nodes = (
(128,31,l),
(155,12,o),
(203,0,o),
(254,0,cs),
(357,0,o),
(474,49,o),
(471,188,cs),
(469,274,o),
(388,321,o),
(306,367,cs),
(228,411,o),
(145,464,o),
(145,556,cs),
(145,648,o),
(232,699,o),
(324,699,cs),
(367,699,o),
(411,688,o),
(448,664,cs)
);
}
);
};
hints = (
{
horizontal = 1;
origin = (0,21);
settings = {
deltaV = {
"{100, 100, 0, 0, 0, 0}" = {
"62" = 0;
};
};
};
type = TTDelta;
},
{
horizontal = 1;
origin = (0,21);
settings = {
deltaV = {
"{100, 100, 0, 0, 0, 0}" = {
"62" = 0;
};
};
};
type = TTDelta;
},
{
horizontal = 1;
origin = (0,21);
settings = {
deltaV = {
"{100, 100, 0, 0, 0, 0}" = {
"62" = 0;
};
};
};
type = TTDelta;
},
{
horizontal = 1;
origin = (0,24);
settings = {
deltaV = {
"{100, 100, 0, 0, 0, 0}" = {
"62" = 0;
};
};
};
type = TTDelta;
},
{
horizontal = 1;
origin = (0,30);
settings = {
deltaV = {
"{100, 100, 0, 0, 0, 0}" = {
"62" = 0;
};
};
};
type = TTDelta;
},
{
horizontal = 1;
origin = (0,30);
settings = {
deltaV = {
"{100, 100, 0, 0, 0, 0}" = {
"62" = 0;
};
};
};
type = TTDelta;
},
{
horizontal = 1;
origin = (0,30);
settings = {
deltaV = {
"{100, 100, 0, 0, 0, 0}" = {
"62" = 0;
};
};
};
type = TTDelta;
},
{
horizontal = 1;
origin = (0,33);
settings = {
deltaV = {
"{100, 100, 0, 0, 0, 0}" = {
"62" = 0;
};
};
};
type = TTDelta;
},
{
horizontal = 1;
origin = (0,33);
settings = {
deltaV = {
"{100, 100, 0, 0, 0, 0}" = {
"62" = 0;
};
};
};
type = TTDelta;
},
{
horizontal = 1;
origin = (0,33);
settings = {
deltaV = {
"{100, 100, 0, 0, 0, 0}" = {
"62" = 0;
};
};
};
type = TTDelta;
},
{
horizontal = 1;
origin = (0,33);
settings = {
deltaV = {
"{100, 100, 0, 0, 0, 0}" = {
"62" = 0;
};
};
};
type = TTDelta;
},
{
horizontal = 1;
origin = (0,33);
settings = {
deltaV = {
"{100, 100, 0, 0, 0, 0}" = {
"62" = 0;
};
};
};
type = TTDelta;
},
{
horizontal = 1;
origin = (0,33);
settings = {
deltaV = {
"{100, 100, 0, 0, 0, 0}" = {
"62" = 0;
};
};
};
type = TTDelta;
}
);
layerId = "6F9C6BB4-2DCF-443B-A55D-9CE049090094";
shapes = (
{
closed = 1;
nodes = (
(213,-38,o),
(516,-30,o),
(511,221,c),
(509,327,o),
(413,381,o),
(329,430,c),
(244,478,o),
(172,520,o),
(172,603,c),
(172,718,o),
(337,755,o),
(437,690,c),
(443,686,o),
(448,684,o),
(455,684,c),
(472,684,o),
(486,698,o),
(486,715,c),
(486,725,o),
(480,735,o),
(473,740,c),
(337,829,o),
(107,772,o),
(107,603,c),
(107,486,o),
(208,428,o),
(297,378,c),
(377,331,o),
(445,293,o),
(447,219,c),
(450,36,o),
(222,28,o),
(138,81,c),
(134,84,o),
(127,87,o),
(121,87,c),
(104,87,o),
(90,73,o),
(90,56,c),
(90,45,o),
(95,37,o),
(104,31,c)
);
}
);
width = 604;
},
{
background = {
shapes = (
{
attr = {
lineCapEnd = 1;
lineCapStart = 1;
};
closed = 0;
nodes = (
(128,31,l),
(155,12,o),
(203,0,o),
(254,0,cs),
(357,0,o),
(474,49,o),
(471,188,cs),
(469,274,o),
(388,321,o),
(306,367,cs),
(228,411,o),
(145,464,o),
(145,556,cs),
(145,648,o),
(232,699,o),
(324,699,cs),
(367,699,o),
(411,688,o),
(448,664,cs)
);
}
);
};
hints = (
{
horizontal = 1;
origin = (0,21);
settings = {
deltaV = {
"{100, 100, 0, 0, 0, 0}" = {
"62" = 0;
};
};
};
type = TTDelta;
},
{
horizontal = 1;
origin = (0,21);
settings = {
deltaV = {
"{100, 100, 0, 0, 0, 0}" = {
"62" = 0;
};
};
};
type = TTDelta;
},
{
horizontal = 1;
origin = (0,21);
settings = {
deltaV = {
"{100, 100, 0, 0, 0, 0}" = {
"62" = 0;
};
};
};
type = TTDelta;
},
{
horizontal = 1;
origin = (0,24);
settings = {
deltaV = {
"{100, 100, 0, 0, 0, 0}" = {
"62" = 0;
};
};
};
type = TTDelta;
},
{
horizontal = 1;
origin = (0,30);
settings = {
deltaV = {
"{100, 100, 0, 0, 0, 0}" = {
"62" = 0;
};
};
};
type = TTDelta;
},
{
horizontal = 1;
origin = (0,30);
settings = {
deltaV = {
"{100, 100, 0, 0, 0, 0}" = {
"62" = 0;
};
};
};
type = TTDelta;
},
{
horizontal = 1;
origin = (0,30);
settings = {
deltaV = {
"{100, 100, 0, 0, 0, 0}" = {
"62" = 0;
};
};
};
type = TTDelta;
},
{
horizontal = 1;
origin = (0,33);
settings = {
deltaV = {
"{100, 100, 0, 0, 0, 0}" = {
"62" = 0;
};
};
};
type = TTDelta;
},
{
horizontal = 1;
origin = (0,33);
settings = {
deltaV = {
"{100, 100, 0, 0, 0, 0}" = {
"62" = 0;
};
};
};
type = TTDelta;
},
{
horizontal = 1;
origin = (0,33);
settings = {
deltaV = {
"{100, 100, 0, 0, 0, 0}" = {
"62" = 0;
};
};
};
type = TTDelta;
},
{
horizontal = 1;
origin = (0,33);
settings = {
deltaV = {
"{100, 100, 0, 0, 0, 0}" = {
"62" = 0;
};
};
};
type = TTDelta;
},
{
horizontal = 1;
origin = (0,33);
settings = {
deltaV = {
"{100, 100, 0, 0, 0, 0}" = {
"62" = 0;
};
};
};
type = TTDelta;
},
{
horizontal = 1;
origin = (0,33);
settings = {
deltaV = {
"{100, 100, 0, 0, 0, 0}" = {
"62" = 0;
};
};
};
type = TTDelta;
}
);
layerId = m002;
shapes = (
{
closed = 1;
nodes = (
(213,-38,o),
(516,-30,o),
(511,221,c),
(509,327,o),
(413,381,o),
(329,430,c),
(244,478,o),
(172,520,o),
(172,603,c),
(172,718,o),
(337,755,o),
(437,690,c),
(443,686,o),
(448,684,o),
(455,684,c),
(472,684,o),
(486,698,o),
(486,715,c),
(486,725,o),
(480,735,o),
(473,740,c),
(337,829,o),
(107,772,o),
(107,603,c),
(107,486,o),
(208,428,o),
(297,378,c),
(377,331,o),
(445,293,o),
(447,219,c),
(450,36,o),
(222,28,o),
(138,81,c),
(134,84,o),
(127,87,o),
(121,87,c),
(104,87,o),
(90,73,o),
(90,56,c),
(90,45,o),
(95,37,o),
(104,31,c)
);
},
{
alignment = -1;
ref = _GuideLine;
scale = (1.21,1);
}
);
width = 604;
},
{
background = {
shapes = (
{
attr = {
lineCapEnd = 1;
lineCapStart = 1;
};
closed = 0;
nodes = (
(128,31,l),
(155,12,o),
(203,0,o),
(254,0,cs),
(357,0,o),
(474,49,o),
(471,188,cs),
(469,274,o),
(388,321,o),
(306,367,cs),
(228,411,o),
(145,464,o),
(145,556,cs),
(145,648,o),
(232,699,o),
(324,699,cs),
(367,699,o),
(411,688,o),
(448,664,cs)
);
}
);
};
hints = (
{
horizontal = 1;
origin = (0,21);
settings = {
deltaV = {
"{100, 100, 0, 0, 0, 0}" = {
"62" = 0;
};
};
};
type = TTDelta;
},
{
horizontal = 1;
origin = (0,21);
settings = {
deltaV = {
"{100, 100, 0, 0, 0, 0}" = {
"62" = 0;
};
};
};
type = TTDelta;
},
{
horizontal = 1;
origin = (0,21);
settings = {
deltaV = {
"{100, 100, 0, 0, 0, 0}" = {
"62" = 0;
};
};
};
type = TTDelta;
},
{
horizontal = 1;
origin = (0,24);
settings = {
deltaV = {
"{100, 100, 0, 0, 0, 0}" = {
"62" = 0;
};
};
};
type = TTDelta;
},
{
horizontal = 1;
origin = (0,30);
settings = {
deltaV = {
"{100, 100, 0, 0, 0, 0}" = {
"62" = 0;
};
};
};
type = TTDelta;
},
{
horizontal = 1;
origin = (0,30);
settings = {
deltaV = {
"{100, 100, 0, 0, 0, 0}" = {
"62" = 0;
};
};
};
type = TTDelta;
},
{
horizontal = 1;
origin = (0,30);
settings = {
deltaV = {
"{100, 100, 0, 0, 0, 0}" = {
"62" = 0;
};
};
};
type = TTDelta;
},
{
horizontal = 1;
origin = (0,33);
settings = {
deltaV = {
"{100, 100, 0, 0, 0, 0}" = {
"62" = 0;
};
};
};
type = TTDelta;
},
{
horizontal = 1;
origin = (0,33);
settings = {
deltaV = {
"{100, 100, 0, 0, 0, 0}" = {
"62" = 0;
};
};
};
type = TTDelta;
},
{
horizontal = 1;
origin = (0,33);
settings = {
deltaV = {
"{100, 100, 0, 0, 0, 0}" = {
"62" = 0;
};
};
};
type = TTDelta;
},
{
horizontal = 1;
origin = (0,33);
settings = {
deltaV = {
"{100, 100, 0, 0, 0, 0}" = {
"62" = 0;
};
};
};
type = TTDelta;
},
{
horizontal = 1;
origin = (0,33);
settings = {
deltaV = {
"{100, 100, 0, 0, 0, 0}" = {
"62" = 0;
};
};
};
type = TTDelta;
},
{
horizontal = 1;
origin = (0,33);
settings = {
deltaV = {
"{100, 100, 0, 0, 0, 0}" = {
"62" = 0;
};
};
};
type = TTDelta;
}
);
layerId = "F3447581-435E-44E2-ABAC-414C89955411";
shapes = (
{
closed = 1;
nodes = (
(213,-38,o),
(516,-30,o),
(511,221,c),
(509,327,o),
(413,381,o),
(329,430,c),
(244,478,o),
(172,520,o),
(172,603,c),
(172,718,o),
(337,755,o),
(437,690,c),
(443,686,o),
(448,684,o),
(455,684,c),
(472,684,o),
(486,698,o),
(486,715,c),
(486,725,o),
(480,735,o),
(473,740,c),
(337,829,o),
(107,772,o),
(107,603,c),
(107,486,o),
(208,428,o),
(297,378,c),
(377,331,o),
(445,293,o),
(447,219,c),
(450,36,o),
(222,28,o),
(138,81,c),
(134,84,o),
(127,87,o),
(121,87,c),
(104,87,o),
(90,73,o),
(90,56,c),
(90,45,o),
(95,37,o),
(104,31,c)
);
}
);
width = 604;
},
{
background = {
shapes = (
{
attr = {
lineCapEnd = 1;
lineCapStart = 1;
};
closed = 0;
nodes = (
(128,31,l),
(155,12,o),
(203,0,o),
(254,0,cs),
(357,0,o),
(474,49,o),
(471,188,cs),
(469,274,o),
(388,321,o),
(306,367,cs),
(228,411,o),
(145,464,o),
(145,556,cs),
(145,648,o),
(232,699,o),
(324,699,cs),
(367,699,o),
(411,688,o),
(448,664,cs)
);
}
);
};
hints = (
{
horizontal = 1;
settings = {
deltaV = {
"{100, 100, 0, 0, 0, 0}" = {
"62" = 0;
};
};
};
type = TTDelta;
},
{
horizontal = 1;
settings = {
deltaV = {
"{100, 100, 0, 0, 0, 0}" = {
"62" = 0;
};
};
};
type = TTDelta;
},
{
horizontal = 1;
settings = {
deltaV = {
"{100, 100, 0, 0, 0, 0}" = {
"62" = 0;
};
};
};
type = TTDelta;
},
{
horizontal = 1;
settings = {
deltaV = {
"{100, 100, 0, 0, 0, 0}" = {
"62" = 0;
};
};
};
type = TTDelta;
},
{
horizontal = 1;
settings = {
deltaV = {
"{100, 100, 0, 0, 0, 0}" = {
"62" = 0;
};
};
};
type = TTDelta;
},
{
horizontal = 1;
settings = {
deltaV = {
"{100, 100, 0, 0, 0, 0}" = {
"62" = 0;
};
};
};
type = TTDelta;
},
{
horizontal = 1;
settings = {
deltaV = {
"{100, 100, 0, 0, 0, 0}" = {
"62" = 0;
};
};
};
type = TTDelta;
},
{
horizontal = 1;
settings = {
deltaV = {
"{100, 100, 0, 0, 0, 0}" = {
"62" = 0;
};
};
};
type = TTDelta;
},
{
horizontal = 1;
settings = {
deltaV = {
"{100, 100, 0, 0, 0, 0}" = {
"62" = 0;
};
};
};
type = TTDelta;
},
{
horizontal = 1;
settings = {
deltaV = {
"{100, 100, 0, 0, 0, 0}" = {
"62" = 0;
};
};
};
type = TTDelta;
},
{
horizontal = 1;
settings = {
deltaV = {
"{100, 100, 0, 0, 0, 0}" = {
"62" = 0;
};
};
};
type = TTDelta;
},
{
horizontal = 1;
settings = {
deltaV = {
"{100, 100, 0, 0, 0, 0}" = {
"62" = 0;
};
};
};
type = TTDelta;
},
{
horizontal = 1;
settings = {
deltaV = {
"{100, 100, 0, 0, 0, 0}" = {
"62" = 0;
};
};
};
type = TTDelta;
}
);
layerId = m004;
shapes = (
{
alignment = -1;
ref = _GuideLine;
scale = (1.21,1);
}
);
width = 604;
},
{
background = {
shapes = (
{
attr = {
lineCapEnd = 1;
lineCapStart = 1;
};
closed = 0;
nodes = (
(128,31,l),
(155,12,o),
(203,0,o),
(254,0,cs),
(357,0,o),
(474,49,o),
(471,188,cs),
(469,274,o),
(388,321,o),
(306,367,cs),
(228,411,o),
(145,464,o),
(145,556,cs),
(145,648,o),
(232,699,o),
(324,699,cs),
(367,699,o),
(411,688,o),
(448,664,cs)
);
}
);
};
hints = (
{
horizontal = 1;
origin = (0,21);
settings = {
deltaV = {
"{100, 100, 0, 0, 0, 0}" = {
"62" = 0;
};
};
};
type = TTDelta;
},
{
horizontal = 1;
origin = (0,21);
settings = {
deltaV = {
"{100, 100, 0, 0, 0, 0}" = {
"62" = 0;
};
};
};
type = TTDelta;
},
{
horizontal = 1;
origin = (0,21);
settings = {
deltaV = {
"{100, 100, 0, 0, 0, 0}" = {
"62" = 0;
};
};
};
type = TTDelta;
},
{
horizontal = 1;
origin = (0,24);
settings = {
deltaV = {
"{100, 100, 0, 0, 0, 0}" = {
"62" = 0;
};
};
};
type = TTDelta;
},
{
horizontal = 1;
origin = (0,30);
settings = {
deltaV = {
"{100, 100, 0, 0, 0, 0}" = {
"62" = 0;
};
};
};
type = TTDelta;
},
{
horizontal = 1;
origin = (0,30);
settings = {
deltaV = {
"{100, 100, 0, 0, 0, 0}" = {
"62" = 0;
};
};
};
type = TTDelta;
},
{
horizontal = 1;
origin = (0,30);
settings = {
deltaV = {
"{100, 100, 0, 0, 0, 0}" = {
"62" = 0;
};
};
};
type = TTDelta;
},
{
horizontal = 1;
origin = (0,33);
settings = {
deltaV = {
"{100, 100, 0, 0, 0, 0}" = {
"62" = 0;
};
};
};
type = TTDelta;
},
{
horizontal = 1;
origin = (0,33);
settings = {
deltaV = {
"{100, 100, 0, 0, 0, 0}" = {
"62" = 0;
};
};
};
type = TTDelta;
},
{
horizontal = 1;
origin = (0,33);
settings = {
deltaV = {
"{100, 100, 0, 0, 0, 0}" = {
"62" = 0;
};
};
};
type = TTDelta;
},
{
horizontal = 1;
origin = (0,33);
settings = {
deltaV = {
"{100, 100, 0, 0, 0, 0}" = {
"62" = 0;
};
};
};
type = TTDelta;
},
{
horizontal = 1;
origin = (0,33);
settings = {
deltaV = {
"{100, 100, 0, 0, 0, 0}" = {
"62" = 0;
};
};
};
type = TTDelta;
},
{
horizontal = 1;
origin = (0,33);
settings = {
deltaV = {
"{100, 100, 0, 0, 0, 0}" = {
"62" = 0;
};
};
};
type = TTDelta;
}
);
layerId = m005;
shapes = (
{
closed = 1;
nodes = (
(213,-38,o),
(516,-30,o),
(511,221,c),
(509,327,o),
(413,381,o),
(329,430,c),
(244,478,o),
(172,520,o),
(172,603,c),
(172,718,o),
(337,755,o),
(437,690,c),
(443,686,o),
(448,684,o),
(455,684,c),
(472,684,o),
(486,698,o),
(486,715,c),
(486,725,o),
(480,735,o),
(473,740,c),
(337,829,o),
(107,772,o),
(107,603,c),
(107,486,o),
(208,428,o),
(297,378,c),
(377,331,o),
(445,293,o),
(447,219,c),
(450,36,o),
(222,28,o),
(138,81,c),
(134,84,o),
(127,87,o),
(121,87,c),
(104,87,o),
(90,73,o),
(90,56,c),
(90,45,o),
(95,37,o),
(104,31,c)
);
},
{
alignment = -1;
ref = _GuideLine;
scale = (1.21,1);
}
);
width = 604;
}
);
unicode = 83;
},
{
color = 9;
glyphname = Germandbls;
kernLeft = H;
kernRight = S;
lastChange = "2025-12-04 18:29:11 +0000";
layers = (
{
hints = (
{
horizontal = 1;
settings = {
deltaV = {
"{100, 100, 0, 0, 0, 0}" = {
"62" = 0;
};
};
};
type = TTDelta;
},
{
horizontal = 1;
settings = {
deltaV = {
"{100, 100, 0, 0, 0, 0}" = {
"62" = 0;
};
};
};
type = TTDelta;
},
{
horizontal = 1;
settings = {
deltaV = {
"{100, 100, 0, 0, 0, 0}" = {
"62" = 0;
};
};
};
type = TTDelta;
},
{
horizontal = 1;
settings = {
deltaV = {
"{100, 100, 0, 0, 0, 0}" = {
"62" = 0;
};
};
};
type = TTDelta;
},
{
horizontal = 1;
settings = {
deltaV = {
"{100, 100, 0, 0, 0, 0}" = {
"62" = 0;
};
};
};
type = TTDelta;
},
{
horizontal = 1;
settings = {
deltaV = {
"{100, 100, 0, 0, 0, 0}" = {
"62" = 0;
};
};
};
type = TTDelta;
},
{
horizontal = 1;
settings = {
deltaV = {
"{100, 100, 0, 0, 0, 0}" = {
"62" = 0;
};
};
};
type = TTDelta;
},
{
horizontal = 1;
settings = {
deltaV = {
"{100, 100, 0, 0, 0, 0}" = {
"62" = 0;
};
};
};
type = TTDelta;
},
{
horizontal = 1;
settings = {
deltaV = {
"{100, 100, 0, 0, 0, 0}" = {
"62" = 0;
};
};
};
type = TTDelta;
},
{
horizontal = 1;
settings = {
deltaV = {
"{100, 100, 0, 0, 0, 0}" = {
"62" = 0;
};
};
};
type = TTDelta;
},
{
horizontal = 1;
settings = {
deltaV = {
"{100, 100, 0, 0, 0, 0}" = {
"62" = 0;
};
};
};
type = TTDelta;
},
{
horizontal = 1;
settings = {
deltaV = {
"{100, 100, 0, 0, 0, 0}" = {
"62" = 0;
};
};
};
type = TTDelta;
},
{
horizontal = 1;
settings = {
deltaV = {
"{100, 100, 0, 0, 0, 0}" = {
"62" = 0;
};
};
};
type = TTDelta;
}
);
layerId = "6F9C6BB4-2DCF-443B-A55D-9CE049090094";
shapes = (
{
closed = 1;
nodes = (
(138,-5,o),
(153,10,o),
(153,27,cs),
(167,721,l),
(139,715,l),
(496,715,l),
(491,723,l),
(377,662,o),
(269,605,o),
(269,489,cs),
(269,393,o),
(357,345,o),
(427,307,cs),
(494,270,o),
(547,241,o),
(547,188,cs),
(547,40,o),
(372,35,o),
(304,76,cs),
(299,79,o),
(293,81,o),
(287,81,cs),
(270,81,o),
(256,67,o),
(256,50,cs),
(256,39,o),
(261,30,o),
(270,24,cs),
(358,-29,o),
(612,-28,o),
(612,188,cs),
(612,277,o),
(530,320,o),
(459,359,cs),
(391,396,o),
(334,429,o),
(334,489,cs),
(334,606,o),
(567,695,o),
(588,716,cs),
(595,722,o),
(600,731,o),
(600,742,cs),
(600,760,o),
(585,775,o),
(567,775,cs),
(75,775,l),
(103,781,l),
(88,28,ls),
(88,10,o),
(102,-5,o),
(121,-5,cs)
);
}
);
width = 674;
},
{
background = {
shapes = (
{
attr = {
identifier = ID0x7fadb0841000;
};
closed = 1;
nodes = (
(138,-5,o),
(153,10,o),
(153,27,c),
(166,694,l),
(567,694,l),
(584,694,o),
(597,707,o),
(597,724,c),
(597,741,o),
(584,754,o),
(567,754,c),
(102,754,l),
(88,28,l),
(88,10,o),
(102,-5,o),
(121,-5,c)
);
},
{
attr = {
identifier = ID0x7fadb0841000;
};
closed = 1;
nodes = (
(368,-31,o),
(622,-30,o),
(622,186,c),
(622,275,o),
(540,319,o),
(469,357,c),
(401,395,o),
(344,427,o),
(344,487,c),
(344,567,o),
(420,609,o),
(531,669,c),
(549,678,o),
(565,686,o),
(582,696,c),
(590,701,o),
(597,711,o),
(597,722,c),
(597,739,o),
(583,753,o),
(566,753,c),
(560,753,o),
(555,751,o),
(550,748,c),
(533,738,o),
(517,730,o),
(501,721,c),
(387,660,o),
(279,603,o),
(279,487,c),
(279,391,o),
(367,344,o),
(437,305,c),
(504,269,o),
(557,239,o),
(557,186,c),
(557,38,o),
(382,33,o),
(314,74,c),
(309,77,o),
(303,79,o),
(297,79,c),
(280,79,o),
(266,65,o),
(266,48,c),
(266,37,o),
(271,28,o),
(280,22,c)
);
}
);
};
hints = (
{
horizontal = 1;
settings = {
deltaV = {
"{100, 100, 0, 0, 0, 0}" = {
"62" = 0;
};
};
};
type = TTDelta;
},
{
horizontal = 1;
settings = {
deltaV = {
"{100, 100, 0, 0, 0, 0}" = {
"62" = 0;
};
};
};
type = TTDelta;
},
{
horizontal = 1;
settings = {
deltaV = {
"{100, 100, 0, 0, 0, 0}" = {
"62" = 0;
};
};
};
type = TTDelta;
},
{
horizontal = 1;
settings = {
deltaV = {
"{100, 100, 0, 0, 0, 0}" = {
"62" = 0;
};
};
};
type = TTDelta;
},
{
horizontal = 1;
settings = {
deltaV = {
"{100, 100, 0, 0, 0, 0}" = {
"62" = 0;
};
};
};
type = TTDelta;
},
{
horizontal = 1;
settings = {
deltaV = {
"{100, 100, 0, 0, 0, 0}" = {
"62" = 0;
};
};
};
type = TTDelta;
},
{
horizontal = 1;
settings = {
deltaV = {
"{100, 100, 0, 0, 0, 0}" = {
"62" = 0;
};
};
};
type = TTDelta;
},
{
horizontal = 1;
settings = {
deltaV = {
"{100, 100, 0, 0, 0, 0}" = {
"62" = 0;
};
};
};
type = TTDelta;
},
{
horizontal = 1;
settings = {
deltaV = {
"{100, 100, 0, 0, 0, 0}" = {
"62" = 0;
};
};
};
type = TTDelta;
},
{
horizontal = 1;
settings = {
deltaV = {
"{100, 100, 0, 0, 0, 0}" = {
"62" = 0;
};
};
};
type = TTDelta;
},
{
horizontal = 1;
settings = {
deltaV = {
"{100, 100, 0, 0, 0, 0}" = {
"62" = 0;
};
};
};
type = TTDelta;
},
{
horizontal = 1;
settings = {
deltaV = {
"{100, 100, 0, 0, 0, 0}" = {
"62" = 0;
};
};
};
type = TTDelta;
},
{
horizontal = 1;
settings = {
deltaV = {
"{100, 100, 0, 0, 0, 0}" = {
"62" = 0;
};
};
};
type = TTDelta;
}
);
layerId = m002;
shapes = (
{
closed = 1;
nodes = (
(138,-5,o),
(153,10,o),
(153,27,cs),
(167,721,l),
(139,715,l),
(496,715,l),
(491,723,l),
(377,662,o),
(269,605,o),
(269,489,cs),
(269,393,o),
(357,345,o),
(427,307,cs),
(494,270,o),
(547,241,o),
(547,188,cs),
(547,40,o),
(372,35,o),
(304,76,cs),
(299,79,o),
(293,81,o),
(287,81,cs),
(270,81,o),
(256,67,o),
(256,50,cs),
(256,39,o),
(261,30,o),
(270,24,cs),
(358,-29,o),
(612,-28,o),
(612,188,cs),
(612,277,o),
(530,320,o),
(459,359,cs),
(391,396,o),
(334,429,o),
(334,489,cs),
(334,606,o),
(567,695,o),
(588,716,cs),
(595,722,o),
(600,731,o),
(600,742,cs),
(600,760,o),
(585,775,o),
(567,775,cs),
(75,775,l),
(103,781,l),
(88,28,ls),
(88,10,o),
(102,-5,o),
(121,-5,cs)
);
},
{
alignment = -1;
ref = _GuideLine;
scale = (1.37,1);
}
);
width = 684;
},
{
background = {
shapes = (
{
attr = {
identifier = ID0x7fadb0841000;
};
closed = 1;
nodes = (
(138,-5,o),
(153,10,o),
(153,27,c),
(166,694,l),
(557,694,l),
(574,694,o),
(587,707,o),
(587,724,c),
(587,741,o),
(574,754,o),
(557,754,c),
(102,754,l),
(88,28,l),
(88,10,o),
(102,-5,o),
(121,-5,c)
);
},
{
attr = {
identifier = ID0x7fadb0841000;
};
closed = 1;
nodes = (
(358,-31,o),
(612,-30,o),
(612,186,c),
(612,275,o),
(530,319,o),
(459,357,c),
(391,395,o),
(334,427,o),
(334,487,c),
(334,567,o),
(410,609,o),
(521,669,c),
(539,678,o),
(555,686,o),
(572,696,c),
(580,701,o),
(587,711,o),
(587,722,c),
(587,739,o),
(573,753,o),
(556,753,c),
(550,753,o),
(545,751,o),
(540,748,c),
(523,738,o),
(507,730,o),
(491,721,c),
(377,660,o),
(269,603,o),
(269,487,c),
(269,391,o),
(357,344,o),
(427,305,c),
(494,269,o),
(547,239,o),
(547,186,c),
(547,38,o),
(372,33,o),
(304,74,c),
(299,77,o),
(293,79,o),
(287,79,c),
(270,79,o),
(256,65,o),
(256,48,c),
(256,37,o),
(261,28,o),
(270,22,c)
);
}
);
};
hints = (
{
horizontal = 1;
settings = {
deltaV = {
"{100, 100, 0, 0, 0, 0}" = {
"62" = 0;
};
};
};
type = TTDelta;
},
{
horizontal = 1;
settings = {
deltaV = {
"{100, 100, 0, 0, 0, 0}" = {
"62" = 0;
};
};
};
type = TTDelta;
},
{
horizontal = 1;
settings = {
deltaV = {
"{100, 100, 0, 0, 0, 0}" = {
"62" = 0;
};
};
};
type = TTDelta;
},
{
horizontal = 1;
settings = {
deltaV = {
"{100, 100, 0, 0, 0, 0}" = {
"62" = 0;
};
};
};
type = TTDelta;
},
{
horizontal = 1;
settings = {
deltaV = {
"{100, 100, 0, 0, 0, 0}" = {
"62" = 0;
};
};
};
type = TTDelta;
},
{
horizontal = 1;
settings = {
deltaV = {
"{100, 100, 0, 0, 0, 0}" = {
"62" = 0;
};
};
};
type = TTDelta;
},
{
horizontal = 1;
settings = {
deltaV = {
"{100, 100, 0, 0, 0, 0}" = {
"62" = 0;
};
};
};
type = TTDelta;
},
{
horizontal = 1;
settings = {
deltaV = {
"{100, 100, 0, 0, 0, 0}" = {
"62" = 0;
};
};
};
type = TTDelta;
},
{
horizontal = 1;
settings = {
deltaV = {
"{100, 100, 0, 0, 0, 0}" = {
"62" = 0;
};
};
};
type = TTDelta;
},
{
horizontal = 1;
settings = {
deltaV = {
"{100, 100, 0, 0, 0, 0}" = {
"62" = 0;
};
};
};
type = TTDelta;
},
{
horizontal = 1;
settings = {
deltaV = {
"{100, 100, 0, 0, 0, 0}" = {
"62" = 0;
};
};
};
type = TTDelta;
},
{
horizontal = 1;
settings = {
deltaV = {
"{100, 100, 0, 0, 0, 0}" = {
"62" = 0;
};
};
};
type = TTDelta;
},
{
horizontal = 1;
settings = {
deltaV = {
"{100, 100, 0, 0, 0, 0}" = {
"62" = 0;
};
};
};
type = TTDelta;
}
);
layerId = "F3447581-435E-44E2-ABAC-414C89955411";
shapes = (
{
closed = 1;
nodes = (
(138,-5,o),
(153,10,o),
(153,27,cs),
(167,721,l),
(139,715,l),
(496,715,l),
(491,723,l),
(377,662,o),
(269,605,o),
(269,489,cs),
(269,393,o),
(357,345,o),
(427,307,cs),
(494,270,o),
(547,241,o),
(547,188,cs),
(547,40,o),
(372,35,o),
(304,76,cs),
(299,79,o),
(293,81,o),
(287,81,cs),
(270,81,o),
(256,67,o),
(256,50,cs),
(256,39,o),
(261,30,o),
(270,24,cs),
(358,-29,o),
(612,-28,o),
(612,188,cs),
(612,277,o),
(530,320,o),
(459,359,cs),
(391,396,o),
(334,429,o),
(334,489,cs),
(334,606,o),
(567,695,o),
(588,716,cs),
(595,722,o),
(600,731,o),
(600,742,cs),
(600,760,o),
(585,775,o),
(567,775,cs),
(75,775,l),
(103,781,l),
(88,28,ls),
(88,10,o),
(102,-5,o),
(121,-5,cs)
);
}
);
width = 674;
},
{
background = {
shapes = (
{
closed = 1;
nodes = (
(138,-5,o),
(153,10,o),
(153,27,cs),
(167,721,l),
(139,715,l),
(496,715,l),
(491,723,l),
(377,662,o),
(269,605,o),
(269,489,cs),
(269,393,o),
(357,345,o),
(427,307,cs),
(494,270,o),
(547,241,o),
(547,188,cs),
(547,40,o),
(372,35,o),
(304,76,cs),
(299,79,o),
(293,81,o),
(287,81,cs),
(270,81,o),
(256,67,o),
(256,50,cs),
(256,39,o),
(261,30,o),
(270,24,cs),
(358,-29,o),
(612,-28,o),
(612,188,cs),
(612,277,o),
(530,320,o),
(459,359,cs),
(391,396,o),
(334,429,o),
(334,489,cs),
(334,606,o),
(567,695,o),
(588,716,cs),
(595,722,o),
(600,731,o),
(600,742,cs),
(600,760,o),
(585,775,o),
(567,775,cs),
(75,775,l),
(103,781,l),
(88,28,ls),
(88,10,o),
(102,-5,o),
(121,-5,cs)
);
}
);
};
hints = (
{
horizontal = 1;
settings = {
deltaV = {
"{100, 100, 0, 0, 0, 0}" = {
"62" = 0;
};
};
};
type = TTDelta;
},
{
horizontal = 1;
settings = {
deltaV = {
"{100, 100, 0, 0, 0, 0}" = {
"62" = 0;
};
};
};
type = TTDelta;
},
{
horizontal = 1;
settings = {
deltaV = {
"{100, 100, 0, 0, 0, 0}" = {
"62" = 0;
};
};
};
type = TTDelta;
},
{
horizontal = 1;
settings = {
deltaV = {
"{100, 100, 0, 0, 0, 0}" = {
"62" = 0;
};
};
};
type = TTDelta;
},
{
horizontal = 1;
settings = {
deltaV = {
"{100, 100, 0, 0, 0, 0}" = {
"62" = 0;
};
};
};
type = TTDelta;
},
{
horizontal = 1;
settings = {
deltaV = {
"{100, 100, 0, 0, 0, 0}" = {
"62" = 0;
};
};
};
type = TTDelta;
},
{
horizontal = 1;
settings = {
deltaV = {
"{100, 100, 0, 0, 0, 0}" = {
"62" = 0;
};
};
};
type = TTDelta;
},
{
horizontal = 1;
settings = {
deltaV = {
"{100, 100, 0, 0, 0, 0}" = {
"62" = 0;
};
};
};
type = TTDelta;
},
{
horizontal = 1;
settings = {
deltaV = {
"{100, 100, 0, 0, 0, 0}" = {
"62" = 0;
};
};
};
type = TTDelta;
},
{
horizontal = 1;
settings = {
deltaV = {
"{100, 100, 0, 0, 0, 0}" = {
"62" = 0;
};
};
};
type = TTDelta;
},
{
horizontal = 1;
settings = {
deltaV = {
"{100, 100, 0, 0, 0, 0}" = {
"62" = 0;
};
};
};
type = TTDelta;
},
{
horizontal = 1;
settings = {
deltaV = {
"{100, 100, 0, 0, 0, 0}" = {
"62" = 0;
};
};
};
type = TTDelta;
},
{
horizontal = 1;
settings = {
deltaV = {
"{100, 100, 0, 0, 0, 0}" = {
"62" = 0;
};
};
};
type = TTDelta;
}
);
layerId = m004;
shapes = (
{
alignment = -1;
ref = _GuideLine;
scale = (1.37,1);
}
);
width = 684;
},
{
background = {
shapes = (
{
attr = {
identifier = ID0x7fadb0841000;
};
closed = 1;
nodes = (
(138,-5,o),
(153,10,o),
(153,27,c),
(166,694,l),
(567,694,l),
(584,694,o),
(597,707,o),
(597,724,c),
(597,741,o),
(584,754,o),
(567,754,c),
(102,754,l),
(88,28,l),
(88,10,o),
(102,-5,o),
(121,-5,c)
);
},
{
attr = {
identifier = ID0x7fadb0841000;
};
closed = 1;
nodes = (
(368,-31,o),
(622,-30,o),
(622,186,c),
(622,275,o),
(540,319,o),
(469,357,c),
(401,395,o),
(344,427,o),
(344,487,c),
(344,567,o),
(420,609,o),
(531,669,c),
(549,678,o),
(565,686,o),
(582,696,c),
(590,701,o),
(597,711,o),
(597,722,c),
(597,739,o),
(583,753,o),
(566,753,c),
(560,753,o),
(555,751,o),
(550,748,c),
(533,738,o),
(517,730,o),
(501,721,c),
(387,660,o),
(279,603,o),
(279,487,c),
(279,391,o),
(367,344,o),
(437,305,c),
(504,269,o),
(557,239,o),
(557,186,c),
(557,38,o),
(382,33,o),
(314,74,c),
(309,77,o),
(303,79,o),
(297,79,c),
(280,79,o),
(266,65,o),
(266,48,c),
(266,37,o),
(271,28,o),
(280,22,c)
);
}
);
};
hints = (
{
horizontal = 1;
settings = {
deltaV = {
"{100, 100, 0, 0, 0, 0}" = {
"62" = 0;
};
};
};
type = TTDelta;
},
{
horizontal = 1;
settings = {
deltaV = {
"{100, 100, 0, 0, 0, 0}" = {
"62" = 0;
};
};
};
type = TTDelta;
},
{
horizontal = 1;
settings = {
deltaV = {
"{100, 100, 0, 0, 0, 0}" = {
"62" = 0;
};
};
};
type = TTDelta;
},
{
horizontal = 1;
settings = {
deltaV = {
"{100, 100, 0, 0, 0, 0}" = {
"62" = 0;
};
};
};
type = TTDelta;
},
{
horizontal = 1;
settings = {
deltaV = {
"{100, 100, 0, 0, 0, 0}" = {
"62" = 0;
};
};
};
type = TTDelta;
},
{
horizontal = 1;
settings = {
deltaV = {
"{100, 100, 0, 0, 0, 0}" = {
"62" = 0;
};
};
};
type = TTDelta;
},
{
horizontal = 1;
settings = {
deltaV = {
"{100, 100, 0, 0, 0, 0}" = {
"62" = 0;
};
};
};
type = TTDelta;
},
{
horizontal = 1;
settings = {
deltaV = {
"{100, 100, 0, 0, 0, 0}" = {
"62" = 0;
};
};
};
type = TTDelta;
},
{
horizontal = 1;
settings = {
deltaV = {
"{100, 100, 0, 0, 0, 0}" = {
"62" = 0;
};
};
};
type = TTDelta;
},
{
horizontal = 1;
settings = {
deltaV = {
"{100, 100, 0, 0, 0, 0}" = {
"62" = 0;
};
};
};
type = TTDelta;
},
{
horizontal = 1;
settings = {
deltaV = {
"{100, 100, 0, 0, 0, 0}" = {
"62" = 0;
};
};
};
type = TTDelta;
},
{
horizontal = 1;
settings = {
deltaV = {
"{100, 100, 0, 0, 0, 0}" = {
"62" = 0;
};
};
};
type = TTDelta;
},
{
horizontal = 1;
settings = {
deltaV = {
"{100, 100, 0, 0, 0, 0}" = {
"62" = 0;
};
};
};
type = TTDelta;
}
);
layerId = m005;
shapes = (
{
closed = 1;
nodes = (
(138,-5,o),
(153,10,o),
(153,27,cs),
(167,721,l),
(139,715,l),
(496,715,l),
(491,723,l),
(377,662,o),
(269,605,o),
(269,489,cs),
(269,393,o),
(357,345,o),
(427,307,cs),
(494,270,o),
(547,241,o),
(547,188,cs),
(547,40,o),
(372,35,o),
(304,76,cs),
(299,79,o),
(293,81,o),
(287,81,cs),
(270,81,o),
(256,67,o),
(256,50,cs),
(256,39,o),
(261,30,o),
(270,24,cs),
(358,-29,o),
(612,-28,o),
(612,188,cs),
(612,277,o),
(530,320,o),
(459,359,cs),
(391,396,o),
(334,429,o),
(334,489,cs),
(334,606,o),
(567,695,o),
(588,716,cs),
(595,722,o),
(600,731,o),
(600,742,cs),
(600,760,o),
(585,775,o),
(567,775,cs),
(75,775,l),
(103,781,l),
(88,28,ls),
(88,10,o),
(102,-5,o),
(121,-5,cs)
);
},
{
alignment = -1;
ref = _GuideLine;
scale = (1.37,1);
}
);
width = 684;
}
);
unicode = 7838;
},
{
color = 9;
glyphname = T;
kernLeft = T;
kernRight = T;
lastChange = "2025-12-12 13:58:29 +0000";
layers = (
{
background = {
shapes = (
{
closed = 0;
nodes = (
(110,634,l),
(90,692,o),
(138,709,o),
(179,709,cs),
(291,709,o),
(425,690,o),
(519,690,cs),
(560,690,o),
(608,707,o),
(588,765,c)
);
},
{
closed = 0;
nodes = (
(384,700,l),
(359,0,l)
);
}
);
};
layerId = "6F9C6BB4-2DCF-443B-A55D-9CE049090094";
shapes = (
{
closed = 1;
nodes = (
(329,-5,o),
(344,10,o),
(344,27,cs),
(356,742,l),
(291,743,l),
(279,28,ls),
(279,10,o),
(293,-5,o),
(312,-5,cs)
);
},
{
closed = 1;
nodes = (
(584,716,o),
(598,729,o),
(598,746,cs),
(598,763,o),
(584,776,o),
(568,776,cs),
(60,776,ls),
(44,776,o),
(30,763,o),
(30,746,cs),
(30,729,o),
(44,716,o),
(60,716,cs),
(568,716,ls)
);
}
);
width = 628;
},
{
background = {
shapes = (
{
closed = 1;
nodes = (
(356,715,l),
(356,733,o),
(342,748,o),
(323,748,c),
(306,748,o),
(291,733,o),
(291,716,c),
(279,28,l),
(279,10,o),
(293,-5,o),
(312,-5,c),
(329,-5,o),
(344,10,o),
(344,27,c)
);
},
{
closed = 1;
nodes = (
(60,775,l),
(44,775,o),
(30,762,o),
(30,745,c),
(30,728,o),
(44,715,o),
(60,715,c),
(568,714,l),
(584,714,o),
(598,727,o),
(598,744,c),
(598,761,o),
(584,774,o),
(568,774,c)
);
}
);
};
layerId = m002;
shapes = (
{
closed = 1;
nodes = (
(329,-5,o),
(344,10,o),
(344,27,cs),
(356,742,l),
(291,743,l),
(279,28,ls),
(279,10,o),
(293,-5,o),
(312,-5,cs)
);
},
{
alignment = -1;
ref = _GuideLine;
scale = (1.26,1);
},
{
closed = 1;
nodes = (
(584,716,o),
(598,729,o),
(598,746,cs),
(598,763,o),
(584,776,o),
(568,776,cs),
(60,776,ls),
(44,776,o),
(30,763,o),
(30,746,cs),
(30,729,o),
(44,716,o),
(60,716,cs),
(568,716,ls)
);
}
);
width = 628;
},
{
background = {
shapes = (
{
closed = 1;
nodes = (
(356,715,l),
(356,733,o),
(342,748,o),
(323,748,c),
(306,748,o),
(291,733,o),
(291,716,c),
(279,28,l),
(279,10,o),
(293,-5,o),
(312,-5,c),
(329,-5,o),
(344,10,o),
(344,27,c)
);
},
{
closed = 1;
nodes = (
(60,775,l),
(44,775,o),
(30,762,o),
(30,745,c),
(30,728,o),
(44,715,o),
(60,715,c),
(568,714,l),
(584,714,o),
(598,727,o),
(598,744,c),
(598,761,o),
(584,774,o),
(568,774,c)
);
}
);
};
layerId = "F3447581-435E-44E2-ABAC-414C89955411";
shapes = (
{
closed = 1;
nodes = (
(329,-5,o),
(344,10,o),
(344,27,cs),
(356,742,l),
(291,743,l),
(279,28,ls),
(279,10,o),
(293,-5,o),
(312,-5,cs)
);
},
{
closed = 1;
nodes = (
(584,716,o),
(598,729,o),
(598,746,cs),
(598,763,o),
(584,776,o),
(568,776,cs),
(60,776,ls),
(44,776,o),
(30,763,o),
(30,746,cs),
(30,729,o),
(44,716,o),
(60,716,cs),
(568,716,ls)
);
}
);
width = 628;
},
{
background = {
shapes = (
{
closed = 0;
nodes = (
(110,634,l),
(90,692,o),
(138,709,o),
(179,709,cs),
(291,709,o),
(425,690,o),
(519,690,cs),
(560,690,o),
(608,707,o),
(588,765,c)
);
},
{
closed = 0;
nodes = (
(384,700,l),
(359,0,l)
);
},
{
closed = 1;
nodes = (
(356,742,l),
(291,743,l),
(279,28,ls),
(279,10,o),
(293,-5,o),
(312,-5,cs),
(329,-5,o),
(344,10,o),
(344,27,cs)
);
},
{
closed = 1;
nodes = (
(60,776,ls),
(44,776,o),
(30,763,o),
(30,746,cs),
(30,729,o),
(44,716,o),
(60,716,cs),
(568,715,ls),
(584,715,o),
(598,728,o),
(598,745,cs),
(598,762,o),
(584,775,o),
(568,775,cs)
);
}
);
};
layerId = m004;
shapes = (
{
alignment = -1;
ref = _GuideLine;
scale = (1.26,1);
}
);
width = 628;
},
{
background = {
shapes = (
{
closed = 1;
nodes = (
(356,715,l),
(356,733,o),
(342,748,o),
(323,748,c),
(306,748,o),
(291,733,o),
(291,716,c),
(279,28,l),
(279,10,o),
(293,-5,o),
(312,-5,c),
(329,-5,o),
(344,10,o),
(344,27,c)
);
},
{
closed = 1;
nodes = (
(60,775,l),
(44,775,o),
(30,762,o),
(30,745,c),
(30,728,o),
(44,715,o),
(60,715,c),
(568,714,l),
(584,714,o),
(598,727,o),
(598,744,c),
(598,761,o),
(584,774,o),
(568,774,c)
);
},
{
alignment = -1;
ref = _GuideLine;
scale = (1.26,1);
}
);
};
layerId = m005;
shapes = (
{
closed = 1;
nodes = (
(329,-5,o),
(344,10,o),
(344,27,cs),
(356,742,l),
(291,743,l),
(279,28,ls),
(279,10,o),
(293,-5,o),
(312,-5,cs)
);
},
{
alignment = -1;
ref = _GuideLine;
scale = (1.26,1);
},
{
closed = 1;
nodes = (
(584,716,o),
(598,729,o),
(598,746,cs),
(598,763,o),
(584,776,o),
(568,776,cs),
(60,776,ls),
(44,776,o),
(30,763,o),
(30,746,cs),
(30,729,o),
(44,716,o),
(60,716,cs),
(568,716,ls)
);
}
);
width = 628;
},
{
associatedMasterId = "6F9C6BB4-2DCF-443B-A55D-9CE049090094";
background = {
shapes = (
{
closed = 0;
nodes = (
(110,634,l),
(90,692,o),
(138,709,o),
(179,709,cs),
(291,709,o),
(425,690,o),
(519,690,cs),
(560,690,o),
(608,707,o),
(588,765,c)
);
},
{
closed = 0;
nodes = (
(384,700,l),
(359,0,l)
);
}
);
};
layerId = "CAF4D779-0911-48A1-8342-367EF96C34B0";
name = "12 Dec 25 at 14:58";
shapes = (
{
closed = 1;
nodes = (
(329,-5,o),
(344,10,o),
(344,27,cs),
(356,742,l),
(291,743,l),
(279,28,ls),
(279,10,o),
(293,-5,o),
(312,-5,cs)
);
},
{
closed = 1;
nodes = (
(584,715,o),
(598,728,o),
(598,745,cs),
(598,762,o),
(584,775,o),
(568,775,cs),
(60,776,ls),
(44,776,o),
(30,763,o),
(30,746,cs),
(30,729,o),
(44,716,o),
(60,716,cs),
(568,715,ls)
);
}
);
width = 628;
},
{
associatedMasterId = m002;
background = {
shapes = (
{
closed = 1;
nodes = (
(356,715,l),
(356,733,o),
(342,748,o),
(323,748,c),
(306,748,o),
(291,733,o),
(291,716,c),
(279,28,l),
(279,10,o),
(293,-5,o),
(312,-5,c),
(329,-5,o),
(344,10,o),
(344,27,c)
);
},
{
closed = 1;
nodes = (
(60,775,l),
(44,775,o),
(30,762,o),
(30,745,c),
(30,728,o),
(44,715,o),
(60,715,c),
(568,714,l),
(584,714,o),
(598,727,o),
(598,744,c),
(598,761,o),
(584,774,o),
(568,774,c)
);
}
);
};
layerId = "AD3733AB-D378-4B10-9ED6-E1522A42DC0F";
name = "12 Dec 25 at 14:58";
shapes = (
{
closed = 1;
nodes = (
(329,-5,o),
(344,10,o),
(344,27,cs),
(356,742,l),
(291,743,l),
(279,28,ls),
(279,10,o),
(293,-5,o),
(312,-5,cs)
);
},
{
alignment = -1;
ref = _GuideLine;
scale = (1.26,1);
},
{
closed = 1;
nodes = (
(584,715,o),
(598,728,o),
(598,745,cs),
(598,762,o),
(584,775,o),
(568,775,cs),
(60,776,ls),
(44,776,o),
(30,763,o),
(30,746,cs),
(30,729,o),
(44,716,o),
(60,716,cs),
(568,715,ls)
);
}
);
width = 628;
},
{
associatedMasterId = m002;
background = {
shapes = (
{
closed = 1;
nodes = (
(356,715,l),
(356,733,o),
(342,748,o),
(323,748,c),
(306,748,o),
(291,733,o),
(291,716,c),
(279,28,l),
(279,10,o),
(293,-5,o),
(312,-5,c),
(329,-5,o),
(344,10,o),
(344,27,c)
);
},
{
closed = 1;
nodes = (
(60,775,l),
(44,775,o),
(30,762,o),
(30,745,c),
(30,728,o),
(44,715,o),
(60,715,c),
(568,714,l),
(584,714,o),
(598,727,o),
(598,744,c),
(598,761,o),
(584,774,o),
(568,774,c)
);
}
);
};
layerId = "0B96B0F9-9ECE-4697-8457-25FE7F459D01";
name = "12 Dec 25 at 14:58";
shapes = (
{
closed = 1;
nodes = (
(329,-5,o),
(344,10,o),
(344,27,cs),
(356,742,l),
(291,743,l),
(279,28,ls),
(279,10,o),
(293,-5,o),
(312,-5,cs)
);
},
{
alignment = -1;
ref = _GuideLine;
scale = (1.26,1);
},
{
closed = 1;
nodes = (
(584,715,o),
(598,728,o),
(598,745,cs),
(598,762,o),
(584,775,o),
(568,775,cs),
(60,776,ls),
(44,776,o),
(30,763,o),
(30,746,cs),
(30,729,o),
(44,716,o),
(60,716,cs),
(568,715,ls)
);
}
);
width = 628;
},
{
associatedMasterId = "F3447581-435E-44E2-ABAC-414C89955411";
background = {
shapes = (
{
closed = 1;
nodes = (
(356,715,l),
(356,733,o),
(342,748,o),
(323,748,c),
(306,748,o),
(291,733,o),
(291,716,c),
(279,28,l),
(279,10,o),
(293,-5,o),
(312,-5,c),
(329,-5,o),
(344,10,o),
(344,27,c)
);
},
{
closed = 1;
nodes = (
(60,775,l),
(44,775,o),
(30,762,o),
(30,745,c),
(30,728,o),
(44,715,o),
(60,715,c),
(568,714,l),
(584,714,o),
(598,727,o),
(598,744,c),
(598,761,o),
(584,774,o),
(568,774,c)
);
}
);
};
layerId = "DE459DF9-0AE2-4B04-AC40-3569DD1D8291";
name = "12 Dec 25 at 14:58";
shapes = (
{
closed = 1;
nodes = (
(329,-5,o),
(344,10,o),
(344,27,cs),
(356,742,l),
(291,743,l),
(279,28,ls),
(279,10,o),
(293,-5,o),
(312,-5,cs)
);
},
{
closed = 1;
nodes = (
(584,715,o),
(598,728,o),
(598,745,cs),
(598,762,o),
(584,775,o),
(568,775,cs),
(60,776,ls),
(44,776,o),
(30,763,o),
(30,746,cs),
(30,729,o),
(44,716,o),
(60,716,cs),
(568,715,ls)
);
}
);
width = 628;
},
{
associatedMasterId = m005;
background = {
shapes = (
{
closed = 1;
nodes = (
(356,715,l),
(356,733,o),
(342,748,o),
(323,748,c),
(306,748,o),
(291,733,o),
(291,716,c),
(279,28,l),
(279,10,o),
(293,-5,o),
(312,-5,c),
(329,-5,o),
(344,10,o),
(344,27,c)
);
},
{
closed = 1;
nodes = (
(60,775,l),
(44,775,o),
(30,762,o),
(30,745,c),
(30,728,o),
(44,715,o),
(60,715,c),
(568,714,l),
(584,714,o),
(598,727,o),
(598,744,c),
(598,761,o),
(584,774,o),
(568,774,c)
);
},
{
alignment = -1;
ref = _GuideLine;
scale = (1.26,1);
}
);
};
layerId = "AF477A30-C9CC-411B-AE4A-CC7895420E03";
name = "12 Dec 25 at 14:58";
shapes = (
{
closed = 1;
nodes = (
(329,-5,o),
(344,10,o),
(344,27,cs),
(356,742,l),
(291,743,l),
(279,28,ls),
(279,10,o),
(293,-5,o),
(312,-5,cs)
);
},
{
alignment = -1;
ref = _GuideLine;
scale = (1.26,1);
},
{
closed = 1;
nodes = (
(584,715,o),
(598,728,o),
(598,745,cs),
(598,762,o),
(584,775,o),
(568,775,cs),
(60,776,ls),
(44,776,o),
(30,763,o),
(30,746,cs),
(30,729,o),
(44,716,o),
(60,716,cs),
(568,715,ls)
);
}
);
width = 628;
},
{
associatedMasterId = m004;
background = {
shapes = (
{
closed = 0;
nodes = (
(110,634,l),
(90,692,o),
(138,709,o),
(179,709,cs),
(291,709,o),
(425,690,o),
(519,690,cs),
(560,690,o),
(608,707,o),
(588,765,c)
);
},
{
closed = 0;
nodes = (
(384,700,l),
(359,0,l)
);
},
{
closed = 1;
nodes = (
(356,742,l),
(291,743,l),
(279,28,ls),
(279,10,o),
(293,-5,o),
(312,-5,cs),
(329,-5,o),
(344,10,o),
(344,27,cs)
);
},
{
closed = 1;
nodes = (
(60,776,ls),
(44,776,o),
(30,763,o),
(30,746,cs),
(30,729,o),
(44,716,o),
(60,716,cs),
(568,715,ls),
(584,715,o),
(598,728,o),
(598,745,cs),
(598,762,o),
(584,775,o),
(568,775,cs)
);
}
);
};
layerId = "5CAAAF4C-13E3-41D0-A94D-65936DE4E70B";
name = "12 Dec 25 at 14:58";
shapes = (
{
alignment = -1;
ref = _GuideLine;
scale = (1.26,1);
}
);
width = 628;
}
);
unicode = 84;
},
{
color = 9;
glyphname = U;
kernLeft = U;
kernRight = U;
lastChange = "2025-12-04 18:29:11 +0000";
layers = (
{
anchors = (
{
name = bottom;
pos = (367,0);
},
{
name = ogonek;
pos = (492,65);
},
{
name = top;
pos = (367,735);
},
{
name = topright;
pos = (685,720);
}
);
layerId = "6F9C6BB4-2DCF-443B-A55D-9CE049090094";
shapes = (
{
closed = 1;
nodes = (
(498,-4,o),
(609,102,o),
(612,260,c),
(624,747,l),
(624,765,o),
(609,780,o),
(591,780,c),
(574,780,o),
(559,765,o),
(559,748,c),
(548,262,l),
(545,134,o),
(462,56,o),
(351,56,c),
(238,56,o),
(176,138,o),
(178,260,c),
(188,747,l),
(188,765,o),
(174,780,o),
(155,780,c),
(138,780,o),
(123,765,o),
(123,748,c),
(114,262,l),
(110,105,o),
(199,-4,o),
(351,-4,c)
);
}
);
width = 735;
},
{
anchors = (
{
name = bottom;
pos = (367,0);
},
{
name = ogonek;
pos = (492,65);
},
{
name = top;
pos = (367,735);
},
{
name = topright;
pos = (685,720);
}
);
layerId = m002;
shapes = (
{
closed = 1;
nodes = (
(498,-4,o),
(609,102,o),
(612,260,c),
(624,747,l),
(624,765,o),
(609,780,o),
(591,780,c),
(574,780,o),
(559,765,o),
(559,748,c),
(548,262,l),
(545,134,o),
(462,56,o),
(351,56,c),
(238,56,o),
(176,138,o),
(178,260,c),
(188,747,l),
(188,765,o),
(174,780,o),
(155,780,c),
(138,780,o),
(123,765,o),
(123,748,c),
(114,262,l),
(110,105,o),
(199,-4,o),
(351,-4,c)
);
},
{
alignment = -1;
ref = _GuideLine;
scale = (1.47,1);
}
);
width = 735;
},
{
anchors = (
{
name = bottom;
pos = (367,0);
},
{
name = ogonek;
pos = (637,10);
},
{
name = top;
pos = (367,735);
},
{
name = topright;
pos = (685,720);
}
);
layerId = "F3447581-435E-44E2-ABAC-414C89955411";
shapes = (
{
closed = 1;
nodes = (
(498,-4,o),
(609,102,o),
(612,260,c),
(624,747,l),
(624,765,o),
(609,780,o),
(591,780,c),
(574,780,o),
(559,765,o),
(559,748,c),
(548,262,l),
(545,134,o),
(462,56,o),
(351,56,c),
(238,56,o),
(176,138,o),
(178,260,c),
(188,747,l),
(188,765,o),
(174,780,o),
(155,780,c),
(138,780,o),
(123,765,o),
(123,748,c),
(114,262,l),
(110,105,o),
(199,-4,o),
(351,-4,c)
);
}
);
width = 735;
},
{
anchors = (
{
name = bottom;
pos = (367,0);
},
{
name = ogonek;
pos = (492,65);
},
{
name = top;
pos = (367,735);
},
{
name = topright;
pos = (685,720);
}
);
layerId = m004;
shapes = (
{
alignment = -1;
ref = _GuideLine;
scale = (1.47,1);
}
);
width = 735;
},
{
anchors = (
{
name = bottom;
pos = (367,0);
},
{
name = ogonek;
pos = (492,65);
},
{
name = top;
pos = (367,735);
},
{
name = topright;
pos = (685,720);
}
);
layerId = m005;
shapes = (
{
closed = 1;
nodes = (
(498,-4,o),
(609,102,o),
(612,260,c),
(624,747,l),
(624,765,o),
(609,780,o),
(591,780,c),
(574,780,o),
(559,765,o),
(559,748,c),
(548,262,l),
(545,134,o),
(462,56,o),
(351,56,c),
(238,56,o),
(176,138,o),
(178,260,c),
(188,747,l),
(188,765,o),
(174,780,o),
(155,780,c),
(138,780,o),
(123,765,o),
(123,748,c),
(114,262,l),
(110,105,o),
(199,-4,o),
(351,-4,c)
);
},
{
alignment = -1;
ref = _GuideLine;
scale = (1.47,1);
}
);
width = 735;
}
);
unicode = 85;
},
{
color = 9;
glyphname = V;
kernLeft = V;
kernRight = V;
lastChange = "2025-12-04 18:29:11 +0000";
layers = (
{
background = {
shapes = (
{
pos = (36,0);
ref = U;
}
);
};
layerId = "6F9C6BB4-2DCF-443B-A55D-9CE049090094";
shapes = (
{
closed = 1;
nodes = (
(365,-4,o),
(378,6,o),
(382,18,cs),
(633,737,ls),
(634,740,o),
(635,744,o),
(635,748,cs),
(635,765,o),
(620,780,o),
(602,780,cs),
(588,780,o),
(576,770,o),
(572,758,cs),
(320,38,l),
(381,37,l),
(151,756,ls),
(147,770,o),
(134,780,o),
(120,780,cs),
(98,780,o),
(83,758,o),
(89,738,cs),
(319,19,ls),
(323,5,o),
(335,-4,o),
(351,-4,cs)
);
}
);
width = 721;
},
{
background = {
shapes = (
{
closed = 1;
nodes = (
(151,756,l),
(147,770,o),
(134,780,o),
(120,780,c),
(98,780,o),
(83,758,o),
(89,738,c),
(319,19,l),
(323,5,o),
(335,-4,o),
(350,-4,c),
(371,-4,o),
(387,17,o),
(381,37,c)
);
},
{
closed = 1;
nodes = (
(320,38,l),
(313,17,o),
(329,-4,o),
(351,-4,c),
(365,-4,o),
(378,6,o),
(382,18,c),
(633,737,l),
(634,740,o),
(635,744,o),
(635,748,c),
(635,765,o),
(620,780,o),
(602,780,c),
(588,780,o),
(576,770,o),
(572,758,c)
);
}
);
};
layerId = m002;
shapes = (
{
closed = 1;
nodes = (
(365,-4,o),
(378,6,o),
(382,18,cs),
(633,737,ls),
(634,740,o),
(635,744,o),
(635,748,cs),
(635,765,o),
(620,780,o),
(602,780,cs),
(588,780,o),
(576,770,o),
(572,758,cs),
(320,38,l),
(381,37,l),
(151,756,ls),
(147,770,o),
(134,780,o),
(120,780,cs),
(98,780,o),
(83,758,o),
(89,738,cs),
(319,19,ls),
(323,5,o),
(335,-4,o),
(351,-4,cs)
);
},
{
alignment = -1;
ref = _GuideLine;
scale = (1.45,1);
}
);
width = 721;
},
{
background = {
shapes = (
{
closed = 1;
nodes = (
(151,756,l),
(147,770,o),
(134,780,o),
(120,780,c),
(98,780,o),
(83,758,o),
(89,738,c),
(319,19,l),
(323,5,o),
(335,-4,o),
(350,-4,c),
(371,-4,o),
(387,17,o),
(381,37,c)
);
},
{
closed = 1;
nodes = (
(320,38,l),
(313,17,o),
(329,-4,o),
(351,-4,c),
(365,-4,o),
(378,6,o),
(382,18,c),
(633,737,l),
(634,740,o),
(635,744,o),
(635,748,c),
(635,765,o),
(620,780,o),
(602,780,c),
(588,780,o),
(576,770,o),
(572,758,c)
);
}
);
};
layerId = "F3447581-435E-44E2-ABAC-414C89955411";
shapes = (
{
closed = 1;
nodes = (
(365,-4,o),
(378,6,o),
(382,18,cs),
(633,737,ls),
(634,740,o),
(635,744,o),
(635,748,cs),
(635,765,o),
(620,780,o),
(602,780,cs),
(588,780,o),
(576,770,o),
(572,758,cs),
(320,38,l),
(381,37,l),
(151,756,ls),
(147,770,o),
(134,780,o),
(120,780,cs),
(98,780,o),
(83,758,o),
(89,738,cs),
(319,19,ls),
(323,5,o),
(335,-4,o),
(351,-4,cs)
);
}
);
width = 721;
},
{
background = {
shapes = (
{
closed = 1;
nodes = (
(151,756,ls),
(147,770,o),
(134,780,o),
(120,780,cs),
(98,780,o),
(83,758,o),
(89,738,cs),
(319,19,ls),
(323,5,o),
(335,-4,o),
(351,-4,cs),
(365,-4,o),
(378,6,o),
(382,18,cs),
(633,737,ls),
(634,740,o),
(635,744,o),
(635,748,cs),
(635,765,o),
(620,780,o),
(602,780,cs),
(588,780,o),
(576,770,o),
(572,758,cs),
(320,38,l),
(381,37,l)
);
}
);
};
layerId = m004;
shapes = (
{
alignment = -1;
ref = _GuideLine;
scale = (1.45,1);
}
);
width = 721;
},
{
background = {
shapes = (
{
closed = 1;
nodes = (
(151,756,l),
(147,770,o),
(134,780,o),
(120,780,c),
(98,780,o),
(83,758,o),
(89,738,c),
(319,19,l),
(323,5,o),
(335,-4,o),
(350,-4,c),
(371,-4,o),
(387,17,o),
(381,37,c)
);
},
{
closed = 1;
nodes = (
(320,38,l),
(313,17,o),
(329,-4,o),
(351,-4,c),
(365,-4,o),
(378,6,o),
(382,18,c),
(633,737,l),
(634,740,o),
(635,744,o),
(635,748,c),
(635,765,o),
(620,780,o),
(602,780,c),
(588,780,o),
(576,770,o),
(572,758,c)
);
}
);
};
layerId = m005;
shapes = (
{
closed = 1;
nodes = (
(365,-4,o),
(378,6,o),
(382,18,cs),
(633,737,ls),
(634,740,o),
(635,744,o),
(635,748,cs),
(635,765,o),
(620,780,o),
(602,780,cs),
(588,780,o),
(576,770,o),
(572,758,cs),
(320,38,l),
(381,37,l),
(151,756,ls),
(147,770,o),
(134,780,o),
(120,780,cs),
(98,780,o),
(83,758,o),
(89,738,cs),
(319,19,ls),
(323,5,o),
(335,-4,o),
(351,-4,cs)
);
},
{
alignment = -1;
ref = _GuideLine;
scale = (1.45,1);
}
);
width = 721;
}
);
unicode = 86;
},
{
color = 9;
glyphname = W;
kernLeft = V;
kernRight = V;
lastChange = "2025-12-04 18:29:11 +0000";
layers = (
{
anchors = (
{
name = bottom;
pos = (597,0);
},
{
name = top;
pos = (597,735);
}
);
background = {
shapes = (
{
closed = 1;
nodes = (
(1105,737,l),
(1111,757,o),
(1096,779,o),
(1074,779,c),
(1059,779,o),
(1047,770,o),
(1043,756,c),
(812,37,l),
(806,17,o),
(821,-4,o),
(843,-4,c),
(858,-4,o),
(870,5,o),
(874,19,c)
);
},
{
closed = 1;
nodes = (
(301,20,l),
(305,5,o),
(317,-4,o),
(332,-4,c),
(353,-4,o),
(369,15,o),
(363,36,c),
(151,757,l),
(147,771,o),
(135,780,o),
(120,780,c),
(99,780,o),
(84,759,o),
(89,740,c)
);
},
{
closed = 1;
nodes = (
(811,18,l),
(815,5,o),
(828,-4,o),
(842,-4,c),
(864,-4,o),
(879,18,o),
(873,38,c),
(629,757,l),
(625,770,o),
(612,779,o),
(598,779,c),
(576,779,o),
(561,757,o),
(567,737,c)
);
},
{
closed = 1;
nodes = (
(628,737,l),
(634,755,o),
(621,779,o),
(597,779,c),
(583,779,o),
(571,771,o),
(566,757,c),
(302,38,l),
(296,20,o),
(309,-4,o),
(333,-4,c),
(347,-4,o),
(359,4,o),
(364,18,c)
);
}
);
};
layerId = "6F9C6BB4-2DCF-443B-A55D-9CE049090094";
shapes = (
{
closed = 1;
nodes = (
(347,-4,o),
(359,4,o),
(364,18,cs),
(628,737,l),
(567,737,l),
(811,18,ls),
(815,5,o),
(828,-4,o),
(843,-4,cs),
(858,-4,o),
(870,5,o),
(874,19,cs),
(1105,737,ls),
(1111,757,o),
(1096,779,o),
(1074,779,cs),
(1059,779,o),
(1047,770,o),
(1043,756,cs),
(812,37,l),
(873,38,l),
(629,757,ls),
(625,770,o),
(612,779,o),
(598,779,cs),
(583,779,o),
(571,771,o),
(566,757,cs),
(302,38,l),
(363,36,l),
(151,757,ls),
(147,771,o),
(135,780,o),
(120,780,cs),
(99,780,o),
(83,759,o),
(89,740,cs),
(301,20,ls),
(305,5,o),
(317,-4,o),
(333,-4,cs)
);
}
);
width = 1194;
},
{
anchors = (
{
name = bottom;
pos = (597,0);
},
{
name = top;
pos = (597,735);
}
);
background = {
shapes = (
{
closed = 1;
nodes = (
(1105,737,l),
(1111,757,o),
(1096,779,o),
(1074,779,c),
(1059,779,o),
(1047,770,o),
(1043,756,c),
(812,37,l),
(806,17,o),
(821,-4,o),
(843,-4,c),
(858,-4,o),
(870,5,o),
(874,19,c)
);
},
{
closed = 1;
nodes = (
(301,20,l),
(305,5,o),
(317,-4,o),
(332,-4,c),
(353,-4,o),
(369,15,o),
(363,36,c),
(151,757,l),
(147,771,o),
(135,780,o),
(120,780,c),
(99,780,o),
(84,759,o),
(89,740,c)
);
},
{
closed = 1;
nodes = (
(811,18,l),
(815,5,o),
(828,-4,o),
(842,-4,c),
(864,-4,o),
(879,18,o),
(873,38,c),
(629,757,l),
(625,770,o),
(612,779,o),
(598,779,c),
(576,779,o),
(561,757,o),
(567,737,c)
);
},
{
closed = 1;
nodes = (
(628,737,l),
(634,755,o),
(621,779,o),
(597,779,c),
(583,779,o),
(571,771,o),
(566,757,c),
(302,38,l),
(296,20,o),
(309,-4,o),
(333,-4,c),
(347,-4,o),
(359,4,o),
(364,18,c)
);
}
);
};
layerId = m002;
shapes = (
{
closed = 1;
nodes = (
(347,-4,o),
(359,4,o),
(364,18,cs),
(628,737,l),
(567,737,l),
(811,18,ls),
(815,5,o),
(828,-4,o),
(843,-4,cs),
(858,-4,o),
(870,5,o),
(874,19,cs),
(1105,737,ls),
(1111,757,o),
(1096,779,o),
(1074,779,cs),
(1059,779,o),
(1047,770,o),
(1043,756,cs),
(812,37,l),
(873,38,l),
(629,757,ls),
(625,770,o),
(612,779,o),
(598,779,cs),
(583,779,o),
(571,771,o),
(566,757,cs),
(302,38,l),
(363,36,l),
(151,757,ls),
(147,771,o),
(135,780,o),
(120,780,cs),
(99,780,o),
(83,759,o),
(89,740,cs),
(301,20,ls),
(305,5,o),
(317,-4,o),
(333,-4,cs)
);
},
{
alignment = -1;
ref = _GuideLine;
scale = (2.4,1);
}
);
width = 1194;
},
{
anchors = (
{
name = bottom;
pos = (597,0);
},
{
name = top;
pos = (597,735);
}
);
background = {
shapes = (
{
closed = 1;
nodes = (
(1105,737,l),
(1111,757,o),
(1096,779,o),
(1074,779,c),
(1059,779,o),
(1047,770,o),
(1043,756,c),
(812,37,l),
(806,17,o),
(821,-4,o),
(843,-4,c),
(858,-4,o),
(870,5,o),
(874,19,c)
);
},
{
closed = 1;
nodes = (
(301,20,l),
(305,5,o),
(317,-4,o),
(332,-4,c),
(353,-4,o),
(369,15,o),
(363,36,c),
(151,757,l),
(147,771,o),
(135,780,o),
(120,780,c),
(99,780,o),
(84,759,o),
(89,740,c)
);
},
{
closed = 1;
nodes = (
(811,18,l),
(815,5,o),
(828,-4,o),
(842,-4,c),
(864,-4,o),
(879,18,o),
(873,38,c),
(629,757,l),
(625,770,o),
(612,779,o),
(598,779,c),
(576,779,o),
(561,757,o),
(567,737,c)
);
},
{
closed = 1;
nodes = (
(628,737,l),
(634,755,o),
(621,779,o),
(597,779,c),
(583,779,o),
(571,771,o),
(566,757,c),
(347,-4,o),
(359,4,o),
(364,18,c)
);
}
);
};
layerId = "F3447581-435E-44E2-ABAC-414C89955411";
shapes = (
{
closed = 1;
nodes = (
(347,-4,o),
(359,4,o),
(364,18,cs),
(628,737,l),
(567,737,l),
(811,18,ls),
(815,5,o),
(828,-4,o),
(843,-4,cs),
(858,-4,o),
(870,5,o),
(874,19,cs),
(1105,737,ls),
(1111,757,o),
(1096,779,o),
(1074,779,cs),
(1059,779,o),
(1047,770,o),
(1043,756,cs),
(812,37,l),
(873,38,l),
(629,757,ls),
(625,770,o),
(612,779,o),
(598,779,cs),
(583,779,o),
(571,771,o),
(566,757,cs),
(302,38,l),
(363,36,l),
(151,757,ls),
(147,771,o),
(135,780,o),
(120,780,cs),
(99,780,o),
(83,759,o),
(89,740,cs),
(301,20,ls),
(305,5,o),
(317,-4,o),
(333,-4,cs)
);
}
);
width = 1194;
},
{
anchors = (
{
name = bottom;
pos = (597,0);
},
{
name = top;
pos = (597,735);
}
);
background = {
shapes = (
{
attr = {
lineCapEnd = "1";
lineCapStart = "1";
};
closed = 0;
nodes = (
(132,700,l),
(362,0,l),
(132,700,l)
);
},
{
closed = 1;
nodes = (
(1043,756,ls),
(1047,770,o),
(1059,779,o),
(1074,779,cs),
(1096,779,o),
(1111,757,o),
(1105,737,cs),
(874,19,ls),
(870,5,o),
(858,-4,o),
(843,-4,cs),
(828,-4,o),
(815,5,o),
(811,18,cs),
(567,737,l),
(628,737,l),
(364,18,ls),
(359,4,o),
(347,-4,o),
(333,-4,cs),
(317,-4,o),
(305,5,o),
(301,20,cs),
(89,740,ls),
(83,759,o),
(99,780,o),
(120,780,cs),
(135,780,o),
(147,771,o),
(151,757,cs),
(363,36,l),
(302,38,l),
(566,757,ls),
(571,771,o),
(583,779,o),
(598,779,cs),
(612,779,o),
(625,770,o),
(629,757,cs),
(873,38,l),
(812,37,l)
);
}
);
};
layerId = m004;
shapes = (
{
alignment = -1;
ref = _GuideLine;
scale = (2.4,1);
}
);
width = 1194;
},
{
anchors = (
{
name = bottom;
pos = (597,0);
},
{
name = top;
pos = (597,735);
}
);
background = {
shapes = (
{
closed = 1;
nodes = (
(1105,737,l),
(1111,757,o),
(1096,779,o),
(1074,779,c),
(1059,779,o),
(1047,770,o),
(1043,756,c),
(812,37,l),
(806,17,o),
(821,-4,o),
(843,-4,c),
(858,-4,o),
(870,5,o),
(874,19,c)
);
},
{
closed = 1;
nodes = (
(301,20,l),
(305,5,o),
(317,-4,o),
(332,-4,c),
(353,-4,o),
(369,15,o),
(363,36,c),
(151,757,l),
(147,771,o),
(135,780,o),
(120,780,c),
(99,780,o),
(84,759,o),
(89,740,c)
);
},
{
closed = 1;
nodes = (
(811,18,l),
(815,5,o),
(828,-4,o),
(842,-4,c),
(864,-4,o),
(879,18,o),
(873,38,c),
(629,757,l),
(625,770,o),
(612,779,o),
(598,779,c),
(576,779,o),
(561,757,o),
(567,737,c)
);
},
{
closed = 1;
nodes = (
(628,737,l),
(634,755,o),
(621,779,o),
(597,779,c),
(583,779,o),
(571,771,o),
(566,757,c),
(302,38,l),
(296,20,o),
(309,-4,o),
(333,-4,c),
(347,-4,o),
(359,4,o),
(364,18,c)
);
}
);
};
layerId = m005;
shapes = (
{
closed = 1;
nodes = (
(347,-4,o),
(359,4,o),
(364,18,cs),
(628,737,l),
(567,737,l),
(811,18,ls),
(815,5,o),
(828,-4,o),
(843,-4,cs),
(858,-4,o),
(870,5,o),
(874,19,cs),
(1105,737,ls),
(1111,757,o),
(1096,779,o),
(1074,779,cs),
(1059,779,o),
(1047,770,o),
(1043,756,cs),
(812,37,l),
(873,38,l),
(629,757,ls),
(625,770,o),
(612,779,o),
(598,779,cs),
(583,779,o),
(571,771,o),
(566,757,cs),
(302,38,l),
(363,36,l),
(151,757,ls),
(147,771,o),
(135,780,o),
(120,780,cs),
(99,780,o),
(83,759,o),
(89,740,cs),
(301,20,ls),
(305,5,o),
(317,-4,o),
(333,-4,cs)
);
},
{
alignment = -1;
ref = _GuideLine;
scale = (2.4,1);
}
);
width = 1194;
}
);
unicode = 87;
},
{
color = 9;
glyphname = X;
kernLeft = X;
kernRight = X;
lastChange = "2025-12-04 18:29:11 +0000";
layers = (
{
layerId = "6F9C6BB4-2DCF-443B-A55D-9CE049090094";
shapes = (
{
closed = 1;
nodes = (
(131,-4,o),
(141,2,o),
(147,11,c),
(648,730,l),
(651,735,o),
(653,741,o),
(653,747,c),
(653,765,o),
(639,779,o),
(621,779,c),
(610,779,o),
(600,773,o),
(594,764,c),
(93,45,l),
(90,40,o),
(88,34,o),
(88,28,c),
(88,10,o),
(102,-4,o),
(120,-4,c)
);
},
{
closed = 1;
nodes = (
(623,-4,o),
(637,10,o),
(637,28,c),
(637,34,o),
(635,40,o),
(632,44,c),
(168,763,l),
(162,773,o),
(153,779,o),
(141,779,c),
(123,779,o),
(109,765,o),
(109,747,c),
(109,741,o),
(111,735,o),
(114,731,c),
(578,12,l),
(584,2,o),
(593,-4,o),
(605,-4,c)
);
}
);
width = 740;
},
{
layerId = m002;
shapes = (
{
closed = 1;
nodes = (
(131,-4,o),
(141,2,o),
(147,11,c),
(648,730,l),
(651,735,o),
(653,741,o),
(653,747,c),
(653,765,o),
(639,779,o),
(621,779,c),
(610,779,o),
(600,773,o),
(594,764,c),
(93,45,l),
(90,40,o),
(88,34,o),
(88,28,c),
(88,10,o),
(102,-4,o),
(120,-4,c)
);
},
{
alignment = -1;
ref = _GuideLine;
scale = (1.48,1);
},
{
closed = 1;
nodes = (
(623,-4,o),
(637,10,o),
(637,28,c),
(637,34,o),
(635,40,o),
(632,44,c),
(168,763,l),
(162,773,o),
(153,779,o),
(141,779,c),
(123,779,o),
(109,765,o),
(109,747,c),
(109,741,o),
(111,735,o),
(114,731,c),
(578,12,l),
(584,2,o),
(593,-4,o),
(605,-4,c)
);
}
);
width = 740;
},
{
layerId = "F3447581-435E-44E2-ABAC-414C89955411";
shapes = (
{
closed = 1;
nodes = (
(131,-4,o),
(141,2,o),
(147,11,c),
(648,730,l),
(651,735,o),
(653,741,o),
(653,747,c),
(653,765,o),
(639,779,o),
(621,779,c),
(610,779,o),
(600,773,o),
(594,764,c),
(93,45,l),
(90,40,o),
(88,34,o),
(88,28,c),
(88,10,o),
(102,-4,o),
(120,-4,c)
);
},
{
closed = 1;
nodes = (
(623,-4,o),
(637,10,o),
(637,28,c),
(637,34,o),
(635,40,o),
(632,44,c),
(168,763,l),
(162,773,o),
(153,779,o),
(141,779,c),
(123,779,o),
(109,765,o),
(109,747,c),
(109,741,o),
(111,735,o),
(114,731,c),
(578,12,l),
(584,2,o),
(593,-4,o),
(605,-4,c)
);
}
);
width = 740;
},
{
layerId = m004;
shapes = (
{
alignment = -1;
ref = _GuideLine;
scale = (1.48,1);
}
);
width = 740;
},
{
layerId = m005;
shapes = (
{
closed = 1;
nodes = (
(131,-4,o),
(141,2,o),
(147,11,c),
(648,730,l),
(651,735,o),
(653,741,o),
(653,747,c),
(653,765,o),
(639,779,o),
(621,779,c),
(610,779,o),
(600,773,o),
(594,764,c),
(93,45,l),
(90,40,o),
(88,34,o),
(88,28,c),
(88,10,o),
(102,-4,o),
(120,-4,c)
);
},
{
alignment = -1;
ref = _GuideLine;
scale = (1.48,1);
},
{
closed = 1;
nodes = (
(623,-4,o),
(637,10,o),
(637,28,c),
(637,34,o),
(635,40,o),
(632,44,c),
(168,763,l),
(162,773,o),
(153,779,o),
(141,779,c),
(123,779,o),
(109,765,o),
(109,747,c),
(109,741,o),
(111,735,o),
(114,731,c),
(578,12,l),
(584,2,o),
(593,-4,o),
(605,-4,c)
);
}
);
width = 740;
}
);
unicode = 88;
},
{
color = 9;
glyphname = Y;
kernLeft = Y;
kernRight = Y;
lastChange = "2025-12-04 18:29:11 +0000";
layers = (
{
anchors = (
{
name = bottom;
pos = (361,0);
},
{
name = top;
pos = (361,735);
},
{
name = topleft;
pos = (108,720);
}
);
layerId = "6F9C6BB4-2DCF-443B-A55D-9CE049090094";
shapes = (
{
closed = 1;
nodes = (
(631,733,ls),
(633,737,o),
(635,743,o),
(635,749,cs),
(635,767,o),
(621,781,o),
(603,781,cs),
(591,781,o),
(580,774,o),
(575,765,cs),
(315,337,l),
(376,328,l),
(148,763,ls),
(143,773,o),
(132,781,o),
(119,781,cs),
(101,781,o),
(87,767,o),
(87,749,cs),
(87,744,o),
(88,739,o),
(90,735,cs),
(314,307,l),
(371,305,l)
);
},
{
closed = 1;
nodes = (
(356,-7,o),
(371,8,o),
(371,25,cs),
(376,354,l),
(310,354,l),
(306,26,ls),
(306,8,o),
(320,-7,o),
(338,-7,cs)
);
}
);
width = 722;
},
{
anchors = (
{
name = bottom;
pos = (361,0);
},
{
name = top;
pos = (361,735);
},
{
name = topleft;
pos = (108,720);
}
);
background = {
shapes = (
{
closed = 1;
nodes = (
(631,733,l),
(633,737,o),
(635,743,o),
(635,749,c),
(635,767,o),
(621,781,o),
(603,781,c),
(591,781,o),
(580,774,o),
(575,765,c),
(315,337,l),
(313,333,o),
(311,327,o),
(311,321,c),
(311,303,o),
(325,289,o),
(343,289,c),
(355,289,o),
(366,296,o),
(371,305,c)
);
},
{
closed = 1;
nodes = (
(376,328,l),
(148,763,l),
(143,773,o),
(132,781,o),
(119,781,c),
(101,781,o),
(87,767,o),
(87,749,c),
(87,744,o),
(88,739,o),
(90,735,c),
(310,314,l),
(306,26,l),
(306,8,o),
(320,-7,o),
(338,-7,c),
(356,-7,o),
(371,8,o),
(371,25,c)
);
}
);
};
layerId = m002;
shapes = (
{
closed = 1;
nodes = (
(631,733,ls),
(633,737,o),
(635,743,o),
(635,749,cs),
(635,767,o),
(621,781,o),
(603,781,cs),
(591,781,o),
(580,774,o),
(575,765,cs),
(315,337,l),
(376,328,l),
(148,763,ls),
(143,773,o),
(132,781,o),
(119,781,cs),
(101,781,o),
(87,767,o),
(87,749,cs),
(87,744,o),
(88,739,o),
(90,735,cs),
(314,307,l),
(371,305,l)
);
},
{
alignment = -1;
ref = _GuideLine;
scale = (1.45,1);
},
{
closed = 1;
nodes = (
(356,-7,o),
(371,8,o),
(371,25,cs),
(376,354,l),
(310,354,l),
(306,26,ls),
(306,8,o),
(320,-7,o),
(338,-7,cs)
);
}
);
width = 722;
},
{
anchors = (
{
name = bottom;
pos = (361,0);
},
{
name = top;
pos = (361,735);
},
{
name = topleft;
pos = (108,720);
}
);
background = {
shapes = (
{
closed = 1;
nodes = (
(631,733,l),
(633,737,o),
(635,743,o),
(635,749,c),
(635,767,o),
(621,781,o),
(603,781,c),
(591,781,o),
(580,774,o),
(575,765,c),
(315,337,l),
(313,333,o),
(311,327,o),
(311,321,c),
(311,303,o),
(325,289,o),
(343,289,c),
(355,289,o),
(366,296,o),
(371,305,c)
);
},
{
closed = 1;
nodes = (
(376,328,l),
(148,763,l),
(143,773,o),
(132,781,o),
(119,781,c),
(101,781,o),
(87,767,o),
(87,749,c),
(87,744,o),
(88,739,o),
(90,735,c),
(310,314,l),
(306,26,l),
(306,8,o),
(320,-7,o),
(338,-7,c),
(356,-7,o),
(371,8,o),
(371,25,c)
);
}
);
};
layerId = "F3447581-435E-44E2-ABAC-414C89955411";
shapes = (
{
closed = 1;
nodes = (
(631,733,ls),
(633,737,o),
(635,743,o),
(635,749,cs),
(635,767,o),
(621,781,o),
(603,781,cs),
(591,781,o),
(580,774,o),
(575,765,cs),
(315,337,l),
(376,328,l),
(148,763,ls),
(143,773,o),
(132,781,o),
(119,781,cs),
(101,781,o),
(87,767,o),
(87,749,cs),
(87,744,o),
(88,739,o),
(90,735,cs),
(314,307,l),
(371,305,l)
);
},
{
closed = 1;
nodes = (
(356,-7,o),
(371,8,o),
(371,25,cs),
(376,354,l),
(310,354,l),
(306,26,ls),
(306,8,o),
(320,-7,o),
(338,-7,cs)
);
}
);
width = 722;
},
{
anchors = (
{
name = bottom;
pos = (361,0);
},
{
name = top;
pos = (361,735);
},
{
name = topleft;
pos = (108,720);
}
);
background = {
shapes = (
{
closed = 1;
nodes = (
(631,733,ls),
(633,737,o),
(635,743,o),
(635,749,cs),
(635,767,o),
(621,781,o),
(603,781,cs),
(591,781,o),
(580,774,o),
(575,765,cs),
(315,337,l),
(376,328,l),
(148,763,ls),
(143,773,o),
(132,781,o),
(119,781,cs),
(101,781,o),
(87,767,o),
(87,749,cs),
(87,744,o),
(88,739,o),
(90,735,cs),
(314,307,l),
(371,305,l)
);
},
{
closed = 1;
nodes = (
(376,354,l),
(310,354,l),
(306,26,ls),
(306,8,o),
(320,-7,o),
(338,-7,cs),
(356,-7,o),
(371,8,o),
(371,25,cs)
);
}
);
};
layerId = m004;
shapes = (
{
alignment = -1;
ref = _GuideLine;
scale = (1.45,1);
}
);
width = 722;
},
{
anchors = (
{
name = bottom;
pos = (361,0);
},
{
name = top;
pos = (361,735);
},
{
name = topleft;
pos = (108,720);
}
);
background = {
shapes = (
{
closed = 1;
nodes = (
(631,733,l),
(633,737,o),
(635,743,o),
(635,749,c),
(635,767,o),
(621,781,o),
(603,781,c),
(591,781,o),
(580,774,o),
(575,765,c),
(315,337,l),
(313,333,o),
(311,327,o),
(311,321,c),
(311,303,o),
(325,289,o),
(343,289,c),
(355,289,o),
(366,296,o),
(371,305,c)
);
},
{
closed = 1;
nodes = (
(376,328,l),
(148,763,l),
(143,773,o),
(132,781,o),
(119,781,c),
(101,781,o),
(87,767,o),
(87,749,c),
(87,744,o),
(88,739,o),
(90,735,c),
(310,314,l),
(306,26,l),
(306,8,o),
(320,-7,o),
(338,-7,c),
(356,-7,o),
(371,8,o),
(371,25,c)
);
}
);
};
layerId = m005;
shapes = (
{
closed = 1;
nodes = (
(631,733,ls),
(633,737,o),
(635,743,o),
(635,749,cs),
(635,767,o),
(621,781,o),
(603,781,cs),
(591,781,o),
(580,774,o),
(575,765,cs),
(315,337,l),
(376,328,l),
(148,763,ls),
(143,773,o),
(132,781,o),
(119,781,cs),
(101,781,o),
(87,767,o),
(87,749,cs),
(87,744,o),
(88,739,o),
(90,735,cs),
(314,307,l),
(371,305,l)
);
},
{
alignment = -1;
ref = _GuideLine;
scale = (1.45,1);
},
{
closed = 1;
nodes = (
(356,-7,o),
(371,8,o),
(371,25,cs),
(376,354,l),
(310,354,l),
(306,26,ls),
(306,8,o),
(320,-7,o),
(338,-7,cs)
);
}
);
width = 722;
}
);
unicode = 89;
},
{
color = 9;
glyphname = Z;
kernLeft = Z;
kernRight = Z;
lastChange = "2025-12-04 18:29:11 +0000";
layers = (
{
background = {
shapes = (
{
closed = 0;
nodes = (
(708,230,l),
(646,83,o),
(553,-4,o),
(517,-4,cs),
(471,-4,o),
(406,6,o),
(332,6,cs),
(259,6,o),
(189,6,o),
(110,0,c)
);
},
{
closed = 0;
nodes = (
(678,740,l),
(80,-40,l)
);
},
{
closed = 0;
nodes = (
(177,700,l),
(280,686,o),
(482,688,o),
(648,700,c)
);
}
);
};
layerId = "6F9C6BB4-2DCF-443B-A55D-9CE049090094";
shapes = (
{
closed = 1;
nodes = (
(557,0,l),
(574,0,o),
(587,13,o),
(587,30,c),
(587,47,o),
(574,60,o),
(557,60,c),
(86,60,l),
(116,18,l),
(594,722,ls),
(600,731,o),
(601,739,o),
(601,745,cs),
(601,762,o),
(588,775,o),
(571,775,cs),
(99,775,ls),
(82,775,o),
(69,762,o),
(69,745,cs),
(69,728,o),
(82,715,o),
(99,715,cs),
(571,715,l),
(540,756,l),
(62,52,ls),
(59,47,o),
(56,40,o),
(56,30,cs),
(56,13,o),
(69,0,o),
(86,0,cs)
);
}
);
width = 656;
},
{
background = {
shapes = (
{
closed = 1;
nodes = (
(594,722,l),
(597,727,o),
(599,733,o),
(599,739,c),
(599,757,o),
(585,771,o),
(567,771,c),
(556,771,o),
(545,764,o),
(540,756,c),
(62,52,l),
(59,47,o),
(57,41,o),
(57,35,c),
(57,17,o),
(71,3,o),
(89,3,c),
(100,3,o),
(111,10,o),
(116,18,c)
);
},
{
closed = 1;
nodes = (
(99,774,l),
(82,774,o),
(69,761,o),
(69,744,c),
(69,727,o),
(82,714,o),
(99,714,c),
(567,714,l),
(584,714,o),
(597,727,o),
(597,744,c),
(597,761,o),
(584,774,o),
(567,774,c)
);
},
{
closed = 1;
nodes = (
(89,61,l),
(72,61,o),
(59,48,o),
(59,31,c),
(59,14,o),
(72,1,o),
(89,1,c),
(557,1,l),
(574,1,o),
(587,14,o),
(587,31,c),
(587,48,o),
(574,61,o),
(557,61,c)
);
}
);
};
layerId = m002;
shapes = (
{
closed = 1;
nodes = (
(557,0,l),
(574,0,o),
(587,13,o),
(587,30,c),
(587,47,o),
(574,60,o),
(557,60,c),
(86,60,l),
(116,18,l),
(594,722,ls),
(600,731,o),
(601,739,o),
(601,745,cs),
(601,762,o),
(588,775,o),
(571,775,cs),
(99,775,ls),
(82,775,o),
(69,762,o),
(69,745,cs),
(69,728,o),
(82,715,o),
(99,715,cs),
(571,715,l),
(540,756,l),
(62,52,ls),
(59,47,o),
(56,40,o),
(56,30,cs),
(56,13,o),
(69,0,o),
(86,0,cs)
);
},
{
alignment = -1;
ref = _GuideLine;
scale = (1.32,1);
}
);
width = 656;
},
{
background = {
shapes = (
{
closed = 1;
nodes = (
(594,722,l),
(597,727,o),
(599,733,o),
(599,739,c),
(599,757,o),
(585,771,o),
(567,771,c),
(556,771,o),
(545,764,o),
(540,756,c),
(62,52,l),
(59,47,o),
(57,41,o),
(57,35,c),
(57,17,o),
(71,3,o),
(89,3,c),
(100,3,o),
(111,10,o),
(116,18,c)
);
},
{
closed = 1;
nodes = (
(99,774,l),
(82,774,o),
(69,761,o),
(69,744,c),
(69,727,o),
(82,714,o),
(99,714,c),
(567,714,l),
(584,714,o),
(597,727,o),
(597,744,c),
(597,761,o),
(584,774,o),
(567,774,c)
);
},
{
closed = 1;
nodes = (
(89,61,l),
(72,61,o),
(59,48,o),
(59,31,c),
(59,14,o),
(72,1,o),
(89,1,c),
(557,1,l),
(574,1,o),
(587,14,o),
(587,31,c),
(587,48,o),
(574,61,o),
(557,61,c)
);
}
);
};
layerId = "F3447581-435E-44E2-ABAC-414C89955411";
shapes = (
{
closed = 1;
nodes = (
(557,0,l),
(574,0,o),
(587,13,o),
(587,30,c),
(587,47,o),
(574,60,o),
(557,60,c),
(86,60,l),
(116,18,l),
(594,722,ls),
(600,731,o),
(601,739,o),
(601,745,cs),
(601,762,o),
(588,775,o),
(571,775,cs),
(99,775,ls),
(82,775,o),
(69,762,o),
(69,745,cs),
(69,728,o),
(82,715,o),
(99,715,cs),
(571,715,l),
(540,756,l),
(62,52,ls),
(59,47,o),
(56,40,o),
(56,30,cs),
(56,13,o),
(69,0,o),
(86,0,cs)
);
}
);
width = 656;
},
{
background = {
shapes = (
{
alignment = -1;
ref = _GuideLine;
scale = (1.32,1);
},
{
closed = 1;
nodes = (
(601,762,o),
(588,775,o),
(571,775,cs),
(99,775,ls),
(82,775,o),
(69,762,o),
(69,745,cs),
(69,728,o),
(82,715,o),
(99,715,cs),
(571,715,l),
(540,756,l),
(62,52,ls),
(59,47,o),
(56,40,o),
(56,30,cs),
(56,13,o),
(69,0,o),
(86,0,cs),
(557,0,l),
(574,0,o),
(587,13,o),
(587,30,c),
(587,47,o),
(574,60,o),
(557,60,c),
(86,60,l),
(116,18,l),
(594,722,ls),
(600,731,o),
(601,739,o),
(601,745,cs)
);
}
);
};
layerId = m004;
shapes = (
{
alignment = -1;
ref = _GuideLine;
scale = (1.32,1);
}
);
width = 656;
},
{
background = {
shapes = (
{
closed = 1;
nodes = (
(594,722,l),
(597,727,o),
(599,733,o),
(599,739,c),
(599,757,o),
(585,771,o),
(567,771,c),
(556,771,o),
(545,764,o),
(540,756,c),
(62,52,l),
(59,47,o),
(57,41,o),
(57,35,c),
(57,17,o),
(71,3,o),
(89,3,c),
(100,3,o),
(111,10,o),
(116,18,c)
);
},
{
closed = 1;
nodes = (
(99,774,l),
(82,774,o),
(69,761,o),
(69,744,c),
(69,727,o),
(82,714,o),
(99,714,c),
(567,714,l),
(584,714,o),
(597,727,o),
(597,744,c),
(597,761,o),
(584,774,o),
(567,774,c)
);
},
{
closed = 1;
nodes = (
(89,61,l),
(72,61,o),
(59,48,o),
(59,31,c),
(59,14,o),
(72,1,o),
(89,1,c),
(557,1,l),
(574,1,o),
(587,14,o),
(587,31,c),
(587,48,o),
(574,61,o),
(557,61,c)
);
}
);
};
layerId = m005;
shapes = (
{
closed = 1;
nodes = (
(557,0,l),
(574,0,o),
(587,13,o),
(587,30,c),
(587,47,o),
(574,60,o),
(557,60,c),
(86,60,l),
(116,18,l),
(594,722,ls),
(600,731,o),
(601,739,o),
(601,745,cs),
(601,762,o),
(588,775,o),
(571,775,cs),
(99,775,ls),
(82,775,o),
(69,762,o),
(69,745,cs),
(69,728,o),
(82,715,o),
(99,715,cs),
(571,715,l),
(540,756,l),
(62,52,ls),
(59,47,o),
(56,40,o),
(56,30,cs),
(56,13,o),
(69,0,o),
(86,0,cs)
);
},
{
alignment = -1;
ref = _GuideLine;
scale = (1.32,1);
}
);
width = 656;
}
);
unicode = 90;
},
{
color = 9;
glyphname = Saltillo;
lastChange = "2025-12-04 18:29:11 +0000";
layers = (
{
anchors = (
{
name = top;
pos = (146,684);
}
);
layerId = "6F9C6BB4-2DCF-443B-A55D-9CE049090094";
shapes = (
{
attr = {
identifier = ID0x7fb66282a110;
};
closed = 1;
nodes = (
(102,289,o),
(111,294,o),
(117,303,c),
(240,472,o),
(236,633,o),
(189,712,c),
(183,723,o),
(173,729,o),
(161,729,c),
(143,729,o),
(129,715,o),
(129,697,c),
(129,691,o),
(131,686,o),
(133,682,c),
(168,623,o),
(172,486,o),
(65,339,c),
(61,333,o),
(59,328,o),
(59,321,c),
(59,304,o),
(74,289,o),
(91,289,c)
);
}
);
width = 294;
},
{
anchors = (
{
name = top;
pos = (146,684);
}
);
layerId = m002;
shapes = (
{
attr = {
identifier = ID0x7fb66282a110;
};
closed = 1;
nodes = (
(102,289,o),
(111,294,o),
(117,303,c),
(240,472,o),
(236,633,o),
(189,712,c),
(183,723,o),
(173,729,o),
(161,729,c),
(143,729,o),
(129,715,o),
(129,697,c),
(129,691,o),
(131,686,o),
(133,682,c),
(168,623,o),
(172,486,o),
(65,339,c),
(61,333,o),
(59,328,o),
(59,321,c),
(59,304,o),
(74,289,o),
(91,289,c)
);
},
{
alignment = -1;
ref = _GuideLine;
scale = (0.59,1);
}
);
width = 294;
},
{
anchors = (
{
name = top;
pos = (146,684);
}
);
layerId = "F3447581-435E-44E2-ABAC-414C89955411";
shapes = (
{
attr = {
identifier = ID0x7fb66282a110;
};
closed = 1;
nodes = (
(102,289,o),
(111,294,o),
(117,303,c),
(240,472,o),
(236,633,o),
(189,712,c),
(183,723,o),
(173,729,o),
(161,729,c),
(143,729,o),
(129,715,o),
(129,697,c),
(129,691,o),
(131,686,o),
(133,682,c),
(168,623,o),
(172,486,o),
(65,339,c),
(61,333,o),
(59,328,o),
(59,321,c),
(59,304,o),
(74,289,o),
(91,289,c)
);
}
);
width = 294;
},
{
anchors = (
{
name = top;
pos = (146,684);
}
);
layerId = m004;
shapes = (
{
alignment = -1;
ref = _GuideLine;
scale = (0.59,1);
}
);
width = 294;
},
{
anchors = (
{
name = top;
pos = (146,684);
}
);
layerId = m005;
shapes = (
{
attr = {
identifier = ID0x7fb66282a110;
};
closed = 1;
nodes = (
(102,289,o),
(111,294,o),
(117,303,c),
(240,472,o),
(236,633,o),
(189,712,c),
(183,723,o),
(173,729,o),
(161,729,c),
(143,729,o),
(129,715,o),
(129,697,c),
(129,691,o),
(131,686,o),
(133,682,c),
(168,623,o),
(172,486,o),
(65,339,c),
(61,333,o),
(59,328,o),
(59,321,c),
(59,304,o),
(74,289,o),
(91,289,c)
);
},
{
alignment = -1;
ref = _GuideLine;
scale = (0.59,1);
}
);
width = 294;
}
);
unicode = 42891;
},
{
color = 9;
glyphname = A_N_D;
kernLeft = N;
kernRight = A;
lastChange = "2025-12-12 13:58:42 +0000";
layers = (
{
background = {
shapes = (
{
closed = 0;
nodes = (
(175,0,l),
(210,700,l)
);
}
);
};
layerId = "6F9C6BB4-2DCF-443B-A55D-9CE049090094";
shapes = (
{
closed = 1;
nodes = (
(169,-5,o),
(183,9,o),
(183,27,cs),
(183,744,l),
(124,729,l),
(583,16,l),
(589,6,o),
(598,0,o),
(610,0,cs),
(625,0,l),
(928,0,o),
(1118,198,o),
(1118,475,c),
(1118,633,o),
(1015,775,o),
(787,775,c),
(591,775,l),
(579,32,l),
(637,48,l),
(178,761,ls),
(172,771,o),
(163,777,o),
(151,777,cs),
(133,777,o),
(119,763,o),
(119,745,cs),
(119,27,ls),
(119,9,o),
(133,-5,o),
(151,-5,cs)
);
},
{
closed = 1;
nodes = (
(451,243,l),
(451,303,l),
(158,303,l),
(158,243,l)
);
},
{
closed = 1;
nodes = (
(655,715,l),
(787,715,l),
(973,715,o),
(1053,607,o),
(1053,475,c),
(1053,230,o),
(890,60,o),
(625,60,c),
(621,60,l),
(643,32,l)
);
}
);
width = 1215;
},
{
background = {
shapes = (
{
closed = 0;
nodes = (
(175,0,l),
(210,700,l)
);
}
);
};
layerId = m002;
shapes = (
{
closed = 1;
nodes = (
(169,-5,o),
(183,9,o),
(183,27,cs),
(183,744,l),
(124,729,l),
(583,16,l),
(589,6,o),
(598,0,o),
(610,0,cs),
(625,0,l),
(928,0,o),
(1118,198,o),
(1118,475,c),
(1118,633,o),
(1015,775,o),
(787,775,c),
(591,775,l),
(579,32,l),
(637,48,l),
(178,761,ls),
(172,771,o),
(163,777,o),
(151,777,cs),
(133,777,o),
(119,763,o),
(119,745,cs),
(119,27,ls),
(119,9,o),
(133,-5,o),
(151,-5,cs)
);
},
{
alignment = -1;
ref = _GuideLine;
scale = (2.43,1);
},
{
closed = 1;
nodes = (
(451,243,l),
(451,303,l),
(158,303,l),
(158,243,l)
);
},
{
closed = 1;
nodes = (
(655,715,l),
(787,715,l),
(973,715,o),
(1053,607,o),
(1053,475,c),
(1053,230,o),
(890,60,o),
(625,60,c),
(621,60,l),
(643,32,l)
);
}
);
width = 1211;
},
{
layerId = "F3447581-435E-44E2-ABAC-414C89955411";
shapes = (
{
closed = 1;
nodes = (
(169,-5,o),
(183,9,o),
(183,27,cs),
(183,744,l),
(124,729,l),
(583,16,l),
(589,6,o),
(598,0,o),
(610,0,cs),
(625,0,l),
(928,0,o),
(1118,198,o),
(1118,475,c),
(1118,633,o),
(1015,775,o),
(787,775,c),
(591,775,l),
(579,32,l),
(637,48,l),
(178,761,ls),
(172,771,o),
(163,777,o),
(151,777,cs),
(133,777,o),
(119,763,o),
(119,745,cs),
(119,27,ls),
(119,9,o),
(133,-5,o),
(151,-5,cs)
);
},
{
closed = 1;
nodes = (
(451,243,l),
(451,303,l),
(158,303,l),
(158,243,l)
);
},
{
closed = 1;
nodes = (
(655,715,l),
(787,715,l),
(973,715,o),
(1053,607,o),
(1053,475,c),
(1053,230,o),
(890,60,o),
(625,60,c),
(621,60,l),
(643,32,l)
);
}
);
width = 1215;
},
{
background = {
shapes = (
{
closed = 0;
nodes = (
(175,0,l),
(210,700,l)
);
},
{
closed = 1;
nodes = (
(167,-5,o),
(181,9,o),
(181,27,cs),
(183,744,l),
(124,729,l),
(583,16,l),
(589,6,o),
(598,0,o),
(610,0,cs),
(625,0,l),
(928,0,o),
(1118,198,o),
(1118,475,c),
(1118,633,o),
(1015,775,o),
(787,775,c),
(591,775,l),
(579,32,l),
(637,48,l),
(178,761,ls),
(172,771,o),
(163,777,o),
(151,777,cs),
(133,777,o),
(119,763,o),
(119,745,cs),
(117,27,ls),
(117,9,o),
(131,-5,o),
(149,-5,cs)
);
},
{
closed = 1;
nodes = (
(451,243,l),
(451,303,l),
(158,303,l),
(158,243,l)
);
},
{
closed = 1;
nodes = (
(655,715,l),
(787,715,l),
(973,715,o),
(1053,607,o),
(1053,475,c),
(1053,230,o),
(890,60,o),
(625,60,c),
(621,60,l),
(643,32,l)
);
}
);
};
layerId = m004;
shapes = (
{
alignment = -1;
ref = _GuideLine;
scale = (2.43,1);
}
);
width = 1211;
},
{
background = {
shapes = (
{
closed = 0;
nodes = (
(175,0,l),
(210,700,l)
);
}
);
};
layerId = m005;
shapes = (
{
closed = 1;
nodes = (
(169,-5,o),
(183,9,o),
(183,27,cs),
(183,744,l),
(124,729,l),
(583,16,l),
(589,6,o),
(598,0,o),
(610,0,cs),
(625,0,l),
(928,0,o),
(1118,198,o),
(1118,475,c),
(1118,633,o),
(1015,775,o),
(787,775,c),
(591,775,l),
(579,32,l),
(637,48,l),
(178,761,ls),
(172,771,o),
(163,777,o),
(151,777,cs),
(133,777,o),
(119,763,o),
(119,745,cs),
(119,27,ls),
(119,9,o),
(133,-5,o),
(151,-5,cs)
);
},
{
alignment = -1;
ref = _GuideLine;
scale = (2.43,1);
},
{
closed = 1;
nodes = (
(451,243,l),
(451,303,l),
(158,303,l),
(158,243,l)
);
},
{
closed = 1;
nodes = (
(655,715,l),
(787,715,l),
(973,715,o),
(1053,607,o),
(1053,475,c),
(1053,230,o),
(890,60,o),
(625,60,c),
(621,60,l),
(643,32,l)
);
}
);
width = 1211;
},
{
associatedMasterId = "6F9C6BB4-2DCF-443B-A55D-9CE049090094";
background = {
shapes = (
{
closed = 0;
nodes = (
(175,0,l),
(210,700,l)
);
}
);
};
layerId = "B92A905D-9CF0-46ED-8494-9C63D6BCB40E";
name = "12 Dec 25 at 14:58";
shapes = (
{
closed = 1;
nodes = (
(167,-5,o),
(181,9,o),
(181,27,cs),
(183,744,l),
(124,729,l),
(583,16,l),
(589,6,o),
(598,0,o),
(610,0,cs),
(625,0,l),
(928,0,o),
(1118,198,o),
(1118,475,c),
(1118,633,o),
(1015,775,o),
(787,775,c),
(591,775,l),
(579,32,l),
(637,48,l),
(178,761,ls),
(172,771,o),
(163,777,o),
(151,777,cs),
(133,777,o),
(119,763,o),
(119,745,cs),
(117,27,ls),
(117,9,o),
(131,-5,o),
(149,-5,cs)
);
},
{
closed = 1;
nodes = (
(451,243,l),
(451,303,l),
(158,303,l),
(158,243,l)
);
},
{
closed = 1;
nodes = (
(655,715,l),
(787,715,l),
(973,715,o),
(1053,607,o),
(1053,475,c),
(1053,230,o),
(890,60,o),
(625,60,c),
(621,60,l),
(643,32,l)
);
}
);
width = 1215;
},
{
associatedMasterId = m002;
background = {
shapes = (
{
closed = 0;
nodes = (
(175,0,l),
(210,700,l)
);
}
);
};
layerId = "EBFCB9BC-E7EC-42B2-BD43-8C666F1EE44C";
name = "12 Dec 25 at 14:58";
shapes = (
{
closed = 1;
nodes = (
(167,-5,o),
(181,9,o),
(181,27,cs),
(183,744,l),
(124,729,l),
(583,16,l),
(589,6,o),
(598,0,o),
(610,0,cs),
(625,0,l),
(928,0,o),
(1118,198,o),
(1118,475,c),
(1118,633,o),
(1015,775,o),
(787,775,c),
(591,775,l),
(579,32,l),
(637,48,l),
(178,761,ls),
(172,771,o),
(163,777,o),
(151,777,cs),
(133,777,o),
(119,763,o),
(119,745,cs),
(117,27,ls),
(117,9,o),
(131,-5,o),
(149,-5,cs)
);
},
{
alignment = -1;
ref = _GuideLine;
scale = (2.43,1);
},
{
closed = 1;
nodes = (
(451,243,l),
(451,303,l),
(158,303,l),
(158,243,l)
);
},
{
closed = 1;
nodes = (
(655,715,l),
(787,715,l),
(973,715,o),
(1053,607,o),
(1053,475,c),
(1053,230,o),
(890,60,o),
(625,60,c),
(621,60,l),
(643,32,l)
);
}
);
width = 1211;
},
{
associatedMasterId = m002;
background = {
shapes = (
{
closed = 0;
nodes = (
(175,0,l),
(210,700,l)
);
}
);
};
layerId = "D1696D1E-19AF-446E-A749-3E6914B5FF39";
name = "12 Dec 25 at 14:58";
shapes = (
{
closed = 1;
nodes = (
(167,-5,o),
(181,9,o),
(181,27,cs),
(183,744,l),
(124,729,l),
(583,16,l),
(589,6,o),
(598,0,o),
(610,0,cs),
(625,0,l),
(928,0,o),
(1118,198,o),
(1118,475,c),
(1118,633,o),
(1015,775,o),
(787,775,c),
(591,775,l),
(579,32,l),
(637,48,l),
(178,761,ls),
(172,771,o),
(163,777,o),
(151,777,cs),
(133,777,o),
(119,763,o),
(119,745,cs),
(117,27,ls),
(117,9,o),
(131,-5,o),
(149,-5,cs)
);
},
{
alignment = -1;
ref = _GuideLine;
scale = (2.43,1);
},
{
closed = 1;
nodes = (
(451,243,l),
(451,303,l),
(158,303,l),
(158,243,l)
);
},
{
closed = 1;
nodes = (
(655,715,l),
(787,715,l),
(973,715,o),
(1053,607,o),
(1053,475,c),
(1053,230,o),
(890,60,o),
(625,60,c),
(621,60,l),
(643,32,l)
);
}
);
width = 1211;
},
{
associatedMasterId = "F3447581-435E-44E2-ABAC-414C89955411";
layerId = "35FBDBD8-0ACA-4ECE-A47B-D1995BB4E4EB";
name = "12 Dec 25 at 14:58";
shapes = (
{
closed = 1;
nodes = (
(167,-5,o),
(181,9,o),
(181,27,cs),
(183,744,l),
(124,729,l),
(583,16,l),
(589,6,o),
(598,0,o),
(610,0,cs),
(625,0,l),
(928,0,o),
(1118,198,o),
(1118,475,c),
(1118,633,o),
(1015,775,o),
(787,775,c),
(591,775,l),
(579,32,l),
(637,48,l),
(178,761,ls),
(172,771,o),
(163,777,o),
(151,777,cs),
(133,777,o),
(119,763,o),
(119,745,cs),
(117,27,ls),
(117,9,o),
(131,-5,o),
(149,-5,cs)
);
},
{
closed = 1;
nodes = (
(451,243,l),
(451,303,l),
(158,303,l),
(158,243,l)
);
},
{
closed = 1;
nodes = (
(655,715,l),
(787,715,l),
(973,715,o),
(1053,607,o),
(1053,475,c),
(1053,230,o),
(890,60,o),
(625,60,c),
(621,60,l),
(643,32,l)
);
}
);
width = 1215;
},
{
associatedMasterId = m005;
background = {
shapes = (
{
closed = 0;
nodes = (
(175,0,l),
(210,700,l)
);
}
);
};
layerId = "99F24F40-54B0-42A6-B44F-3F92F2F71AC1";
name = "12 Dec 25 at 14:58";
shapes = (
{
closed = 1;
nodes = (
(167,-5,o),
(181,9,o),
(181,27,cs),
(183,744,l),
(124,729,l),
(583,16,l),
(589,6,o),
(598,0,o),
(610,0,cs),
(625,0,l),
(928,0,o),
(1118,198,o),
(1118,475,c),
(1118,633,o),
(1015,775,o),
(787,775,c),
(591,775,l),
(579,32,l),
(637,48,l),
(178,761,ls),
(172,771,o),
(163,777,o),
(151,777,cs),
(133,777,o),
(119,763,o),
(119,745,cs),
(117,27,ls),
(117,9,o),
(131,-5,o),
(149,-5,cs)
);
},
{
alignment = -1;
ref = _GuideLine;
scale = (2.43,1);
},
{
closed = 1;
nodes = (
(451,243,l),
(451,303,l),
(158,303,l),
(158,243,l)
);
},
{
closed = 1;
nodes = (
(655,715,l),
(787,715,l),
(973,715,o),
(1053,607,o),
(1053,475,c),
(1053,230,o),
(890,60,o),
(625,60,c),
(621,60,l),
(643,32,l)
);
}
);
width = 1211;
},
{
associatedMasterId = m004;
background = {
shapes = (
{
closed = 0;
nodes = (
(175,0,l),
(210,700,l)
);
},
{
closed = 1;
nodes = (
(167,-5,o),
(181,9,o),
(181,27,cs),
(183,744,l),
(124,729,l),
(583,16,l),
(589,6,o),
(598,0,o),
(610,0,cs),
(625,0,l),
(928,0,o),
(1118,198,o),
(1118,475,c),
(1118,633,o),
(1015,775,o),
(787,775,c),
(591,775,l),
(579,32,l),
(637,48,l),
(178,761,ls),
(172,771,o),
(163,777,o),
(151,777,cs),
(133,777,o),
(119,763,o),
(119,745,cs),
(117,27,ls),
(117,9,o),
(131,-5,o),
(149,-5,cs)
);
},
{
closed = 1;
nodes = (
(451,243,l),
(451,303,l),
(158,303,l),
(158,243,l)
);
},
{
closed = 1;
nodes = (
(655,715,l),
(787,715,l),
(973,715,o),
(1053,607,o),
(1053,475,c),
(1053,230,o),
(890,60,o),
(625,60,c),
(621,60,l),
(643,32,l)
);
}
);
};
layerId = "BCAB4CD1-2A5E-4E08-AA14-F4C4A89BD4AA";
name = "12 Dec 25 at 14:58";
shapes = (
{
alignment = -1;
ref = _GuideLine;
scale = (2.43,1);
}
);
width = 1211;
}
);
metricRight = D;
},
{
color = 0;
glyphname = e;
kernLeft = e;
kernRight = e;
lastChange = "2025-01-06 16:37:10 +0000";
layers = (
{
background = {
shapes = (
{
closed = 0;
nodes = (
(195,364,ls),
(138,364,o),
(99,289,o),
(99,207,cs),
(99,76,o),
(201,-5,o),
(298,-5,cs)
);
}
);
};
guides = (
{
pos = (156,364);
}
);
layerId = "6F9C6BB4-2DCF-443B-A55D-9CE049090094";
shapes = (
{
ref = _conect.right.e;
},
{
pos = (179,0);
ref = _e.master;
}
);
width = 337;
},
{
background = {
shapes = (
{
closed = 0;
nodes = (
(195,364,ls),
(138,364,o),
(99,289,o),
(99,207,cs),
(99,76,o),
(201,-5,o),
(298,-5,cs)
);
}
);
};
guides = (
{
pos = (156,364);
}
);
layerId = m002;
shapes = (
{
ref = _conect.right.e;
},
{
pos = (179,0);
ref = _e.master;
}
);
width = 337;
},
{
background = {
shapes = (
{
closed = 0;
nodes = (
(195,364,ls),
(138,364,o),
(99,289,o),
(99,207,cs),
(99,76,o),
(201,-5,o),
(298,-5,cs)
);
}
);
};
guides = (
{
pos = (156,364);
}
);
layerId = "F3447581-435E-44E2-ABAC-414C89955411";
shapes = (
{
ref = _conect.right.e;
},
{
pos = (179,0);
ref = _e.master;
}
);
width = 337;
},
{
background = {
shapes = (
{
closed = 0;
nodes = (
(195,364,ls),
(138,364,o),
(99,289,o),
(99,207,cs),
(99,76,o),
(201,-5,o),
(298,-5,cs)
);
}
);
};
guides = (
{
pos = (156,364);
}
);
layerId = m004;
shapes = (
{
ref = _conect.right.e;
},
{
pos = (179,0);
ref = _e.master;
}
);
width = 337;
},
{
background = {
shapes = (
{
closed = 0;
nodes = (
(195,364,ls),
(138,364,o),
(99,289,o),
(99,207,cs),
(99,76,o),
(201,-5,o),
(298,-5,cs)
);
}
);
};
guides = (
{
pos = (156,364);
}
);
layerId = m005;
shapes = (
{
ref = _conect.right.e;
},
{
pos = (179,0);
ref = _e.master;
}
);
width = 337;
}
);
unicode = 101;
},
{
color = 0;
glyphname = f;
kernLeft = l;
kernRight = g;
lastChange = "2024-12-06 11:28:51 +0000";
layers = (
{
background = {
shapes = (
{
attr = {
identifier = ID0x7f82cd9921d0;
lineCapEnd = "1";
lineCapStart = "1";
};
closed = 0;
nodes = (
(189,160,l),
(213,49,o),
(232,-70,o),
(223,-203,cs),
(217,-296,o),
(182,-373,o),
(129,-373,cs),
(93,-373,o),
(54,-332,o),
(67,-241,cs),
(83,-126,o),
(176,-104,o),
(339,0,c)
);
},
{
pos = (181,0);
ref = _bucle.ascendente;
},
{
ref = _f.master;
}
);
};
layerId = "6F9C6BB4-2DCF-443B-A55D-9CE049090094";
shapes = (
{
ref = _conect.left.ascendente;
},
{
pos = (182,0);
ref = _f.master;
}
);
width = 327;
},
{
background = {
shapes = (
{
attr = {
identifier = ID0x7f82cd9921d0;
lineCapEnd = "1";
lineCapStart = "1";
};
closed = 0;
nodes = (
(189,160,l),
(213,49,o),
(232,-70,o),
(223,-203,cs),
(217,-296,o),
(182,-373,o),
(129,-373,cs),
(93,-373,o),
(54,-332,o),
(67,-241,cs),
(83,-126,o),
(176,-104,o),
(339,0,c)
);
},
{
pos = (181,0);
ref = _bucle.ascendente;
},
{
ref = _f.master;
}
);
};
layerId = m002;
shapes = (
{
ref = _conect.left.ascendente;
},
{
pos = (182,0);
ref = _f.master;
}
);
width = 327;
},
{
background = {
shapes = (
{
attr = {
identifier = ID0x7f82cd9921d0;
lineCapEnd = "1";
lineCapStart = "1";
};
closed = 0;
nodes = (
(189,160,l),
(213,49,o),
(232,-70,o),
(223,-203,cs),
(217,-296,o),
(182,-373,o),
(129,-373,cs),
(93,-373,o),
(54,-332,o),
(67,-241,cs),
(83,-126,o),
(176,-104,o),
(339,0,c)
);
},
{
pos = (181,0);
ref = _bucle.ascendente;
},
{
ref = _f.master;
}
);
};
layerId = "F3447581-435E-44E2-ABAC-414C89955411";
shapes = (
{
ref = _conect.left.ascendente;
},
{
pos = (182,0);
ref = _f.master;
}
);
width = 327;
},
{
background = {
shapes = (
{
attr = {
identifier = ID0x7f82cd9921d0;
lineCapEnd = "1";
lineCapStart = "1";
};
closed = 0;
nodes = (
(189,160,l),
(213,49,o),
(232,-70,o),
(223,-203,cs),
(217,-296,o),
(182,-373,o),
(129,-373,cs),
(93,-373,o),
(54,-332,o),
(67,-241,cs),
(83,-126,o),
(176,-104,o),
(339,0,c)
);
},
{
pos = (181,0);
ref = _bucle.ascendente;
},
{
ref = _f.master;
}
);
};
layerId = m004;
shapes = (
{
ref = _conect.left.ascendente;
},
{
pos = (182,0);
ref = _f.master;
}
);
width = 327;
},
{
background = {
shapes = (
{
attr = {
identifier = ID0x7f82cd9921d0;
lineCapEnd = "1";
lineCapStart = "1";
};
closed = 0;
nodes = (
(189,160,l),
(213,49,o),
(232,-70,o),
(223,-203,cs),
(217,-296,o),
(182,-373,o),
(129,-373,cs),
(93,-373,o),
(54,-332,o),
(67,-241,cs),
(83,-126,o),
(176,-104,o),
(339,0,c)
);
},
{
pos = (181,0);
ref = _bucle.ascendente;
},
{
ref = _f.master;
}
);
};
layerId = m005;
shapes = (
{
ref = _conect.left.ascendente;
},
{
pos = (182,0);
ref = _f.master;
}
);
width = 327;
}
);
unicode = 102;
},
